<?xml version="1.0" encoding="utf-8"?>
<!-- Generator: Adobe Illustrator 15.0.0, SVG Export Plug-In . SVG Version: 6.00 Build 0)  -->
<!DOCTYPE svg PUBLIC "-//W3C//DTD SVG 1.1//EN" "http://www.w3.org/Graphics/SVG/1.1/DTD/svg11.dtd">
<svg version="1.1" id="Layer_1" xmlns="http://www.w3.org/2000/svg" xmlns:xlink="http://www.w3.org/1999/xlink" x="0px" y="0px"
	 width="1024px" height="768px" viewBox="0 0 1024 768" enable-background="new 0 0 1024 768" xml:space="preserve">
<rect x="8.371" y="22.795" width="1008" height="701"/>
<g>
	<path fill="#FFFF00" d="M107.92,292.279l-6.704,47.248h27.462l6.704-47.248h14.055l-6.703,47.248h23.57l-1.946,13.948h-23.595
		l-4.436,31.354h23.597l-1.95,13.947h-23.619l-6.543,46.274h-14.056l6.543-46.274H92.889l-6.595,46.274H72.24l6.543-46.274h-23.41
		l1.944-13.947h23.437l4.436-31.354H61.753l1.946-13.948h23.462l6.703-47.248H107.92z M99.257,353.475l-4.407,31.354h27.422
		l4.436-31.354H99.257z"/>
	<path fill="#FFFFFF" d="M173.452,285.9h9.731h9.73v58.924l3.351-4.324c8.434-9.875,18.993-14.813,31.679-14.813
		c12.758,0,22.597,3.46,29.517,10.38c6.919,6.919,10.379,16.758,10.379,29.516v79.251h-9.73h-9.731v-74.386
		c0-9.586-1.838-16.488-5.514-20.705c-3.676-4.216-9.659-6.325-17.947-6.325c-9.803,0-17.588,3.551-23.354,10.65
		c-5.767,7.1-8.649,16.705-8.649,28.814v61.952h-9.73h-9.731V285.9z"/>
	<path fill="#FFFFFF" d="M291.585,431.104c-9.911-11.244-14.866-25.983-14.866-44.221c0-18.308,4.955-33.084,14.866-44.328
		c9.91-11.245,22.867-16.867,38.869-16.867c16.145,0,29.155,5.623,39.031,16.867c9.874,11.244,14.812,26.021,14.812,44.328
		c0,18.237-4.938,32.977-14.812,44.221c-9.876,11.245-22.886,16.866-39.031,16.866C314.452,447.97,301.495,442.349,291.585,431.104z
		 M354.889,419.211c6.055-8.002,9.082-18.776,9.082-32.328c0-13.55-3.027-24.344-9.082-32.381
		c-6.055-8.036-14.2-12.055-24.435-12.055c-10.236,0-18.363,4.019-24.381,12.055c-6.019,8.038-9.027,18.832-9.027,32.381
		c0,13.552,3.009,24.326,9.027,32.328c6.018,8,14.146,12.001,24.381,12.001C340.688,431.212,348.834,427.211,354.889,419.211z"/>
	<path fill="#FFFFFF" d="M395.878,329.147h9.19h9.299v19.786c1.657-3.098,3.422-5.909,5.298-8.433
		c7.352-9.875,16.397-14.813,27.137-14.813c1.801,0,3.639,0.325,5.514,0.974v19.894l-4-0.108c-10.524,0-18.65,3.154-24.38,9.461
		c-5.73,6.308-8.596,15.299-8.596,26.976v61.952h-9.73h-9.731V329.147z"/>
	<path fill="#FFFFFF" d="M484.116,447.97c-11.316,0-20.291-3.027-26.921-9.082c-6.632-6.055-9.948-14.235-9.948-24.543
		c0-10.379,3.118-18.632,9.352-24.759c6.234-6.126,15.335-9.946,27.3-11.46l26.489-3.352c2.163-0.216,4.218-0.576,6.163-1.081
		c2.523-0.649,4.47-1.947,5.838-3.893c1.369-1.946,2.055-4.396,2.055-7.352v-0.973c0-6.199-2.342-11.046-7.027-14.542
		c-4.687-3.496-11.208-5.244-19.569-5.244c-8.001,0-14.254,1.856-18.759,5.568c-4.505,3.713-7.227,9.244-8.163,16.597h-17.948
		c0.936-12.686,5.406-22.219,13.407-28.598c8.001-6.379,19.461-9.569,34.382-9.569c14.056,0,24.759,3.046,32.111,9.137
		c7.353,6.091,11.028,14.974,11.028,26.651v63.573c0,1.945,0.595,3.515,1.783,4.704c1.189,1.188,2.795,1.782,4.812,1.782
		c0.577,0,1.423-0.07,2.541-0.215c1.116-0.143,2.324-0.359,3.622-0.649v14.056c-1.875,0.72-3.855,1.298-5.947,1.73
		c-2.091,0.433-3.854,0.648-5.298,0.648c-7.352,0-12.687-2.02-16.001-6.055c-2.162-2.666-3.713-6.45-4.648-11.353
		c-1.443,1.804-3.1,3.534-4.975,5.189C510.065,443.61,498.171,447.97,484.116,447.97z M524.444,398.992V386.45
		c-3.604,1.73-7.605,2.92-12.001,3.568l-17.839,2.595c-9.371,1.297-16.218,3.479-20.542,6.541
		c-4.325,3.064-6.487,7.228-6.487,12.487c0,6.487,1.766,11.479,5.298,14.975c3.531,3.497,8.542,5.245,15.028,5.245
		c10.234,0,18.884-2.774,25.948-8.326c4.829-3.893,8.038-8.288,9.623-13.19c0.287-0.936,0.504-2.413,0.648-4.433
		C524.337,403.822,524.444,401.516,524.444,398.992z"/>
	<path fill="#FFFFFF" d="M610.628,447.97c-16.362,0-29.229-5.188-38.598-15.569c-9.37-10.379-14.056-24.722-14.056-43.03
		c0-19.462,4.954-34.939,14.866-46.437c9.91-11.497,23.228-17.246,39.95-17.246c15.136,0,27.354,5.623,36.652,16.867
		c9.298,11.244,13.946,26.021,13.946,44.328l-0.229,6.92h-84.504c0.794,11.532,3.425,20.326,7.891,26.381
		c5.474,7.352,14.118,11.028,25.934,11.028c7.421,0,13.903-2.089,19.452-6.271c5.547-4.181,8.931-9.515,10.157-16.002h19.245
		c-2.883,12.687-8.649,22.363-17.3,29.03C635.388,444.636,624.251,447.97,610.628,447.97z M643.109,378.125
		c-0.58-10.739-3.248-19.1-8.005-25.083c-5.262-6.631-12.975-9.947-23.141-9.947c-10.238,0-18.419,3.821-24.544,11.46
		c-4.834,5.983-7.753,13.839-8.763,23.57H643.109z"/>
	<path fill="#FFFFFF" d="M702.543,385.153l-38.924-56.006h12.574h12.572l26.653,41.191l26.752-41.191h11.974h12.079l-38.922,56.33
		l40.22,59.357h-12.093h-12.197l-28.838-44.101l-28.392,44.101h-12.217h-12.328L702.543,385.153z"/>
	<path fill="#FFFFFF" d="M813.268,444.727c-6.632,1.008-11.46,1.514-14.487,1.514c-8.504,0-14.507-1.873-18.002-5.622
		c-3.497-3.748-5.243-10.198-5.243-19.354v-76.224h-16.002v-15.894h16.002v-32.435h19.461v32.435h18.271v15.894h-18.271v76.224
		c0,2.595,1.027,4.649,3.082,6.162c2.055,1.515,4.812,2.271,8.271,2.271h6.919V444.727z"/>
	<path fill="#FFFFFF" d="M821.715,329.147h9.19h9.298v19.786c1.658-3.098,3.423-5.909,5.298-8.433
		c7.353-9.875,16.396-14.813,27.138-14.813c1.802,0,3.639,0.325,5.515,0.974v19.894l-4.002-0.108c-10.523,0-18.65,3.154-24.38,9.461
		c-5.73,6.308-8.596,15.299-8.596,26.976v61.952h-9.73h-9.73V329.147z"/>
	<path fill="#FFFFFF" d="M909.952,447.97c-11.315,0-20.289-3.027-26.922-9.082c-6.632-6.055-9.946-14.235-9.946-24.543
		c0-10.379,3.116-18.632,9.353-24.759c6.233-6.126,15.335-9.946,27.3-11.46l26.489-3.352c2.161-0.216,4.216-0.576,6.162-1.081
		c2.521-0.649,4.468-1.947,5.839-3.893c1.369-1.946,2.054-4.396,2.054-7.352v-0.973c0-6.199-2.345-11.046-7.028-14.542
		c-4.685-3.496-11.209-5.244-19.569-5.244c-8,0-14.254,1.856-18.759,5.568c-4.506,3.713-7.226,9.244-8.161,16.597h-17.948
		c0.936-12.686,5.405-22.219,13.407-28.598c8-6.379,19.461-9.569,34.381-9.569c14.056,0,24.759,3.046,32.11,9.137
		c7.353,6.091,11.028,14.974,11.028,26.651v63.573c0,1.945,0.596,3.515,1.785,4.704c1.188,1.188,2.792,1.782,4.811,1.782
		c0.575,0,1.423-0.07,2.541-0.215c1.116-0.143,2.324-0.359,3.622-0.649v14.056c-1.875,0.72-3.857,1.298-5.946,1.73
		c-2.091,0.433-3.857,0.648-5.298,0.648c-7.352,0-12.687-2.02-16.002-6.055c-2.162-2.666-3.712-6.45-4.649-11.353
		c-1.441,1.804-3.101,3.534-4.973,5.189C935.9,443.61,924.009,447.97,909.952,447.97z M950.28,398.992V386.45
		c-3.604,1.73-7.604,2.92-12,3.568l-17.841,2.595c-9.371,1.297-16.218,3.479-20.542,6.541c-4.325,3.064-6.487,7.228-6.487,12.487
		c0,6.487,1.768,11.479,5.298,14.975c3.531,3.497,8.542,5.245,15.028,5.245c10.235,0,18.884-2.774,25.948-8.326
		c4.829-3.893,8.036-8.288,9.622-13.19c0.289-0.936,0.505-2.413,0.649-4.433C950.172,403.822,950.28,401.516,950.28,398.992z"/>
</g>
</svg>
