<?xml version="1.0" encoding="utf-8"?>
<!-- Generator: Adobe Illustrator 15.0.0, SVG Export Plug-In . SVG Version: 6.00 Build 0)  -->
<!DOCTYPE svg PUBLIC "-//W3C//DTD SVG 1.1//EN" "http://www.w3.org/Graphics/SVG/1.1/DTD/svg11.dtd">
<svg version="1.1" id="Camada_1" xmlns="http://www.w3.org/2000/svg" xmlns:xlink="http://www.w3.org/1999/xlink" x="0px" y="0px"
	 width="425.2px" height="283.46px" viewBox="0 0 425.2 283.46" enable-background="new 0 0 425.2 283.46" xml:space="preserve">
<g>
	<path d="M53.728,126.983c0,0.496-0.249,0.744-0.744,0.744c-0.189,0-0.52-0.023-0.992-0.071c-5.951-0.827-10.273-1.24-12.965-1.24
		c-1.937,0-2.857-0.012-2.763-0.036c-1.37,0.119-2.055,0.52-2.055,1.204c0,1.086,1.11,1.76,3.33,2.02
		c0.426,0.047,1.925,0.07,4.5,0.07c1.983,0,3.707-0.07,5.171-0.212c2.078-0.188,2.87-0.283,2.374-0.283
		c0.638,0,0.957,0.402,0.957,1.204c0,0.756-0.053,1.901-0.159,3.437c-0.106,1.536-0.159,2.68-0.159,3.436
		c0,0.756,0.022,1.877,0.07,3.365c0.047,1.488,0.071,2.599,0.071,3.33c0,0.544-0.366,0.815-1.098,0.815
		c0.213,0-0.814-0.142-3.082-0.426c-2.528-0.33-5.443-0.495-8.75-0.495c-2.149,0-3.224,0.59-3.224,1.771
		c0,3.685,0.083,7.133,0.248,10.344c0.023,0.378,0.106,1.205,0.248,2.479c0.094,1.063,0.142,1.901,0.142,2.516
		c0,0.544-0.425,0.814-1.275,0.814c-0.26,0-0.602-0.035-1.028-0.105c-2.054-0.284-4.888-0.426-8.501-0.426
		c-0.898,0-2.25,0.048-4.056,0.142c-1.807,0.095-3.159,0.143-4.056,0.143c-0.78,0-1.169-0.343-1.169-1.027
		c0,0.495,0.106-1.652,0.319-6.447c0.354-8.171,0.531-14.005,0.531-17.5c0-2.338-0.331-10.143-0.991-23.416l-0.036-0.46
		c-0.023-0.567,0.271-0.851,0.886-0.851c1.865,0,4.67,0.048,8.413,0.142s6.559,0.142,8.449,0.142c1.96,0,4.906-0.165,8.838-0.496
		c3.932-0.331,6.877-0.496,8.838-0.496c1.441,0,2.268,0.768,2.48,2.303c-0.048,1.299,0,3.212,0.142,5.739
		C53.361,123.784,53.728,126.394,53.728,126.983z"/>
	<path d="M80.317,128.046c0,0.874-0.071,2.202-0.212,3.985c-0.142,1.784-0.213,3.124-0.213,4.021c0,0.874,0.036,2.191,0.106,3.95
		c0.07,1.759,0.106,3.076,0.106,3.949c0,1.04-1.087,1.559-3.259,1.559c-0.496,0-1.146-0.029-1.948-0.088
		c-0.803-0.059-1.311-0.089-1.523-0.089c-1.701,0-2.55,0.661-2.55,1.983c0,1.395,0.083,3.484,0.248,6.271
		c0.165,2.787,0.249,4.877,0.249,6.271c0,1.204-0.509,1.807-1.524,1.807c-0.756,0-1.9-0.036-3.436-0.106
		c-1.536-0.07-2.681-0.106-3.437-0.106c-0.803,0-2.014,0.013-3.631,0.036c-1.618,0.022-2.829,0.035-3.631,0.035
		c-1.016,0-1.523-0.508-1.523-1.524v-16.543c0-5.147-0.508-9.576-1.523-13.284c-0.071-0.26-0.106-0.483-0.106-0.672
		c0-0.473,0.2-0.78,0.602-0.921c0.59-0.213,1.83-0.401,3.72-0.567c2.196-0.189,3.554-0.331,4.074-0.425
		c4.818-0.968,7.38-1.452,7.687-1.452c0.472,0,0.762,0.78,0.868,2.338c0.106,1.559,0.324,2.338,0.656,2.338
		c-0.213,0,0.738-0.638,2.852-1.914c2.113-1.275,4.256-1.913,6.43-1.913C80.01,126.983,80.317,127.338,80.317,128.046z"/>
	<path d="M116.436,143.668c0,5.433-1.749,9.913-5.243,13.444c-3.496,3.53-7.958,5.295-13.39,5.295
		c-5.291,0-9.719-1.723-13.285-5.172c-3.565-3.447-5.349-7.805-5.349-13.071c0-5.526,1.712-10.096,5.136-13.709
		c3.519-3.661,8.018-5.491,13.497-5.491c5.432,0,9.895,1.759,13.39,5.278C114.687,133.762,116.436,138.237,116.436,143.668z
		 M101.061,143.668c0-0.921-0.313-1.706-0.938-2.355c-0.626-0.649-1.399-0.974-2.32-0.974s-1.695,0.318-2.321,0.957
		c-0.626,0.637-0.938,1.43-0.938,2.373c0,0.922,0.312,1.706,0.938,2.355c0.625,0.65,1.4,0.975,2.321,0.975
		c0.944,0,1.723-0.318,2.338-0.957C100.754,145.404,101.061,144.613,101.061,143.668z"/>
	<path d="M155.565,160.211c0,0.969-0.438,1.453-1.311,1.453c-0.803,0-1.996-0.036-3.578-0.106c-1.583-0.07-2.763-0.106-3.542-0.106
		c-0.828,0-2.061,0.013-3.702,0.036c-1.642,0.022-2.875,0.035-3.702,0.035c-0.921,0-1.381-0.603-1.381-1.807
		c0-1.086,0.023-2.698,0.071-4.836c0.047-2.138,0.071-3.749,0.071-4.835c0-0.803-0.024-2.007-0.071-3.613
		c-0.048-1.606-0.071-2.811-0.071-3.614c0-1.369-0.673-2.054-2.019-2.054c-1.37,0-2.055,0.661-2.055,1.983v17.11
		c0,1.204-0.509,1.807-1.523,1.807c-0.756,0-1.901-0.036-3.436-0.106c-1.536-0.07-2.68-0.106-3.436-0.106
		c-0.803,0-2.014,0.013-3.631,0.036c-1.618,0.022-2.828,0.035-3.631,0.035c-1.016,0-1.523-0.508-1.523-1.524v-16.543
		c0-5.123-0.555-9.717-1.665-13.78c-0.071-0.26-0.106-0.483-0.106-0.672c0-0.449,0.2-0.756,0.603-0.921
		c2.409-0.306,5.265-0.696,8.572-1.168c4.889-0.944,7.699-1.417,8.431-1.417c0.473,0,0.768,0.779,0.886,2.338
		c0.118,1.558,0.307,2.337,0.567,2.337c-0.189,0,1.033-0.685,3.667-2.054c2.633-1.37,4.812-2.055,6.536-2.055
		c2.857,0,5.326,0.673,7.404,2.019c2.385,1.583,3.578,3.732,3.578,6.447V160.211z"/>
	<path d="M183.854,147.955c0,0.991-0.112,2.485-0.337,4.48c-0.225,1.996-0.336,3.502-0.336,4.517c0,0.874-0.101,1.446-0.301,1.719
		c-0.201,0.271-0.726,0.643-1.577,1.115c-2.787,1.488-6.294,2.231-10.521,2.231c-8.077,0-12.116-2.634-12.116-7.899
		c0-1.251,0.059-3.146,0.177-5.686c0.118-2.538,0.177-4.434,0.177-5.686c0-0.992-0.555-1.5-1.665-1.523
		c-1.111-0.023-1.665-0.39-1.665-1.098c0-0.543,0.036-1.352,0.106-2.427c0.071-1.074,0.106-1.883,0.106-2.427
		c0-0.614-0.041-1.517-0.124-2.71c-0.083-1.191-0.124-2.084-0.124-2.674c0-0.519,0.479-0.938,1.435-1.257
		c0.957-0.319,1.435-0.797,1.435-1.435v-4.428c0-3.307-0.013-4.699-0.036-4.18c0.094-2.267,0.438-3.4,1.028-3.4
		c0.59,0,1.759,0.201,3.507,0.602c1.889,0.449,3.165,0.697,3.826,0.744c0.448,0.048,1.7,0.213,3.755,0.496
		c1.535,0.213,2.774,0.319,3.719,0.319c0.661,0,0.992,0.261,0.992,0.779c0,0.851-0.083,2.131-0.248,3.844
		c-0.166,1.713-0.248,2.994-0.248,3.844c0,0.685,0.342,1.027,1.027,1.027c0.756,0,1.883-0.035,3.383-0.106
		c1.5-0.071,2.626-0.106,3.383-0.106c0.567,0,0.851,0.225,0.851,0.673c0,0.708-0.083,1.807-0.249,3.295
		c-0.165,1.487-0.248,2.609-0.248,3.365c0,0.756,0.023,1.89,0.071,3.4c0.047,1.512,0.071,2.646,0.071,3.401
		c0,0.59-0.367,0.885-1.098,0.885c-0.686,0-1.712-0.022-3.082-0.071c-1.37-0.047-2.396-0.071-3.082-0.071
		c-0.685,0-1.027,0.39-1.027,1.169c0,2.077,0.968,3.472,2.904,4.18c1.134,0.448,2.964,0.673,5.491,0.673
		C183.642,147.529,183.854,147.672,183.854,147.955z"/>
</g>
<g>
	<path fill="#79A621" d="M278.129,162.182c0,0.226-0.276,0.338-0.829,0.338c-0.9,0-2.236-0.041-4.006-0.123
		c-1.771-0.082-3.096-0.122-3.976-0.122c-0.86,0-2.135,0.04-3.822,0.122c-1.688,0.082-2.953,0.123-3.792,0.123
		c-0.695,0-1.155-0.257-1.381-0.769c-0.369-0.92-0.902-2.312-1.597-4.175c-0.676-1.678-1.638-4.226-2.887-7.645
		c-0.286-0.879-0.553-1.32-0.798-1.32c-0.184,0-0.276,0.338-0.276,1.014c0,1.392,0.139,3.479,0.415,6.263
		c0.276,2.784,0.414,4.831,0.414,6.14c0,0.472-0.205,0.706-0.614,0.706c-0.143,0-0.398-0.031-0.768-0.092
		c-1.761-0.245-4.421-0.367-7.982-0.367c-0.777,0-1.948,0.04-3.516,0.122c-1.565,0.082-2.736,0.123-3.515,0.123
		c-0.675,0-1.013-0.297-1.013-0.891c0-2.292,0.122-5.735,0.368-10.331c0.246-4.595,0.368-8.038,0.368-10.331
		c0-5.854-0.286-12.649-0.859-20.386l-0.031-0.43c-0.041-0.409,0.154-0.645,0.583-0.706c-0.04,0,0.35,0,1.167,0
		c2.23,0,5.599-0.031,10.101-0.093c4.503-0.061,7.88-0.092,10.132-0.092c4.789,0,8.739,1.013,11.85,3.04
		c3.623,2.395,5.435,5.864,5.435,10.407c0,2.948-0.435,5.322-1.305,7.123c-0.87,1.801-2.451,3.521-4.742,5.157
		c-0.492,0.35-0.738,0.687-0.738,1.014c0,0.246,1.27,2.947,3.808,8.105C276.859,159.266,278.129,161.957,278.129,162.182z
		 M260.752,134.919c0-2.312-1.698-3.469-5.096-3.469c-0.84,0-1.26,1.28-1.26,3.837c0,0.308,0.021,0.768,0.062,1.382
		c0.042,0.614,0.062,1.074,0.062,1.382c0,0.307,0.419,0.46,1.258,0.46C259.095,138.511,260.752,137.313,260.752,134.919z"/>
	<path fill="#79A621" d="M293.896,133.046c0,0.143-0.021,0.41-0.062,0.798c-0.716,7.696-1.074,12.557-1.074,14.583
		c0,1.371,0.035,3.434,0.107,6.186c0.072,2.753,0.107,4.826,0.107,6.218c0,0.675-0.021,1.064-0.062,1.167
		c-0.102,0.348-0.42,0.521-0.951,0.521c-0.716,0-1.786-0.041-3.207-0.123c-1.425-0.082-2.494-0.122-3.211-0.122
		c-0.715,0-1.784,0.04-3.206,0.122c-1.424,0.082-2.493,0.123-3.21,0.123c-0.531,0-0.849-0.174-0.952-0.521
		c-0.039-0.103-0.061-0.492-0.061-1.167c0-1.392,0.03-3.465,0.092-6.218c0.062-2.752,0.093-4.814,0.093-6.186
		c0-3.111-0.349-7.972-1.044-14.583c-0.062-0.389-0.093-0.665-0.093-0.829c0-0.532,0.318-0.798,0.952-0.798
		c0.819,0,2.053,0.133,3.7,0.399c1.646,0.266,2.892,0.399,3.729,0.399c0.841,0,2.083-0.133,3.732-0.399
		c1.646-0.266,2.88-0.399,3.698-0.399C293.59,132.217,293.896,132.494,293.896,133.046z M293.59,125.249
		c0,4.298-2.619,6.447-7.859,6.447c-2.231,0-4.054-0.512-5.465-1.535c-1.598-1.146-2.396-2.783-2.396-4.912
		c0-2.026,0.829-3.664,2.486-4.913c1.516-1.146,3.308-1.719,5.374-1.719c2.067,0,3.858,0.573,5.372,1.719
		C292.761,121.585,293.59,123.222,293.59,125.249z"/>
	<path fill="#79A621" d="M326.028,147.046c0,4.708-1.515,8.592-4.543,11.651c-3.031,3.06-6.899,4.589-11.605,4.589
		c-4.586,0-8.423-1.493-11.514-4.482c-3.091-2.987-4.636-6.764-4.636-11.328c0-4.789,1.484-8.75,4.452-11.881
		c3.05-3.172,6.947-4.759,11.697-4.759c4.706,0,8.574,1.525,11.605,4.574C324.514,138.46,326.028,142.338,326.028,147.046z
		 M312.704,147.046c0-0.798-0.271-1.479-0.813-2.042c-0.543-0.562-1.213-0.844-2.011-0.844c-0.799,0-1.469,0.276-2.011,0.828
		c-0.543,0.553-0.813,1.239-0.813,2.058c0,0.798,0.271,1.479,0.813,2.042c0.542,0.562,1.212,0.844,2.011,0.844
		c0.817,0,1.493-0.276,2.026-0.829C312.437,148.551,312.704,147.865,312.704,147.046z"/>
</g>
<g>
	<path d="M202.286,130.56c0,0.132-0.019,0.377-0.057,0.737c-0.661,7.103-0.992,11.59-0.992,13.46c0,1.266,0.034,3.17,0.1,5.711
		c0.066,2.541,0.099,4.453,0.099,5.738c0,0.624-0.02,0.983-0.057,1.076c-0.095,0.322-0.387,0.482-0.878,0.482
		c-0.661,0-1.648-0.037-2.961-0.113s-2.3-0.113-2.961-0.113s-1.648,0.037-2.961,0.113c-1.312,0.076-2.3,0.113-2.961,0.113
		c-0.491,0-0.784-0.16-0.878-0.482c-0.038-0.093-0.057-0.452-0.057-1.076c0-1.285,0.028-3.197,0.085-5.738
		c0.057-2.541,0.085-4.445,0.085-5.711c0-2.871-0.321-7.358-0.964-13.46c-0.057-0.36-0.084-0.615-0.084-0.765
		c0-0.492,0.292-0.737,0.878-0.737c0.756,0,1.894,0.123,3.415,0.368c1.521,0.246,2.668,0.369,3.443,0.369
		c0.775,0,1.922-0.124,3.444-0.369c1.52-0.245,2.658-0.368,3.415-0.368C202.002,129.795,202.286,130.05,202.286,130.56z
		 M202.002,123.362c0,3.968-2.417,5.952-7.254,5.952c-2.059,0-3.741-0.473-5.044-1.417c-1.474-1.059-2.211-2.569-2.211-4.535
		c0-1.87,0.765-3.382,2.295-4.534c1.398-1.059,3.051-1.588,4.959-1.588c1.909,0,3.561,0.529,4.959,1.588
		C201.237,119.98,202.002,121.492,202.002,123.362z"/>
	<path d="M235.918,156.717c0,0.775-0.349,1.162-1.048,1.162c-0.642,0-1.596-0.028-2.862-0.084c-1.266-0.058-2.21-0.086-2.834-0.086
		c-0.661,0-1.647,0.01-2.961,0.028s-2.301,0.028-2.961,0.028c-0.738,0-1.105-0.482-1.105-1.445c0-0.869,0.019-2.158,0.056-3.868
		c0.039-1.71,0.058-2.999,0.058-3.868c0-0.643-0.019-1.605-0.058-2.891c-0.037-1.285-0.056-2.248-0.056-2.891
		c0-1.096-0.539-1.644-1.616-1.644c-1.096,0-1.644,0.529-1.644,1.587v13.688c0,0.964-0.406,1.445-1.218,1.445
		c-0.605,0-1.521-0.028-2.749-0.084c-1.229-0.058-2.145-0.086-2.749-0.086c-0.643,0-1.61,0.01-2.905,0.028
		c-1.294,0.019-2.262,0.028-2.905,0.028c-0.811,0-1.217-0.406-1.217-1.219v-13.234c0-4.1-0.445-7.774-1.332-11.023
		c-0.058-0.208-0.086-0.388-0.086-0.539c0-0.359,0.161-0.604,0.482-0.736c1.928-0.246,4.213-0.558,6.859-0.935
		c3.911-0.756,6.159-1.134,6.744-1.134c0.378,0,0.614,0.624,0.709,1.871c0.095,1.248,0.245,1.871,0.454,1.871
		c-0.152,0,0.826-0.548,2.933-1.644c2.105-1.095,3.85-1.644,5.228-1.644c2.287,0,4.261,0.539,5.924,1.616
		c1.908,1.266,2.861,2.985,2.861,5.158V156.717z"/>
</g>
<g>
	<path fill="#777777" d="M355.833,122.009c-0.039,4.297-2.882,10.51-8.531,18.638c-4.721,6.735-9.826,12.832-15.319,18.29
		c-0.194,0.193-0.484,0.463-0.871,0.812l24.379-3.87l-0.005,1.79l-27.744,4.444l-0.579-1.277c0.889-0.695,2.07-1.759,3.54-3.192
		c5.262-5.067,10.273-11.008,15.032-17.818c5.456-7.854,8.183-13.677,8.183-17.47c0-3.133-1.935-4.623-5.803-4.469
		c-8.668,0.311-15.13,4.179-19.386,11.608h-1.973c4.837-8.628,11.956-13.079,21.358-13.349c2.437-0.078,4.344,0.426,5.716,1.509
		C355.203,118.739,355.87,120.19,355.833,122.009z"/>
	<path fill="#777777" d="M396.75,143.366c-1.315,5.106-4.062,9.538-8.241,13.291c-4.295,3.83-8.765,5.745-13.407,5.745
		c-2.517,0-4.876-0.638-7.082-1.915c-6.964-4.023-10.446-11.104-10.446-21.242c0-5.88,2.631-11.453,7.894-16.715
		c5.223-5.145,10.66-7.719,16.309-7.719c3.211,0,5.978,0.987,8.3,2.96c5.224,4.41,7.836,10.118,7.836,17.122
		C397.911,137.562,397.523,140.387,396.75,143.366z M395.006,143.018c0.737-2.863,1.105-5.552,1.105-8.067
		c0-6.461-2.403-11.724-7.209-15.787c-2.131-1.778-4.61-2.669-7.439-2.669c-5.194,0-10.193,2.428-14.999,7.284
		c-4.805,4.857-7.207,10.012-7.207,15.468c0,9.402,3.216,15.981,9.65,19.734c1.975,1.16,4.106,1.739,6.394,1.739
		c4.225,0,8.293-1.818,12.207-5.455C391.306,151.781,393.805,147.699,395.006,143.018z"/>
	<path fill="#777777" d="M402.902,162.519h-1.685v-46.837h1.685V162.519z"/>
	<path fill="#777777" d="M414.393,162.519h-1.685v-46.837h1.685V162.519z"/>
</g>
<path fill="#79A621" d="M193.569,117.398c0,0,5.65-34.069,19.757-34.069c11.818,0,20.604,23.378,20.604,23.378
	s6.191-5.257,17.063-5.257c19.972,0,41.269,20.542,41.269,20.542s-11.895-24.879-41.562-24.879c-8.664,0-16.702,5.564-16.702,5.564
	s-7.972-24.83-19.866-24.83C196.506,77.847,193.569,117.398,193.569,117.398z"/>
</svg>
