<?xml version="1.0" encoding="utf-8"?>
<!-- Generator: Adobe Illustrator 14.0.0, SVG Export Plug-In . SVG Version: 6.00 Build 43363)  -->
<!DOCTYPE svg PUBLIC "-//W3C//DTD SVG 1.1//EN" "http://www.w3.org/Graphics/SVG/1.1/DTD/svg11.dtd">
<svg version="1.1"
	 id="svg2" inkscape:export-filename="C:\Documents and Settings\crax\Desktop\Pyrobot\pyrio.png" inkscape:output_extension="org.inkscape.output.svg.inkscape" inkscape:export-ydpi="56" xmlns:svg="http://www.w3.org/2000/svg" inkscape:version="0.46" sodipodi:version="0.32" xmlns:sodipodi="http://sodipodi.sourceforge.net/DTD/sodipodi-0.dtd" xmlns:dc="http://purl.org/dc/elements/1.1/" xmlns:cc="http://creativecommons.org/ns#" sodipodi:docbase="C:\Documents and Settings\crax\Desktop\PyConBrasil" xmlns:rdf="http://www.w3.org/1999/02/22-rdf-syntax-ns#" sodipodi:docname="pythonrio.svg" xmlns:inkscape="http://www.inkscape.org/namespaces/inkscape" inkscape:export-xdpi="56"
	 xmlns="http://www.w3.org/2000/svg" xmlns:xlink="http://www.w3.org/1999/xlink" x="0px" y="0px" width="515.531px"
	 height="145.41px" viewBox="0 0 515.531 145.41" enable-background="new 0 0 515.531 145.41" xml:space="preserve">
<sodipodi:namedview  height="145.41px" width="515.53px" id="base" showgrid="true" inkscape:showpageshadow="true" borderlayer="false" showborder="true" inkscape:current-layer="g2303" inkscape:window-y="0" inkscape:window-x="0" inkscape:cy="71.887497" inkscape:cx="285.09969" inkscape:zoom="1.4340089" pagecolor="#ffffff" bordercolor="#666666" borderopacity="1.0" inkscape:pageopacity="0.0" inkscape:window-height="742" inkscape:window-width="1024" inkscape:pageshadow="2">
	
		<inkscape:grid  color="#0000ff" type="xygrid" originy="0px" id="GridFromPre046Settings" originx="0px" opacity="0.2" empspacing="5" empopacity="0.4" empcolor="#0000ff" spacingy="1px" spacingx="1px">
		</inkscape:grid>
</sodipodi:namedview>
<defs>
	
	
		<inkscape:perspective  id="perspective13705" inkscape:persp3d-origin="257.76501 : 48.470001 : 1" inkscape:vp_z="515.53003 : 72.705002 : 1" inkscape:vp_y="0 : 1000 : 0" inkscape:vp_x="0 : 72.705002 : 1" sodipodi:type="inkscape:persp3d">
		</inkscape:perspective>
</defs>
<path id="path46" inkscape:export-filename="C:\Documents and Settings\crax\Desktop\Pyrobot\pyrio.png" inkscape:export-ydpi="56" inkscape:export-xdpi="56" fill="#646464" d="
	M40.113,81.939c0-14.562-4.152-22.038-12.457-22.447c-3.304-0.156-6.531,0.371-9.669,1.589c-2.505,0.897-4.191,1.784-5.079,2.681
	V98.52c5.312,3.334,10.03,4.884,14.143,4.64C35.756,102.584,40.113,95.518,40.113,81.939z M50.357,82.545
	c0,7.397-1.735,13.538-5.224,18.422c-3.889,5.526-9.279,8.372-16.17,8.528c-5.195,0.165-10.546-1.462-16.054-4.874v31.591L4,133.034
	V62.914c1.462-1.793,3.343-3.333,5.624-4.64c5.302-3.09,11.745-4.678,19.329-4.756l0.126,0.126
	c6.93-0.087,12.272,2.758,16.024,8.529C48.603,67.466,50.357,74.25,50.357,82.545z"/>
<path id="path48" inkscape:export-filename="C:\Documents and Settings\crax\Desktop\Pyrobot\pyrio.png" inkscape:export-ydpi="56" inkscape:export-xdpi="56" fill="#646464" d="
	M104.804,103.276c0,9.923-0.994,16.794-2.982,20.615c-1.998,3.821-5.799,6.872-11.414,9.143c-4.552,1.794-9.475,2.769-14.757,2.935
	l-1.472-5.615c5.371-0.73,9.152-1.462,11.346-2.193c4.318-1.461,7.281-3.703,8.909-6.705c1.306-2.447,1.949-7.115,1.949-14.026
	v-2.319c-6.092,2.768-12.476,4.143-19.153,4.143c-4.386,0-8.256-1.375-11.589-4.143c-3.743-3.012-5.614-6.833-5.614-11.463V56.568
	l8.909-3.051v37.321c0,3.987,1.287,7.058,3.86,9.212c2.573,2.153,5.907,3.187,9.991,3.108c4.084-0.087,8.46-1.667,13.11-4.757
	v-43.54h8.909V103.276z"/>
<path id="path50" inkscape:export-filename="C:\Documents and Settings\crax\Desktop\Pyrobot\pyrio.png" inkscape:export-ydpi="56" inkscape:export-xdpi="56" fill="#646464" d="
	M139.582,109.008c-1.062,0.088-2.037,0.127-2.934,0.127c-5.039,0-8.967-1.199-11.774-3.607c-2.797-2.406-4.201-5.73-4.201-9.971
	V60.467h-6.102v-5.605h6.102V39.979l8.899-3.167v18.051h10.01v5.605h-10.01v34.845c0,3.344,0.896,5.713,2.69,7.096
	c1.54,1.141,3.987,1.794,7.32,1.96V109.008z"/>
<path id="path52" inkscape:export-filename="C:\Documents and Settings\crax\Desktop\Pyrobot\pyrio.png" inkscape:export-ydpi="56" inkscape:export-xdpi="56" fill="#646464" d="
	M193.522,108.276h-8.909V66.272c0-4.274-0.819-7.953-2.447-11.025c-1.881-3.477-4.493-5.215-7.846-5.215
	c-4.084,0-9.192,2.631-15.323,7.894v50.351h-8.909V7.873l8.909-3.429v45.731c5.692-5.06,11.911-7.596,18.666-7.596
	c4.717,0,8.538,1.94,11.462,5.81c2.934,3.87,4.396,8.691,4.396,14.454V108.276L193.522,108.276z"/>
<path id="path56" inkscape:export-filename="C:\Documents and Settings\crax\Desktop\Pyrobot\pyrio.png" inkscape:export-ydpi="56" inkscape:export-xdpi="56" fill="#646464" d="
	M313.706,108.276h-8.909V71.939c0-3.986-1.199-7.096-3.597-9.338c-2.397-2.232-5.595-3.314-9.581-3.226
	c-4.23,0.078-8.256,1.462-12.076,4.143v44.758h-8.91v-45.86c5.127-3.733,9.846-6.17,14.153-7.31
	c4.064-1.062,7.651-1.589,10.741-1.589c2.115,0,4.104,0.205,5.975,0.614c3.5,0.809,6.346,2.31,8.539,4.513
	c2.446,2.437,3.665,5.361,3.665,8.782V108.276z"/>
<linearGradient id="path1948_1_" gradientUnits="userSpaceOnUse" x1="393.6255" y1="-354.6938" x2="502.6428" y2="-448.4886" gradientTransform="matrix(0.3175 0 0 -0.3206 74.0745 -64.7835)">
	<stop  offset="0" style="stop-color:#5A9FD4"/>
	<stop  offset="1" style="stop-color:#306998"/>
</linearGradient>
<path id="path1948" inkscape:export-filename="C:\Documents and Settings\crax\Desktop\Pyrobot\pyrio.png" inkscape:export-ydpi="56" inkscape:export-xdpi="56" fill="url(#path1948_1_)" d="
	M231.606,47.127c-2.587,0.012-5.058,0.233-7.232,0.618c-6.405,1.131-7.567,3.5-7.567,7.867v5.768h15.135v1.923h-15.135h-5.68
	c-4.398,0-8.25,2.644-9.455,7.673c-1.39,5.765-1.452,9.362,0,15.381c1.076,4.481,3.645,7.674,8.043,7.674h5.204v-6.915
	c0-4.995,4.322-9.401,9.455-9.401h15.117c4.208,0,7.567-3.465,7.567-7.691V55.612c0-4.102-3.46-7.183-7.567-7.867
	C236.892,47.312,234.194,47.115,231.606,47.127z M223.421,51.767c1.563,0,2.84,1.297,2.84,2.893c0,1.59-1.277,2.875-2.84,2.875
	c-1.569,0-2.84-1.286-2.84-2.875C220.582,53.064,221.853,51.767,223.421,51.767z"/>
<linearGradient id="path1950_1_" gradientUnits="userSpaceOnUse" x1="544.7915" y1="-505.2578" x2="505.8611" y2="-450.1781" gradientTransform="matrix(0.3175 0 0 -0.3206 74.0745 -64.7835)">
	<stop  offset="0" style="stop-color:#FFD43B"/>
	<stop  offset="1" style="stop-color:#FFE873"/>
</linearGradient>
<path id="path1950" inkscape:export-filename="C:\Documents and Settings\crax\Desktop\Pyrobot\pyrio.png" inkscape:export-ydpi="56" inkscape:export-xdpi="56" fill="url(#path1950_1_)" d="
	M248.946,63.303v6.721c0,5.211-4.417,9.596-9.455,9.596h-15.117c-4.141,0-7.567,3.545-7.567,7.691v14.412
	c0,4.102,3.566,6.514,7.567,7.69c4.791,1.409,9.385,1.663,15.117,0c3.811-1.103,7.567-3.323,7.567-7.69v-5.769h-15.117v-1.923
	h15.117h7.568c4.398,0,6.037-3.068,7.567-7.674c1.58-4.74,1.513-9.3,0-15.381c-1.087-4.379-3.163-7.673-7.567-7.673H248.946z
	 M240.444,99.799c1.569,0,2.84,1.286,2.84,2.876c0,1.595-1.271,2.893-2.84,2.893c-1.563,0-2.84-1.298-2.84-2.893
	C237.604,101.085,238.88,99.799,240.444,99.799z"/>
<radialGradient id="path1894_1_" cx="-1740.4028" cy="-33.771" r="29.0339" gradientTransform="matrix(0 -0.1354 -0.5953 -2.140223e-07 212.0078 -120.5172)" gradientUnits="userSpaceOnUse">
	<stop  offset="0" style="stop-color:#B8B8B8;stop-opacity:0.498"/>
	<stop  offset="1" style="stop-color:#7F7F7F;stop-opacity:0"/>
</radialGradient>
<path id="path1894" inkscape:export-filename="C:\Documents and Settings\crax\Desktop\Pyrobot\pyrio.png" inkscape:export-ydpi="56" inkscape:export-xdpi="56" opacity="0.4438" fill="url(#path1894_1_)" enable-background="new    " d="
	M252.396,115.21c0,2.173-9.081,3.933-20.282,3.933s-20.282-1.76-20.282-3.933c0-2.172,9.081-3.933,20.282-3.933
	S252.396,113.038,252.396,115.21z"/>
<g enable-background="new    ">
	<path fill="#FFD43B" d="M350.304,9.062l3.586,0.281l-0.703,2.32l2.602,1.266l0.984-0.984l0.703,0.984l4.148,0.984l1.336-1.266
		l0.984,1.617l2.32,0.984h1.617l0.984,0.562l0.984-0.844l1.617,0.844l7.172,1.266l0.703,0.492c1.688,0,3.75-0.164,6.188-0.492
		c1.219,0.703,2.953,1.29,5.203,1.758l0.422,1.617l-0.703,1.969l1.336,2.602l-6.539,8.227L383,34.094l-8.789,7.242l-3.023,1.969
		l-9.562,5.625l-1.266,1.336l-1.266-0.773l-3.305,2.039l-1.336,2.602l0.422,4.57l2.602,10.406l8.227,12.094l3.445,4.008
		l-0.844,1.898l2.883,1.688l1.828,1.336c0.281,0.188,0.633,0.306,1.055,0.352l1.688,0.211L378.359,94h1.617l2.25,0.562v-0.844
		l1.758,0.562h1.266l2.32,1.336l2.883,0.703l4.359,3.586h0.844l0.703,2.602l0.984,0.562v1.336l-4.008,3.023l-3.164,0.562
		l-2.039-0.562v-0.352l-3.867-0.984l-4.922-2.32l-3.305-2.883l-2.18-1.125c-0.75-0.375-1.641-1.101-2.672-2.18h-2.039l-1.898-2.25
		l-1.547-0.352v-0.703l-2.742-0.984l-0.844,0.422c-1.734-1.5-2.742-2.507-3.023-3.023l-2.883-0.281l-0.422-2.32l-1.617-1.266
		l-3.305-0.281l-1.617-2.039l-1.969-0.703v-0.914h3.023c-2.109-0.422-3.891-0.984-5.344-1.688l-0.844-1.898l-1.055-0.422
		l-0.281-2.18l-2.32-2.25l2.602-4.641l-0.984-0.984l-2.883-0.281l-0.703-2.602l-2.32-1.336l-0.281,0.633l-2.039,0.703l-0.281,2.32
		l-1.547,1.266v1.898l-1.055,2.25l1.617,2.039L331.531,76c-0.328,2.531-0.844,4.595-1.547,6.188l0.281,1.336l-0.844,0.984
		l0.281,2.039H329l0.422,3.164l-1.055,5.273v5.203l-0.703,1.055l-0.562,4.148l-0.703,3.305l-0.281,2.602l-2.039,3.586l-0.211,1.406
		c-0.047,0.422-0.516,1.241-1.406,2.461l0.352,0.492l-1.898,4.43l-1.477,0.984l-1.477,3.164c-0.234,0.516-0.586,0.96-1.055,1.336
		l-1.898,1.688v1.055l-2.039,0.281l0.281,1.688l-0.844,2.602l-5.344,3.938l-3.586-0.633l-0.984-0.984l0.422-0.703h-0.703
		l0.703-1.617l-2.039-1.547l0.281-3.023l-0.844-0.562l0.562-1.617c0.188-0.469,0.869-1.29,2.039-2.461l-0.422-0.844
		c1.078-1.923,2.602-3.562,4.57-4.922l3.938,0.914h1.688l-0.281,0.984l1.336-1.336v-1.547l1.547-0.703v-1.898l0.562-0.703
		l0.422,0.281v-3.164h1.055l0.562-1.758l-0.984-1.547l1.266-2.039l0.703-5.203h0.562v-0.984l1.055-0.562l-1.055-2.742l1.477-1.898
		l0.844-0.281l-0.844-4.008l0.562,0.422l0.703-2.742l-0.422-0.844l0.844-3.375c0.141-0.468,0.633-1.219,1.477-2.25l-0.562-2.602
		h0.844l-0.562-2.32h0.281l3.023-14.344L329,63.906l-0.352-2.039l1.055-3.164l-0.281-1.266l0.281-2.039l1.266-0.703l-0.281-2.18
		l0.844-0.984l-0.281-2.602l0.773-2.039l-1.336-1.547l1.617-0.984v-1.055l-2.32-1.266l-0.562-1.617V40l-1.055-0.562l1.336-1.758
		l-2.32,0.422l-1.617,1.828c-0.656,0.703-1.266,1.242-1.828,1.617l-2.461,1.477h-2.602l-0.703-1.688l-1.617-0.633l2.602-4.852
		l3.023-2.039c0.188-0.703,0.492-1.336,0.914-1.898l0.984-0.422c0.375-0.562,1.148-1.43,2.32-2.602l-1.617-2.25l0.914-1.969
		c0.281-0.608,0.516-2.015,0.703-4.219l-0.562-1.055l0.844-0.984l0.984-0.281l0.562-0.773c0.094-0.187,1.359-0.984,3.797-2.391
		l0.281-0.703c2.109-1.125,4.5-2.085,7.172-2.883l1.617,0.844l1.688-0.562l0.844,0.562l1.758-1.898h1.898l0.422-0.984L350.304,9.062
		z M363.664,22.984l-2.32,1.055v1.547l-2.531,1.055l-9.844-0.281l-3.023,0.562l-1.266,1.688l0.281,2.883l-3.164,7.242l-2.602,0.703
		v1.266l1.617,1.336l-0.773,2.32l0.773,0.281l-2.32,2.602v1.688l-1.617,3.164l-0.703,4.359l2.602-0.773l0.703-0.984l0.984-0.281
		l1.055-2.883l1.477-0.492c0.422-0.141,1.078-0.656,1.969-1.547l2.32-0.281l0.422-1.547l3.164-1.477l1.688,1.758l9.844-6.188
		L365,40.422l1.969-1.688l1.266-0.422c0.422-0.141,0.961-0.538,1.617-1.195l1.336,0.281l0.703-1.828l3.164-1.758l1.758-1.898
		L378.078,31c0.375-0.327,0.891-1.03,1.547-2.109c0-0.516-0.609-1.477-1.828-2.883l-12.516-0.984l-1.617-0.984V22.984z"/>
	<path fill="#FFD43B" d="M435.664,52.656h-0.281l-0.562,3.656l0.562,0.422l-0.984,2.602l-0.281-0.492v1.055
		c0,2.063-0.867,4.032-2.602,5.906h0.562v1.266h-0.281l0.281,8.227l-0.562,0.984l0.281,1.336l-1.055,5.133h0.352
		c0,0.938-0.234,2.274-0.703,4.008l-0.633,1.898l-0.844,9.352c-0.188,0.938-0.281,1.477-0.281,1.617
		c0,0.844,0.375,1.266,1.125,1.266c0.891,0,1.875-0.352,2.953-1.055l4.57-3.094c1.266-1.547,2.18-2.32,2.742-2.32h0.422
		c0.797-0.375,1.547-1.008,2.25-1.898c0.703-0.89,1.242-1.406,1.617-1.547c0.703-1.266,1.336-1.898,1.898-1.898
		c0.047,0,0.234,0.047,0.562,0.141c0.328,0.095,1.195,0.258,2.602,0.492l0.562,1.969c0,1.079-0.375,2.31-1.125,3.691
		c-0.75,1.383-1.348,2.531-1.793,3.445s-1.441,1.652-2.988,2.215v0.492l-0.984-0.281v0.984h-0.633
		c-0.141,1.266-0.797,1.993-1.969,2.18v0.422h-1.898v0.281h-0.703l-1.898,1.266h-0.562l-0.984,1.336l-2.883,0.422
		c-0.281,0.562-0.727,0.844-1.336,0.844l-3.586,2.602v0.562l-1.758-0.281l0.492,0.703l-2.32,0.562v0.352h-0.984v0.984l-1.055,0.703
		h-0.281v0.281c-0.609,1.733-1.477,2.602-2.602,2.602l-0.984-0.281c-0.562-1.734-1.523-3.47-2.883-5.203
		c0.375-1.501,0.562-2.602,0.562-3.305l-0.562-2.883v-1.547c0-1.452,0.141-2.953,0.422-4.5l0.422-1.828v-0.352h-0.141
		c-0.094,0-0.141-0.046-0.141-0.141c0-0.094,0.223-0.844,0.668-2.25s0.668-3.234,0.668-5.484c0-0.562-0.211-0.89-0.633-0.984
		l0.914-1.898v-8.508l1.125-2.461c0.375-0.749,0.75-2.226,1.125-4.43c0.609-0.375,0.961-0.727,1.055-1.055l-0.562-0.844l0.562-1.406
		c-0.75-1.452-1.617-2.18-2.602-2.18h-3.305c-0.375,0.376-0.562,0.798-0.562,1.266h-0.492c-0.234,1.266-0.844,2.039-1.828,2.32
		c-0.234,1.22-0.914,1.945-2.039,2.18l-1.266,2.039h-0.281c-0.328,1.031-0.914,1.547-1.758,1.547c-0.938,0-1.699-0.679-2.285-2.039
		c-0.586-1.359-0.879-2.109-0.879-2.25c0-0.187,0.094-0.397,0.281-0.633c0.469-2.062,1.922-3.772,4.359-5.133v-0.562
		c1.031-1.03,2.086-1.804,3.164-2.32h-0.633c2.016-0.422,3.199-1.465,3.551-3.129c0.352-1.663,1.582-2.496,3.691-2.496l0.844,0.281
		l1.758-0.844h-1.055l1.617-1.055l0.422,0.281l1.266-1.547l0.352,0.281c0.562-1.359,1.852-2.039,3.867-2.039
		c0.469,0,0.703-0.187,0.703-0.562v-0.703h0.562l-0.281-0.281l2.32-1.617c0.75-1.312,1.945-1.969,3.586-1.969
		c1.031,0,1.934,0.281,2.707,0.844s1.16,1.125,1.16,1.688C436.648,50.664,436.32,51.531,435.664,52.656z M445.859,11.523h-0.422
		l-2.602,5.555l-0.281-0.281c0,0.517-0.234,0.961-0.703,1.336v0.281c-1.031,1.642-2.32,2.837-3.867,3.586l-0.562-0.281v0.562
		c-1.828-0.234-3.246-0.621-4.254-1.16c-1.008-0.538-1.758-1.43-2.25-2.672c-0.492-1.241-0.973-2.542-1.441-3.902
		c0.703-0.984,1.289-1.57,1.758-1.758l0.562-1.898l2.32-1.266l1.266-2.742l2.32-1.266v0.422l1.266,0.562
		c0.328-0.187,0.551-0.34,0.668-0.457c0.117-0.116,0.281-0.257,0.492-0.422c0.211-0.164,0.762-0.352,1.652-0.562
		s1.57-0.457,2.039-0.738L444.593,4h0.562l1.055,1.617v2.25l0.281,2.039L445.859,11.523z"/>
	<path fill="#FFD43B" d="M494.726,43.867h3.586l2.32,1.055c0.562,2.485,1.477,3.727,2.742,3.727c0.469,0,0.703-0.468,0.703-1.406
		c1.453-1.078,2.789-1.617,4.008-1.617c0.75,0,1.383,0.258,1.898,0.773c0.516,0.517,0.797,1.031,0.844,1.547l0.562,8.016
		l-0.422,1.617c-0.328,1.079-0.562,2.227-0.703,3.445c-0.141,1.22-0.363,2.18-0.668,2.883s-0.527,1.149-0.668,1.336l-5.695,6.047
		l0.703,4.148l-1.477,2.461l-0.703,2.25l-4.43,5.062l-2.18,5.484c-1.312,1.453-3.188,2.602-5.625,3.445l-0.984,4.008l-4.078,2.602
		l-3.586,4.359l-6.469,4.852l-1.898,0.492l-7.312,5.906l-2.039-1.898c-1.594-1.22-2.707-2.262-3.34-3.129
		c-0.633-0.868-0.949-1.652-0.949-2.355c0-0.375,0.141-0.703,0.422-0.984l0.703-6.047l-3.023-4.922
		c-0.281-0.422-0.422-0.797-0.422-1.125c0-0.562,0.281-1.195,0.844-1.898v-0.281l1.195-1.125l-1.336-3.516l0.422-7.312v-1.898
		l1.055-0.562c-0.516-0.938-0.773-2.039-0.773-3.305c0-0.703,0.305-1.43,0.914-2.18h1.266l-1.125-0.984l0.844-1.547l1.477-3.797
		l2.109-2.602l0.633-1.969l2.109-2.883c0.188-0.656,0.375-1.241,0.562-1.758v0.141c0-0.749,0.176-1.359,0.527-1.828
		c0.352-0.468,0.902-1.336,1.652-2.602l3.445-1.758l0.281-0.984c2.344-1.874,4.664-3.023,6.961-3.445l4.711-0.914l3.164-1.828
		l2.32,0.141L494.726,43.867z M490.367,56.453l-0.281,0.562c-0.844,0-1.453,0.012-1.828,0.035c-0.375,0.024-0.914,0.341-1.617,0.949
		l-2.039-0.844l-7.734,4.289c-1.922,1.079-3.562,2.848-4.922,5.309s-2.039,4.489-2.039,6.082c0,0.984,0.211,1.853,0.633,2.602h0.281
		c0,1.079,0.281,3.048,0.844,5.906l-1.758,2.742l1.336,1.969l-0.703,2.461c0,0.328,0.188,0.903,0.562,1.723
		c0.375,0.82,0.551,1.431,0.527,1.828c-0.023,0.398,0.363,1.23,1.16,2.496l-0.141,1.477c0,2.578,0.633,3.867,1.898,3.867
		c1.031,0,2.414-0.727,4.148-2.18c0.422-1.219,1.242-1.874,2.461-1.969l0.703-2.18c0.797-0.094,1.195-0.468,1.195-1.125v-0.492
		c0.234-0.141,0.492-0.281,0.773-0.422s0.445-0.234,0.492-0.281c0.562-1.828,1.664-3.891,3.305-6.188l0.492,0.281l-0.211-0.562
		l2.18-2.461l2.742-9.07l0.422-0.844l0.914-0.281l0.07-1.617V69.25c0.047-0.281,0.398-1.148,1.055-2.602l-4.359-3.445l3.375-1.336
		L493.812,58l0.633-1.406l-0.914,0.422L490.367,56.453z"/>
</g>
</svg>
