<?xml version="1.0" encoding="utf-8"?>
<!-- Generator: Adobe Illustrator 15.0.0, SVG Export Plug-In . SVG Version: 6.00 Build 0)  -->
<!DOCTYPE svg PUBLIC "-//W3C//DTD SVG 1.1//EN" "http://www.w3.org/Graphics/SVG/1.1/DTD/svg11.dtd">
<svg version="1.1" id="Layer_1" xmlns="http://www.w3.org/2000/svg" xmlns:xlink="http://www.w3.org/1999/xlink" x="0px" y="0px"
	 width="1024px" height="768px" viewBox="0 0 1024 768" enable-background="new 0 0 1024 768" xml:space="preserve">
<g>
	<g>
		<path fill="#071833" d="M374.484,285.564c0.124,0,1.984-0.44,5.574-1.323c3.59-0.879,6.265-1.322,8.03-1.322
			c1.762,0,2.645,0.505,2.645,1.511l-46.102,276.232c-2.143,0-8.629,0.944-19.461,2.834c-10.834,1.89-16.314,2.898-16.438,3.022
			c-5.668-12.848-8.502-24.812-8.502-35.898c0-6.802,0.85-14.295,2.55-22.483c1.701-8.187,4.564-19.963,8.597-35.332
			c-9.952,1.511-20.973,4.032-33.065,7.558c-12.092,3.527-23.494,6.046-34.198,7.558c-3.023,6.046-6.551,12.564-10.581,19.555
			c-4.033,6.991-9.447,15.747-16.249,26.263c-6.802,10.52-13.509,19.65-20.122,27.396c-6.613,7.747-12.629,13.256-18.044,16.533
			c-1.134-2.772-3.717-6.108-7.747-10.015c-4.033-3.902-6.646-6.643-7.841-8.219c-1.196-1.573-1.795-3.873-1.795-6.896
			c0-6.926,1.606-13.887,4.818-20.878c3.212-6.99,8.154-15.838,14.832-26.546c6.675-10.705,10.959-17.949,12.848-21.729
			c0.756-1.134,1.134-2.58,1.134-4.346c0-1.762-0.411-3.524-1.228-5.29c-0.821-1.763-1.922-3.714-3.307-5.857
			c-1.388-2.14-2.961-4.597-4.724-7.368c7.053-1.258,13.509-2.646,19.367-4.157c5.857-1.512,9.73-2.58,11.62-3.212
			c1.512-2.645,4.125-6.831,7.841-12.564c3.714-5.73,8.786-12.877,15.209-21.444c31.615-40.558,53.249-68.114,64.901-82.662
			c11.649-14.548,21.067-25.507,28.247-32.875s15.493-14.516,24.94-21.445c1.133,0,4.124,0.472,8.975,1.417
			C372.057,284.525,374.484,285.186,374.484,285.564z M341.608,335.822l-70.475,102.973l46.857-7.368L341.608,335.822z"/>
		<path fill="#071833" d="M404.375,377.389c47.652-63.484,91.333-96.8,131.046-99.95c4.156,0,9.925,1.417,17.3,4.251
			c7.374,2.834,11.377,4.251,12.009,4.251c4.538-0.502,7.375-1.007,8.509-1.512c5.674,5.167,10.212,8.629,13.615,10.392
			c0,10.33-1.512,19.366-4.534,27.113c-3.023,7.747-6.929,14.643-11.715,20.689c-4.788,6.046-11.085,12.913-18.894,20.595
			c-7.812,7.685-14.425,14.548-19.839,20.594c-2.268-0.377-4.694-0.974-7.274-1.795c-2.583-0.817-5.417-2.078-8.502-3.779
			c-3.088-1.7-5.828-3.179-8.219-4.44c1.007-6.802,2.958-13.099,5.857-18.894c2.896-5.792,5.793-11.493,8.691-17.099
			c2.896-5.604,4.913-11.809,6.047-18.611c-7.057,1.261-15.464,4.789-25.224,10.581c-9.763,5.795-20.784,15.558-33.065,29.286
			c-12.281,13.73-24.217,31.175-35.804,52.336c-5.291,9.447-10.079,18.771-14.359,27.963c-4.284,9.196-7.812,18.487-10.581,27.869
			c-2.772,9.385-4.156,18.232-4.156,26.546c0,10.203,2.456,19.337,7.369,27.396c5.919,9.574,13.037,14.359,21.35,14.359
			c6.675,0,13.887-2.958,21.634-8.88c7.747-5.919,15.304-13.35,22.673-22.295c7.369-8.942,15.588-19.649,24.657-32.12
			c9.069-12.47,14.483-19.839,16.249-22.105c0.88-0.88,1.512-1.323,1.89-1.323s0.88,0.16,1.512,0.473
			c0.629,0.315,1.385,0.473,2.267,0.473c0,1.01-0.127,2.834-0.377,5.479c-0.254,2.646-0.378,4.662-0.378,6.047
			c0,2.645,0.251,4.473,0.755,5.479c0.502,1.512,0.756,3.277,0.756,5.291c0,7.558-2.586,18.014-7.752,31.364
			c-5.17,13.353-12.072,26.327-20.707,38.922c-8.638,12.597-17.746,21.666-27.326,27.207c-5.801,4.157-13.932,6.235-24.394,6.235
			c-8.322,0-17.117-1.45-26.381-4.346c-9.267-2.896-17.967-7.18-26.098-12.849c-8.13-5.668-14.592-12.28-19.381-19.838
			c-9.361-12.595-14.041-28.72-14.041-48.369c0-10.327,1.45-21.445,4.349-33.349c2.899-11.903,7.72-24.562,14.466-37.977
			C385.115,405.636,393.783,391.749,404.375,377.389z"/>
		<path fill="#071833" d="M538.106,332.622c38.29-8.142,71.671-14.31,100.139-18.507c28.465-4.198,64.996-8.928,109.586-14.191
			c1.89,0,3.746,0.723,5.573,2.17c1.825,1.447,4.503,2.926,8.03,4.434c1.512,2.643,3.085,5.347,4.724,8.113
			c1.636,2.769,2.99,5.412,4.062,7.927c1.068,2.515,1.605,4.656,1.605,6.415c-15.871,3.522-28.907,6.572-39.11,9.149
			c-10.203,2.58-21.161,5.568-32.876,8.963c-11.714,3.398-22.927,6.48-33.631,9.246c-1.512,2.643-4.346,8.461-8.503,17.454
			c-4.156,8.992-10.203,23.552-18.139,43.678c-3.527,8.806-8.629,21.196-15.304,37.171c-6.678,15.978-12.125,28.84-16.344,38.588
			c-4.222,9.748-9.258,21.51-15.115,35.282c-5.856,13.774-12.313,29.527-19.366,47.265c-3.15-0.378-7.274-2.58-12.376-6.613
			c-5.101-4.029-8.095-6.297-8.975-6.802c-2.521-1.007-4.851-1.983-6.99-2.929c-2.144-0.944-3.844-1.951-5.102-3.022
			c-1.261-1.069-1.89-2.108-1.89-3.118l79.733-193.475c-11.464,0.755-21.95,1.765-31.459,3.023
			c-9.512,1.261-22.644,3.655-39.394,7.18c-1.766-1.629-2.899-3.696-3.401-6.203c-0.505-2.503-0.756-6.2-0.756-11.085
			c0-2.131-0.349-4.104-1.039-5.922c-0.693-1.815-1.355-3.256-1.984-4.322c-0.631-1.063-1.198-2.096-1.7-3.1
			c-0.505-1.001-0.755-1.94-0.755-2.819C537.352,335.943,537.602,334.629,538.106,332.622z"/>
		<path fill="#071833" d="M724.592,391.56c0-10.454,5.007-21.318,15.021-32.592c10.015-11.271,25.886-21.822,47.613-31.647
			c21.729-9.825,48.842-17.128,81.339-21.917c8.691-1.134,14.106-1.701,16.249-1.701c10.203,0,18.39,2.616,24.562,7.841
			c6.17,5.228,11.021,13.887,14.549,25.979c-4.662,9.447-12.725,17.666-24.185,24.657c-11.464,6.991-25.194,10.991-41.189,11.998
			c-0.756-1.385-2.427-3.431-5.007-6.141c-2.583-2.707-3.873-5.007-3.873-6.896c0-3.274,2.958-7.18,8.88-11.714
			c-8.062,1.766-16.754,3.812-26.073,6.141c-9.323,2.333-18.266,5.072-26.83,8.219c-8.567,3.15-16.03,7.274-22.39,12.375
			c-6.361,5.102-9.919,11.053-10.675,17.854c1.512,3.655,7.682,6.679,18.516,9.069c10.832,2.395,23.647,5.29,38.45,8.691
			c14.799,3.401,25.348,7.245,31.647,11.525c17.256,11.842,25.885,25.256,25.885,40.244c0,12.093-6.802,28.342-20.405,48.747
			c-7.18,10.581-19.399,21.256-36.655,32.025c-17.258,10.77-36.371,19.683-57.343,26.735c-20.973,7.053-39.837,10.58-56.588,10.58
			c-12.849,0-23.305-2.078-31.364-6.234c-15.493-7.809-23.24-18.768-23.24-32.876c0-8.564,2.74-17.256,8.219-26.074
			c5.479-8.814,13.005-16.626,22.579-23.428c9.571-6.803,19.712-11.461,30.419-13.982c3.274,2.017,5.509,3.906,6.708,5.669
			c1.195,1.765,2.297,4.661,3.307,8.69c-7.685,3.528-14.298,8.347-19.839,14.454c-5.545,6.111-9.135,13.259-10.77,21.445
			c1.889,3.149,6.424,4.724,13.604,4.724c14.483,0,34.322-4.535,59.517-13.604c10.831-3.273,20.435-7.18,28.813-11.714
			c8.375-4.534,15.493-10.548,21.35-18.044c5.857-7.492,9.288-16.154,10.298-25.979c-0.632-3.778-6.395-7.18-17.288-10.202
			c-10.896-3.023-24.344-6.991-40.339-11.903c-15.998-4.913-28.879-11.337-38.639-19.272
			C729.661,415.366,724.716,404.785,724.592,391.56z"/>
	</g>
	<g>
		<path fill="#071833" d="M448.727,160.135c0-6.183,2.961-12.609,8.884-19.277c5.923-6.667,15.311-12.908,28.162-18.719
			s28.888-10.131,48.11-12.963c5.141-0.67,8.343-1.006,9.611-1.006c6.034,0,10.876,1.547,14.527,4.638
			c3.649,3.093,6.519,8.214,8.605,15.366c-2.758,5.588-7.526,10.449-14.305,14.584c-6.78,4.135-14.901,6.501-24.362,7.096
			c-0.447-0.819-1.436-2.029-2.961-3.632c-1.528-1.601-2.291-2.961-2.291-4.079c0-1.937,1.749-4.247,5.252-6.929
			c-4.769,1.044-9.909,2.254-15.422,3.632c-5.515,1.379-10.804,3-15.869,4.861c-5.067,1.863-9.481,4.303-13.243,7.32
			c-3.763,3.018-5.867,6.538-6.314,10.561c0.894,2.162,4.543,3.95,10.952,5.364c6.407,1.417,13.987,3.129,22.742,5.141
			c8.754,2.011,14.993,4.285,18.719,6.817c10.206,7.003,15.311,14.938,15.311,23.803c0,7.152-4.023,16.763-12.069,28.833
			c-4.247,6.258-11.474,12.572-21.681,18.942c-10.208,6.37-21.512,11.642-33.917,15.813s-23.562,6.258-33.47,6.258
			c-7.599,0-13.784-1.229-18.551-3.688c-9.164-4.619-13.746-11.1-13.746-19.445c0-5.065,1.621-10.206,4.861-15.422
			c3.241-5.214,7.692-9.834,13.354-13.857c5.661-4.023,11.659-6.778,17.993-8.27c1.936,1.192,3.258,2.31,3.967,3.353
			c0.708,1.044,1.359,2.757,1.956,5.141c-4.545,2.086-8.457,4.937-11.734,8.549c-3.279,3.614-5.402,7.842-6.37,12.684
			c1.117,1.863,3.799,2.794,8.046,2.794c8.567,0,20.301-2.682,35.203-8.046c6.406-1.936,12.087-4.247,17.042-6.929
			c4.954-2.682,9.164-6.239,12.628-10.672c3.464-4.432,5.494-9.555,6.09-15.366c-0.373-2.235-3.782-4.247-10.225-6.035
			c-6.445-1.788-14.399-4.135-23.859-7.04c-9.462-2.906-17.081-6.706-22.854-11.399C451.725,174.216,448.8,167.958,448.727,160.135z
			"/>
		<path fill="#071833" d="M648.095,172.987c4.47-3.129,11.101-7.002,19.892-11.623c8.79-4.619,16.875-6.929,24.251-6.929
			c4.246,0,7.524,1.156,9.834,3.464c3.649,3.651,5.477,8.084,5.477,13.299c0,2.757-0.43,5.644-1.285,8.661
			c-0.857,3.018-2.012,6.277-3.465,9.778c-1.453,3.503-2.85,6.892-4.19,10.17c-4.023,10.504-8.196,21.327-12.517,32.464
			c-4.321,11.139-8.103,20.06-11.343,26.765c-3.241,6.706-5.831,10.207-7.768,10.505c-2.385,0-4.229-0.838-5.531-2.514
			c-1.305-1.676-2.402-2.663-3.297-2.961c-0.597-0.372-2.05-0.8-4.358-1.286c-2.311-0.483-3.614-0.95-3.911-1.396
			c-0.299-1.638-0.447-2.867-0.447-3.688c0-4.842,1.602-10.969,4.806-18.383c3.202-7.413,7.711-16.54,13.522-27.38
			c5.811-10.84,10.225-19.389,13.242-25.647s4.526-11.137,4.526-14.64c-7.973,2.602-14.958,6.3-20.954,11.095
			c-5.998,4.795-11.27,10.758-15.813,17.893c-2.234,4.907-5.626,12.136-10.169,21.687c-4.545,9.552-9.574,19.512-15.087,29.88
			c-5.515,10.369-9.016,15.628-10.505,15.776c-1.64,0-2.925-0.185-3.855-0.557c-0.933-0.37-1.808-0.891-2.626-1.561
			c-0.821-0.668-1.788-1.486-2.905-2.453c-1.118-0.445-2.423-0.723-3.912-0.835c-1.491-0.112-2.458-0.408-2.905-0.892
			c-0.447-0.482-0.671-1.727-0.671-3.735c0.224-4.385,1.861-9.958,4.917-16.723c3.055-6.765,7.32-15.312,12.796-25.642
			c5.477-10.33,9.647-18.804,12.517-25.418c2.867-6.615,4.303-11.893,4.303-15.833c-5.738,1.491-10.748,3.464-15.031,5.923
			c-4.285,2.458-7.99,5.197-11.119,8.214c-3.129,3.018-6.333,6.576-9.61,10.672c-1.269,2.906-3.503,7.898-6.706,14.975
			c-3.204,7.079-7.432,15.74-12.684,25.983c-5.253,10.245-10.822,20.135-16.707,29.67c-1.491,0-2.738-0.43-3.744-1.285
			s-1.975-1.956-2.905-3.297c-0.933-1.341-1.62-2.16-2.067-2.458c-0.447-0.297-1.695-0.503-3.744-0.615
			c-2.048-0.112-3.668-0.428-4.861-0.95c-1.19-0.521-1.824-1.601-1.899-3.241c12.069-25.553,21.121-44.18,27.156-55.877
			c2.309-4.767,6.499-13.707,12.572-26.821c6.071-13.112,9.666-20.189,10.784-21.233c0.744-0.595,1.452-0.894,2.123-0.894
			s1.638,0.447,2.905,1.341c1.267,0.894,2.197,1.341,2.794,1.341c0.671-0.073,1.956-0.503,3.855-1.285
			c1.9-0.782,3.222-1.173,3.968-1.173c0.967,0,1.788,0.447,2.458,1.341c-0.373,1.491-1.044,3.52-2.011,6.09
			c-0.97,2.57-1.677,4.377-2.124,5.42c-0.446,1.044-0.82,2.57-1.117,4.582c3.649-2.383,7.356-4.805,11.119-7.264
			c3.762-2.458,7.505-4.543,11.231-6.258c3.725-1.713,7.188-2.57,10.394-2.57c4.693,0,8.493,1.975,11.398,5.923
			c1.117,1.341,1.676,3.502,1.676,6.481c0,1.565-0.074,2.813-0.223,3.744C648.392,171.74,648.243,172.467,648.095,172.987z"/>
		<path fill="#071833" d="M795.944,155.554c0.447-0.671,1.341-1.638,2.682-2.906c1.342-1.266,2.197-2.272,2.57-3.018
			c4.32,0,7.896,0.15,10.729,0.447c2.085,0,3.576,0.298,4.471,0.894c0.894,0.597,1.452,1.081,1.676,1.453l-52.859,115.553
			c-0.67,0.447-1.416,0.67-2.234,0.67c-0.598,0-1.436-0.15-2.515-0.447c-1.081-0.297-1.976-0.632-2.683-1.006
			c-0.709-0.372-1.584-0.782-2.626-1.229c-0.82,0.15-2.329,0.671-4.526,1.565c-2.198,0.894-3.743,1.341-4.638,1.341
			c-1.341,0-2.012-0.67-2.012-2.012c0-2.682,2.197-7.636,6.594-14.863c-2.235,2.906-6.353,6.166-12.349,9.779
			c-5.998,3.614-11.046,5.905-15.143,6.873c-1.491,0.297-2.794,0.447-3.911,0.447c-2.906,0-5.998-0.615-9.275-1.844
			c-3.279-1.229-6.091-2.961-8.438-5.196c-2.347-2.235-3.669-4.619-3.968-7.152c-0.743-2.755-1.117-5.736-1.117-8.94
			c0-5.289,1.305-11.268,3.911-17.936c2.607-6.667,7.301-14.769,14.081-24.307c9.536-13.559,20.842-25.089,33.917-34.588
			s26.279-14.249,39.617-14.249C790.505,154.883,793.188,155.106,795.944,155.554z M786.334,172.987
			c-9.091,1.268-18.851,6.37-29.28,15.31c-10.431,8.94-19.185,19.185-26.262,30.732c-7.079,11.549-10.616,21.233-10.616,29.056
			c4.319-0.148,8.511-1.322,12.572-3.521c4.06-2.196,7.915-5.158,11.566-8.884c3.649-3.725,6.854-7.505,9.61-11.343
			c2.756-3.836,6.22-8.958,10.394-15.366C776.611,190.197,783.948,178.203,786.334,172.987z"/>
		<path fill="#071833" d="M862.214,115.099c0.447-0.447,1.043-0.67,1.788-0.67c1.043,0,3.354,0.746,6.929,2.235
			c0.968-0.073,2.496-0.651,4.582-1.732c2.085-1.079,3.688-1.621,4.806-1.621c1.191,0,2.235,0.374,3.129,1.118
			c-2.086,3.875-5.495,10.449-10.226,19.725c-4.731,9.275-10.208,20.377-16.428,33.302c-6.221,12.927-11.418,24.605-15.589,35.035
			c-2.906,7.303-6.091,15.944-9.556,25.927c-3.464,9.984-6.277,18.291-8.438,24.921c-2.161,6.632-3.726,11.437-4.693,14.416
			c-3.204-0.148-6.8-0.967-10.784-2.458c-3.986-1.489-6.948-2.942-8.884-4.358c-0.821-0.744-2.031-1.341-3.633-1.788
			c-1.601-0.447-2.737-0.819-3.408-1.118c-0.671-0.296-1.006-0.855-1.006-1.676c0-0.223,0.15-0.782,0.447-1.676
			c1.938-5.214,3.559-9.479,4.861-12.795c1.303-3.314,2.644-6.555,4.023-9.723c1.377-3.166,3.892-8.362,7.543-15.59
			c3.649-7.226,7.711-15.271,12.181-24.139C838.261,155.628,852.38,129.85,862.214,115.099z"/>
		<path fill="#071833" d="M906.804,115.099c0.447-0.447,1.043-0.67,1.788-0.67c1.043,0,3.354,0.746,6.929,2.235
			c0.968-0.073,2.496-0.651,4.582-1.732c2.085-1.079,3.688-1.621,4.806-1.621c1.191,0,2.235,0.374,3.129,1.118
			c-2.086,3.875-5.495,10.449-10.226,19.725c-4.731,9.275-10.208,20.377-16.428,33.302c-6.221,12.927-11.418,24.605-15.589,35.035
			c-2.906,7.303-6.091,15.944-9.556,25.927c-3.464,9.984-6.277,18.291-8.438,24.921c-2.161,6.632-3.726,11.437-4.693,14.416
			c-3.204-0.148-6.8-0.967-10.784-2.458c-3.986-1.489-6.948-2.942-8.884-4.358c-0.821-0.744-2.031-1.341-3.633-1.788
			c-1.601-0.447-2.737-0.819-3.408-1.118c-0.671-0.296-1.006-0.855-1.006-1.676c0-0.223,0.15-0.782,0.447-1.676
			c1.938-5.214,3.559-9.479,4.861-12.795c1.303-3.314,2.644-6.555,4.023-9.723c1.377-3.166,3.892-8.362,7.543-15.59
			c3.649-7.226,7.711-15.271,12.181-24.139C882.851,155.628,896.97,129.85,906.804,115.099z"/>
	</g>
</g>
<g>
	<g>
		<path fill="#023649" d="M321.416,596.655h17.875l16.048,42.399l14.768-42.399h18.285v2.723h-4.465
			c-1.573,0-2.632,0.229-3.176,0.689s-0.817,1.259-0.817,2.396v42.509c0,0.848,0.327,1.501,0.98,1.961
			c0.653,0.46,1.778,0.689,3.376,0.689h4.102v2.723h-24.576v-2.723h4.594c1.312,0,2.285-0.248,2.917-0.744s0.948-1.131,0.948-1.906
			v-45.594l-17.753,50.967h-2.446l-19.115-50.749v39.023c0,2.323,0.29,4.061,0.871,5.21c0.581,1.149,1.409,2.032,2.486,2.649
			c1.077,0.617,2.862,0.998,5.354,1.144v2.723h-20.256v-2.723c3.315-0.218,5.566-0.932,6.752-2.142
			c1.186-1.21,1.779-3.352,1.779-6.426v-37.027c0-0.919-0.279-1.591-0.835-2.015c-0.557-0.423-1.597-0.635-3.122-0.635h-4.574
			V596.655z"/>
		<path fill="#023649" d="M428.723,646.605l1.307,2.033c-1.767,1.815-3.727,2.723-5.881,2.723c-1.646,0-3.031-0.448-4.156-1.344
			c-1.125-0.895-2.112-2.468-2.958-4.719c-2.3,2.42-4.32,4.036-6.062,4.847c-1.742,0.811-3.836,1.216-6.28,1.216
			c-3.485,0-6.135-0.751-7.95-2.251c-1.815-1.5-2.723-3.424-2.723-5.771c0-3.533,2.075-6.468,6.226-8.804
			c4.15-2.335,9.674-3.89,16.572-4.664v-5.155c0-1.839-0.739-3.412-2.214-4.719c-1.477-1.308-3.353-1.961-5.627-1.961
			c-2.105,0-3.92,0.436-5.445,1.308c-1.089,0.653-1.633,1.295-1.633,1.924c0,0.362,0.291,0.932,0.871,1.706
			c0.702,0.968,1.053,1.827,1.053,2.577c0,1.089-0.351,1.979-1.053,2.668c-0.702,0.69-1.622,1.035-2.759,1.035
			c-1.21,0-2.221-0.411-3.031-1.234c-0.811-0.822-1.216-1.875-1.216-3.158c0-2.396,1.349-4.586,4.048-6.57
			c2.698-1.984,6.238-2.978,10.618-2.978c4.042,0,7.127,0.872,9.257,2.614c2.129,1.767,3.194,3.908,3.194,6.425v18.587
			c0,1.646,0.266,2.855,0.799,3.63c0.532,0.799,1.222,1.198,2.069,1.198C426.69,647.768,427.682,647.381,428.723,646.605z
			 M416.816,632.267c-6.147,0.848-10.504,2.227-13.069,4.139c-1.912,1.452-2.868,3.509-2.868,6.171c0,1.864,0.496,3.321,1.488,4.374
			c0.992,1.053,2.287,1.579,3.884,1.579c2.855,0,5.33-1.082,7.424-3.249c2.093-2.165,3.14-4.882,3.14-8.149V632.267z"/>
		<path fill="#023649" d="M434.131,616.33l11.29-0.689c0.459,2.13,0.799,4.623,1.017,7.479c1.525-2.469,3.322-4.32,5.391-5.555
			c2.069-1.234,4.411-1.852,7.024-1.852c2.251,0,4.139,0.442,5.663,1.325c1.525,0.884,2.747,2.281,3.667,4.193
			c0.919,1.912,1.379,4.054,1.379,6.425v16.554c0,1.234,0.278,2.111,0.835,2.632c0.557,0.521,1.488,0.78,2.795,0.78h2.396v2.723
			h-17.933v-2.723h1.706c1.597,0,2.71-0.254,3.34-0.763c0.629-0.508,0.944-1.271,0.944-2.286v-14.558
			c0-3.17-0.484-5.518-1.452-7.042c-1.355-2.179-3.412-3.268-6.171-3.268c-2.735,0-5.016,1.102-6.843,3.304
			c-1.828,2.202-2.741,5.07-2.741,8.604v12.597c0,1.234,0.284,2.111,0.853,2.632c0.568,0.521,1.507,0.78,2.813,0.78h2.359v2.723
			h-18.005v-2.723h2.36c1.186,0,2.087-0.241,2.704-0.726c0.617-0.484,0.926-1.09,0.926-1.815v-21.962
			c0-1.452-0.394-2.554-1.18-3.304c-0.787-0.75-1.918-1.126-3.394-1.126h-1.743V616.33z"/>
		<path fill="#023649" d="M478.891,616.33l13.541-0.399v29.259c0,0.799,0.193,1.368,0.581,1.707
			c0.556,0.484,1.258,0.726,2.105,0.726h3.848v2.723h-19.349v-2.723h3.594c1.064,0,1.845-0.26,2.341-0.78s0.744-1.276,0.744-2.269
			v-21.418c0-1.355-0.387-2.378-1.162-3.067c-0.775-0.69-1.924-1.035-3.449-1.035h-2.795V616.33z M488.329,596.038
			c1.09,0,2.045,0.411,2.868,1.234c0.822,0.822,1.234,1.791,1.234,2.903c0,1.09-0.399,2.033-1.198,2.832s-1.755,1.198-2.867,1.198
			c-1.114,0-2.076-0.405-2.886-1.217c-0.812-0.811-1.216-1.761-1.216-2.85s0.411-2.045,1.234-2.867
			C486.32,596.449,487.265,596.038,488.329,596.038z"/>
		<path fill="#023649" d="M514.576,616.33h8.494v3.158h-8.494v24.83c0,1.138,0.266,1.937,0.799,2.396
			c0.726,0.604,1.742,0.907,3.049,0.907h4.646v2.723h-20.837v-2.723h2.868c1.282,0,2.178-0.218,2.687-0.653
			c0.508-0.436,0.762-1.113,0.762-2.033v-25.447h-5.881v-3.158h5.881v-2.577c0-5.989,1.244-10.561,3.733-13.713
			c2.488-3.152,5.568-4.729,9.241-4.729c2.729,0,4.862,0.666,6.396,1.997c1.533,1.331,2.301,3.073,2.301,5.228
			c0,1.403-0.369,2.511-1.107,3.321c-0.738,0.812-1.676,1.216-2.812,1.216c-1.017,0-1.858-0.326-2.523-0.979
			c-0.666-0.654-0.998-1.477-0.998-2.469c0-1.138,0.436-2.069,1.307-2.795c0.702-0.581,1.053-1.017,1.053-1.308
			c0-0.411-0.271-0.786-0.813-1.125c-0.543-0.339-1.357-0.508-2.442-0.508c-2.051,0-3.781,0.913-5.191,2.74
			c-1.411,1.828-2.116,4.544-2.116,8.149V616.33z"/>
		<path fill="#023649" d="M559.625,633.573h-24.358c0.121,5.18,1.09,8.834,2.904,10.963c2.081,2.396,4.731,3.594,7.95,3.594
			c4.743,0,8.555-2.698,11.435-8.095l2.36,1.017c-3.534,6.873-8.64,10.31-15.319,10.31c-4.551,0-8.38-1.646-11.489-4.938
			c-3.11-3.291-4.665-7.502-4.665-12.633c0-5.518,1.53-9.977,4.592-13.377c3.062-3.399,6.831-5.101,11.309-5.101
			c3.291,0,6.135,0.848,8.53,2.542c2.396,1.693,4.198,4.126,5.409,7.296C559.129,627.379,559.576,630.186,559.625,633.573z
			 M535.267,630.996h14.739c0.871,0,1.548-0.296,2.032-0.89c0.484-0.593,0.727-1.603,0.727-3.031c0-2.661-0.829-4.924-2.487-6.788
			c-1.657-1.863-3.611-2.795-5.862-2.795c-2.518,0-4.653,1.125-6.407,3.376C536.253,623.119,535.34,626.495,535.267,630.996z"/>
		<path fill="#023649" d="M568.991,637.53c1.5,4.188,3.225,7.085,5.173,8.694s4.35,2.414,7.206,2.414
			c2.638,0,4.665-0.574,6.08-1.725c1.416-1.149,2.124-2.607,2.124-4.374c0-1.017-0.261-1.906-0.782-2.668
			c-0.521-0.763-1.243-1.331-2.164-1.706c-0.922-0.375-3.311-0.926-7.165-1.652c-3.687-0.726-6.256-1.488-7.709-2.287
			c-1.453-0.798-2.586-1.899-3.396-3.303c-0.812-1.403-1.218-2.929-1.218-4.574c0-2.492,0.836-4.756,2.509-6.788
			c2.157-2.59,5.175-3.885,9.053-3.885c2.956,0,5.695,0.932,8.216,2.795l2.399-2.541h1.491l0.944,12.125h-2.432
			c-1.067-3.437-2.51-5.911-4.329-7.424c-1.818-1.512-4.062-2.269-6.729-2.269c-2.304,0-4.11,0.562-5.42,1.688
			c-1.31,1.126-1.964,2.5-1.964,4.121c0,1.429,0.605,2.614,1.818,3.558c1.188,0.969,3.516,1.731,6.982,2.29
			c4.024,0.681,6.643,1.252,7.855,1.713c1.986,0.727,3.524,1.845,4.614,3.356c1.091,1.513,1.636,3.356,1.636,5.533
			c0,2.999-1.182,5.539-3.545,7.619c-2.362,2.08-5.361,3.12-8.995,3.12c-3.369,0-6.495-1.113-9.379-3.34l-2.653,3.049h-1.927
			l-0.727-13.54H568.991z"/>
		<path fill="#023649" d="M608.27,602.463h2.433v13.867h10.999v3.34h-10.999v21.817c0,1.888,0.447,3.334,1.343,4.338
			c0.896,1.005,2.033,1.507,3.412,1.507c1.646,0,3.05-0.763,4.211-2.287c1.162-1.524,1.839-4.042,2.033-7.551h2.433
			c-0.146,4.525-1.175,7.884-3.086,10.073c-1.912,2.19-4.393,3.285-7.441,3.285c-2.808,0-5.004-0.768-6.589-2.305
			c-1.586-1.536-2.378-3.552-2.378-6.044V619.67h-5.917v-2.541c2.696-0.459,4.749-1.585,6.158-3.376
			C606.97,611.066,608.1,607.304,608.27,602.463z"/>
		<path fill="#023649" d="M644.28,615.313c4.574,0,8.416,1.652,11.525,4.955c3.109,3.304,4.665,7.654,4.665,13.051
			c0,3.728-0.696,6.903-2.088,9.529s-3.376,4.701-5.953,6.226s-5.354,2.287-8.331,2.287c-4.405,0-8.138-1.67-11.199-5.01
			s-4.592-7.672-4.592-12.996c0-5.348,1.536-9.692,4.61-13.032C635.991,616.983,639.778,615.313,644.28,615.313z M644.28,617.892
			c-2.711,0-4.938,1.229-6.68,3.685s-2.613,6.334-2.613,11.635c0,5.396,0.864,9.342,2.596,11.834
			c1.729,2.493,3.962,3.739,6.697,3.739c2.831,0,5.124-1.246,6.879-3.739c1.755-2.492,2.632-6.57,2.632-12.233
			c0-5.252-0.865-9.052-2.596-11.399C649.465,619.065,647.16,617.892,644.28,617.892z"/>
	</g>
	<g>
		<path fill="#023649" d="M671.573,646.997c0,1.869-1.288,3.608-3.414,3.608c-2.19,0-3.673-1.481-3.673-3.544
			c0-1.61,1.159-3.607,3.673-3.607C670.735,643.454,671.573,645.58,671.573,646.997z"/>
		<path fill="#023649" d="M694.959,647.126c-2.384,2.256-5.153,3.544-9.148,3.544c-3.285,0-5.348-1.353-6.507-2.771
			c-0.967-1.224-1.868-3.479-1.868-5.928c0-6.378,2.705-12.306,6.571-15.978c2.963-2.771,5.927-3.608,9.02-3.608
			c2.706,0,4.639,0.901,5.992,2.384c1.353,1.417,2.448,3.801,2.448,7.152C701.467,637.27,699.276,643.003,694.959,647.126z
			 M692.64,644.808c2.19-2.706,3.931-8.312,3.931-12.758c0-2.384-0.322-3.673-1.031-4.832c-0.644-1.095-1.61-1.933-3.543-1.933
			c-2.127,0-4.188,1.095-5.992,3.479c-1.61,2.19-3.673,7.28-3.673,12.628c0,2.062,0.258,3.415,1.031,4.638
			c0.708,1.225,2.062,1.805,3.672,1.805C689.16,647.835,691.158,646.611,692.64,644.808z"/>
		<path fill="#023649" d="M706.939,626.767c-0.064-0.966-0.129-1.868-0.129-2.771c4.123-0.579,7.731-1.61,8.054-1.61
			c0.387,0,1.354,0.901,1.675,1.417c-0.451,1.805-1.03,4.253-1.868,7.989l0.451,0.193c3.801-5.734,7.796-9.6,10.115-9.6
			c1.354,0,2.513,0.516,3.156,0.901c0,1.611-1.417,4.511-2.126,4.832c-0.45-0.192-1.803-0.579-2.641-0.579
			c-2.577,0-8.827,7.087-10.245,12.499c-0.516,1.997-1.739,7.41-2.318,9.986c-1.482,0-2.964,0-4.382,0
			c1.225-5.283,3.737-16.559,5.283-23.774L706.939,626.767z"/>
		<path fill="#023649" d="M742.824,622.386c1.934,0,3.222,0.258,3.995,0.516c0.258,0.128,0.579,0.128,0.967,0.128
			c1.095,0,7.151,0,8.826-0.063c0.064,0.902,0,1.933-0.063,2.963c-2.062,0.065-4.317,0.13-6.379,0.194l-0.064,0.257
			c0.708,0.838,1.288,2.771,1.288,4.833c0,2.512-0.773,5.604-2.318,7.989c-1.547,2.319-5.155,5.862-11.599,5.218
			c-2.061,1.354-3.543,2.256-3.543,3.287c0,1.417,3.285,1.61,7.925,1.996c3.544,0.322,5.798,0.709,7.28,1.611
			c1.481,0.901,2.771,2.706,2.771,4.574c0,4.639-4.961,9.922-16.559,9.922c-6.765,0-11.532-2.384-11.532-6.379
			c0-0.966,0.258-2.576,1.482-3.414c2.126-1.353,3.35-2.062,7.022-4.124v-0.386c-1.997-0.645-3.028-1.74-3.028-3.866
			c0-0.645,0.258-1.03,5.09-3.995v-0.321c-2.384-1.289-4.124-3.802-4.124-7.731C730.261,629.473,735.028,622.386,742.824,622.386z
			 M741.214,653.376c-1.997-0.258-4.123-0.516-5.54-0.709c-4.64,2.835-7.216,4.188-7.216,6.507c0,2.836,4.252,3.931,7.795,3.931
			c6.121,0,10.953-2.126,10.953-6.313C747.206,654.342,745.724,653.892,741.214,653.376z M739.604,641.907
			c3.801,0,7.087-4.445,7.087-10.631c0-1.933-0.193-3.285-0.837-4.444c-0.838-1.354-2.256-1.805-3.545-1.805
			c-4.381,0-7.344,5.025-7.344,11.081C734.965,639.975,736.704,641.907,739.604,641.907z"/>
	</g>
</g>
</svg>
