<?xml version="1.0" encoding="utf-8"?>
<!-- Generator: Adobe Illustrator 15.0.0, SVG Export Plug-In . SVG Version: 6.00 Build 0)  -->
<!DOCTYPE svg PUBLIC "-//W3C//DTD SVG 1.1//EN" "http://www.w3.org/Graphics/SVG/1.1/DTD/svg11.dtd">
<svg version="1.1" id="Layer_1" xmlns="http://www.w3.org/2000/svg" xmlns:xlink="http://www.w3.org/1999/xlink" x="0px" y="0px"
	 width="1024px" height="768px" viewBox="0 0 1024 768" enable-background="new 0 0 1024 768" xml:space="preserve">
<rect x="13" y="32" fill="#F1F1F1" width="1001" height="664"/>
<linearGradient id="SVGID_1_" gradientUnits="userSpaceOnUse" x1="373.603" y1="299.5264" x2="373.603" y2="444.0073">
	<stop  offset="0" style="stop-color:#FFFFFF"/>
	<stop  offset="1" style="stop-color:#D7FCFF"/>
</linearGradient>
<circle fill="url(#SVGID_1_)" cx="373.603" cy="371.768" r="72.24"/>
<linearGradient id="SVGID_2_" gradientUnits="userSpaceOnUse" x1="492.1382" y1="348.3037" x2="492.1382" y2="631.2456">
	<stop  offset="0" style="stop-color:#FFFFFF"/>
	<stop  offset="1" style="stop-color:#D7FCFF"/>
</linearGradient>
<circle fill="url(#SVGID_2_)" cx="492.139" cy="489.775" r="141.472"/>
<linearGradient id="SVGID_3_" gradientUnits="userSpaceOnUse" x1="569.6562" y1="304.8633" x2="569.6562" y2="423.2593">
	<stop  offset="0" style="stop-color:#FFFFFF"/>
	<stop  offset="1" style="stop-color:#D7FCFF"/>
</linearGradient>
<circle fill="url(#SVGID_3_)" cx="569.656" cy="364.062" r="59.198"/>
<linearGradient id="SVGID_4_" gradientUnits="userSpaceOnUse" x1="762.459" y1="409.4121" x2="762.459" y2="596.0352">
	<stop  offset="0" style="stop-color:#FFFFFF"/>
	<stop  offset="1" style="stop-color:#D7FCFF"/>
</linearGradient>
<circle fill="url(#SVGID_4_)" cx="762.459" cy="502.722" r="93.311"/>
<linearGradient id="SVGID_5_" gradientUnits="userSpaceOnUse" x1="642.8594" y1="436.6816" x2="642.8594" y2="623.3047">
	<stop  offset="0" style="stop-color:#FFFFFF"/>
	<stop  offset="1" style="stop-color:#D7FCFF"/>
</linearGradient>
<circle fill="url(#SVGID_5_)" cx="642.859" cy="529.993" r="93.311"/>
<g>
	<path d="M342.488,343.786l-55.522,8.376l-13.028,17.37l-28.226-25.746c4.134-4.139,7.08-7.239,8.84-9.305
		c1.754-2.063,2.738-3.305,2.946-3.721v0.309c3.514-35.152,6.514-63.742,8.995-85.765c2.482-22.022,4.856-38.098,7.135-48.232
		c1.444-10.128,3.459-17.627,6.048-22.489c2.584-4.855,5.53-7.289,8.84-7.289c3.102,0,6.407,1.139,9.925,3.412
		c2.894,3.723,7.701,8.738,14.424,15.042c6.718,6.313,15.354,14.114,25.9,23.419v-62.966c0-6.614,0.102-12.251,0.311-16.904
		c0.204-4.652,0.722-8.113,1.551-10.391c0.203-4.754,1.861-8.375,4.962-10.857c3.102-2.48,7.337-3.721,12.717-3.721
		c2.685,4.759,5.167,9.979,7.445,15.664c2.272,5.69,4.545,11.84,6.823,18.456c-3.31,6.204-5.171,12.925-5.583,20.161v159.744
		c0,9.721,2.064,25.848,6.204,48.389l-19.851,6.821L342.488,343.786z M294.41,259.729c-2.278,18.611-4.449,40.323-6.514,65.137
		l50.87-7.753V227.16l-4.652,4.651l-32.88-19.542C298.956,225.299,296.683,241.117,294.41,259.729z"/>
	<path d="M399.56,171.018c0.203,0.416,0.514,1.085,0.93,2.015c0.412,0.931,0.722,1.605,0.931,2.017
		c1.444,3.101,2.737,5.894,3.877,8.376c1.134,2.48,2.118,4.86,2.946,7.131l75.064-7.443l12.407-14.579l26.985,24.195
		c-9.102,7.861-13.648,12.204-13.648,13.028l-15.509,118.797l9.616,7.756v14.271l-82.509,3.101v13.025
		c0,4.549-1.294,7.756-3.877,9.617c-2.588,1.86-6.359,2.791-11.322,2.791l-18.92-25.743c1.24-4.14,2.272-8.018,3.102-11.634
		c0.824-3.62,1.443-6.978,1.861-10.079l-7.444-125.003c-0.417-3.103-1.241-7.444-2.481-13.029
		c-1.242-5.581-2.588-11.369-4.033-17.369l13.338-4.963L399.56,171.018z M465.008,321.145l13.337-110.425l-65.138,6.825
		l6.204,104.531l44.045-0.931H465.008z"/>
	<path d="M575.43,201.725c-6.62,11.788-9.926,22.334-9.926,31.64v45.906c0,20.89-2.689,42.602-8.064,65.137
		c-2.481,10.961-6.049,21.712-10.701,32.261c-4.653,10.546-10.6,20.675-17.836,30.396c-7.032,9.305-16.546,18.712-28.537,28.226
		c-11.99,9.512-26.055,19.232-42.184,29.159l-7.445-22.023c12.407-8.064,23.007-16.082,31.794-24.039
		c8.792-7.965,15.975-15.563,21.557-22.8h-0.31c6.824-11.166,12.408-21.555,16.75-31.172c4.343-9.615,7.338-18.768,8.996-27.449
		c4.342-21.298,6.514-40.529,6.514-57.694v-59.246c0-8.888-2.588-19.434-7.754-31.638l12.097-13.647L575.43,201.725z
		 M566.125,118.287v-0.31c7.235,4.55,10.855,10.032,10.855,16.439c0,7.241-1.449,16.44-4.343,27.606
		c-5.791,0-10.081-0.465-12.872-1.395c-2.792-0.931-4.706-2.84-5.738-5.739c-3.102-5.584-7.652-12.301-13.647-20.163
		c-6-7.855-13.958-17.161-23.884-27.916l9.305-17.68L566.125,118.287z"/>
	<path d="M602.723,171.018c0.203,0.416,0.514,1.085,0.931,2.015c0.411,0.931,0.722,1.605,0.931,2.017
		c1.443,3.101,2.737,5.894,3.877,8.376c1.134,2.48,2.118,4.86,2.946,7.131l75.063-7.443l12.406-14.579l26.986,24.195
		c-9.103,7.861-13.649,12.204-13.649,13.028l-15.507,118.797l9.616,7.756v14.271l-82.509,3.101v13.025
		c0,4.549-1.294,7.756-3.877,9.617c-2.588,1.86-6.359,2.791-11.322,2.791l-18.92-25.743c1.24-4.14,2.272-8.018,3.102-11.634
		c0.824-3.62,1.443-6.978,1.861-10.079l-7.445-125.003c-0.416-3.103-1.24-7.444-2.48-13.029c-1.241-5.581-2.589-11.369-4.033-17.369
		l13.338-4.963L602.723,171.018z M668.17,321.145l13.336-110.425l-65.136,6.825l6.204,104.531l44.044-0.931H668.17z"/>
</g>
<linearGradient id="SVGID_6_" gradientUnits="userSpaceOnUse" x1="672.3574" y1="337.9971" x2="672.3574" y2="516.5903">
	<stop  offset="0" style="stop-color:#FFFFFF"/>
	<stop  offset="1" style="stop-color:#D7FCFF"/>
</linearGradient>
<circle fill="url(#SVGID_6_)" cx="672.358" cy="427.293" r="89.297"/>
<linearGradient id="SVGID_7_" gradientUnits="userSpaceOnUse" x1="246.1577" y1="360.0479" x2="246.1577" y2="594.8306">
	<stop  offset="0" style="stop-color:#FFFFFF"/>
	<stop  offset="1" style="stop-color:#D7FCFF"/>
</linearGradient>
<circle fill="url(#SVGID_7_)" cx="246.158" cy="477.438" r="117.391"/>
<linearGradient id="SVGID_8_" gradientUnits="userSpaceOnUse" x1="279.5933" y1="334.9902" x2="279.5933" y2="499.5396">
	<stop  offset="0" style="stop-color:#FFFFFF"/>
	<stop  offset="1" style="stop-color:#D7FCFF"/>
</linearGradient>
<circle fill="url(#SVGID_8_)" cx="279.593" cy="417.263" r="82.274"/>
<linearGradient id="SVGID_9_" gradientUnits="userSpaceOnUse" x1="345.7744" y1="434.377" x2="345.7744" y2="620.998">
	<stop  offset="0" style="stop-color:#FFFFFF"/>
	<stop  offset="1" style="stop-color:#D7FCFF"/>
</linearGradient>
<circle fill="url(#SVGID_9_)" cx="345.774" cy="527.687" r="93.311"/>
<g>
	<path d="M383.55,545.763c0-5.718,1.919-10.192,5.758-13.429s8.793-4.854,14.864-4.854c3.977,0,7.56,0.76,10.752,2.28
		c3.192,1.521,5.625,3.639,7.3,6.356c1.674,2.719,2.511,5.802,2.511,9.249c0,3.492-0.881,6.618-2.643,9.375
		c-1.763,2.758-4.26,4.846-7.491,6.263c-3.231,1.419-6.717,2.128-10.458,2.128c-4.053,0-7.677-0.784-10.869-2.351
		c-3.192-1.567-5.611-3.704-7.255-6.415C384.373,551.654,383.55,548.789,383.55,545.763z M389.425,545.835
		c0,4.153,1.396,7.422,4.187,9.812c2.791,2.389,6.292,3.584,10.502,3.584c4.289,0,7.819-1.208,10.59-3.62
		c2.771-2.412,4.157-5.836,4.157-10.27c0-2.805-0.593-5.253-1.777-7.346c-1.185-2.089-2.918-3.712-5.199-4.864
		c-2.282-1.151-4.843-1.727-7.682-1.727c-4.035,0-7.506,1.109-10.414,3.326C390.88,536.947,389.425,540.649,389.425,545.835z"/>
	<path d="M429.013,562.545v-34.452h5.846l22.62,27.049v-27.049h5.463v34.452h-5.845l-22.62-27.073v27.073H429.013z"/>
	<path d="M469.276,562.545v-34.452h5.699v30.386h21.209v4.066H469.276z"/>
	<path d="M500.932,562.545v-34.452h5.699v34.452H500.932z"/>
	<path d="M513.611,562.545v-34.452h5.846l22.619,27.049v-27.049h5.465v34.452h-5.847l-22.62-27.073v27.073H513.611z"/>
	<path d="M554.225,562.545v-34.452h31.139v4.065h-25.439v10.55h23.824v4.043h-23.824v11.728h26.438v4.066H554.225z"/>
</g>
</svg>
