<?xml version="1.0" encoding="utf-8"?>
<!-- Generator: Adobe Illustrator 15.0.0, SVG Export Plug-In . SVG Version: 6.00 Build 0)  -->
<!DOCTYPE svg PUBLIC "-//W3C//DTD SVG 1.1//EN" "http://www.w3.org/Graphics/SVG/1.1/DTD/svg11.dtd">
<svg version="1.1" id="Layer_1" xmlns="http://www.w3.org/2000/svg" xmlns:xlink="http://www.w3.org/1999/xlink" x="0px" y="0px"
	 width="1024px" height="768px" viewBox="0 0 1024 768" enable-background="new 0 0 1024 768" xml:space="preserve">
<rect x="13" y="32" width="1001" height="664"/>
<path fill="#D7FCFF" stroke="#FFFFFF" stroke-width="20" stroke-miterlimit="10" d="M762.46,417.412
	c-0.866,0-1.729,0.014-2.59,0.037c-8.268-40.766-44.307-71.452-87.514-71.452c-16.47,0-31.896,4.464-45.142,12.241
	c-6.229-26.023-29.627-45.375-57.559-45.375c-27.75,0-51.031,19.099-57.44,44.865c-6.56-0.932-13.261-1.425-20.078-1.425
	c-16.813,0-32.938,2.939-47.896,8.322c-6.961-32.625-35.937-57.099-70.639-57.099c-28.731,0-53.541,16.775-65.18,41.063
	c-9.251-3.602-19.304-5.6-29.829-5.6c-25.111,0-47.579,11.263-62.67,28.996c-50.18,13.338-87.157,59.074-87.157,113.452
	c0,64.832,52.557,117.392,117.391,117.392c10.669,0,21.003-1.432,30.828-4.1c17.058,18.603,41.56,30.268,68.789,30.268
	c22.074,0,42.353-7.67,58.33-20.482c24.161,19.231,54.752,30.729,88.033,30.729c33.664,0,64.575-11.766,88.864-31.398
	c16.467,14.593,38.125,23.458,61.857,23.458c30.995,0,58.454-15.116,75.423-38.373c13.151,7.082,28.194,11.104,44.178,11.104
	c51.533,0,93.31-41.776,93.31-93.313C855.77,459.188,813.993,417.412,762.46,417.412z"/>
<path fill="#CFCFCF" stroke="#FFFFFF" stroke-width="4" stroke-miterlimit="10" d="M608.242,408.935
	c12.613-10.856,20.612-26.926,20.612-44.873c0-32.693-26.505-59.198-59.198-59.198c-27.75,0-51.031,19.099-57.44,44.865
	c-6.56-0.932-13.261-1.425-20.078-1.425c-16.813,0-32.938,2.939-47.896,8.322c-6.961-32.625-35.936-57.099-70.639-57.099
	c-39.896,0-72.239,32.344-72.239,72.241c0,34.814,24.63,63.871,57.415,70.71c-5.246,14.791-8.11,30.709-8.11,47.298
	c0,78.132,63.339,141.47,141.471,141.47c78.134,0,141.473-63.338,141.473-141.47C633.61,459.715,624.228,431.851,608.242,408.935z"
	/>
<g>
	<path fill="#FFFFFF" stroke="#000000" stroke-width="4" stroke-miterlimit="10" d="M342.488,343.786l-55.522,8.376l-13.028,17.37
		l-28.226-25.746c4.134-4.139,7.08-7.239,8.84-9.305c1.754-2.063,2.738-3.305,2.946-3.721v0.309
		c3.514-35.152,6.514-63.742,8.995-85.765c2.482-22.022,4.856-38.098,7.135-48.232c1.444-10.128,3.459-17.627,6.048-22.489
		c2.584-4.855,5.53-7.289,8.84-7.289c3.102,0,6.407,1.139,9.925,3.412c2.894,3.723,7.701,8.738,14.424,15.042
		c6.718,6.313,15.354,14.114,25.9,23.419v-62.966c0-6.614,0.102-12.251,0.311-16.904c0.204-4.652,0.722-8.113,1.551-10.391
		c0.203-4.754,1.861-8.375,4.962-10.857c3.102-2.48,7.337-3.721,12.717-3.721c2.685,4.759,5.167,9.979,7.445,15.664
		c2.272,5.69,4.545,11.84,6.823,18.456c-3.31,6.204-5.171,12.925-5.583,20.161v159.744c0,9.721,2.064,25.848,6.204,48.389
		l-19.851,6.821L342.488,343.786z M294.41,259.729c-2.278,18.611-4.449,40.323-6.514,65.137l50.87-7.753V227.16l-4.652,4.651
		l-32.88-19.542C298.956,225.299,296.683,241.117,294.41,259.729z"/>
	<path fill="#FFFFFF" stroke="#000000" stroke-width="4" stroke-miterlimit="10" d="M399.56,171.018
		c0.203,0.416,0.514,1.085,0.93,2.015c0.412,0.931,0.722,1.605,0.931,2.017c1.444,3.101,2.737,5.894,3.877,8.376
		c1.134,2.48,2.118,4.86,2.946,7.131l75.064-7.443l12.407-14.579l26.985,24.195c-9.102,7.861-13.648,12.204-13.648,13.028
		l-15.509,118.797l9.616,7.756v14.271l-82.509,3.101v13.025c0,4.549-1.294,7.756-3.877,9.617c-2.588,1.86-6.359,2.791-11.322,2.791
		l-18.92-25.743c1.24-4.14,2.272-8.018,3.102-11.634c0.824-3.62,1.443-6.978,1.861-10.079l-7.444-125.003
		c-0.417-3.103-1.241-7.444-2.481-13.029c-1.242-5.581-2.588-11.369-4.033-17.369l13.338-4.963L399.56,171.018z M465.008,321.145
		l13.337-110.425l-65.138,6.825l6.204,104.531l44.045-0.931H465.008z"/>
	<path fill="#FFFFFF" stroke="#000000" stroke-width="4" stroke-miterlimit="10" d="M575.43,201.725
		c-6.62,11.788-9.926,22.334-9.926,31.64v45.906c0,20.89-2.689,42.602-8.064,65.137c-2.481,10.961-6.049,21.712-10.701,32.261
		c-4.653,10.546-10.6,20.675-17.836,30.396c-7.032,9.305-16.546,18.712-28.537,28.226c-11.99,9.512-26.055,19.232-42.184,29.159
		l-7.445-22.023c12.407-8.064,23.007-16.082,31.794-24.039c8.792-7.965,15.975-15.563,21.557-22.8h-0.31
		c6.824-11.166,12.408-21.555,16.75-31.172c4.343-9.615,7.338-18.768,8.996-27.449c4.342-21.298,6.514-40.529,6.514-57.694v-59.246
		c0-8.888-2.588-19.434-7.754-31.638l12.097-13.647L575.43,201.725z M566.125,118.287v-0.31c7.235,4.55,10.855,10.032,10.855,16.439
		c0,7.241-1.449,16.44-4.343,27.606c-5.791,0-10.081-0.465-12.872-1.395c-2.792-0.931-4.706-2.84-5.738-5.739
		c-3.102-5.584-7.652-12.301-13.647-20.163c-6-7.855-13.958-17.161-23.884-27.916l9.305-17.68L566.125,118.287z"/>
	<path fill="#FFFFFF" stroke="#000000" stroke-width="4" stroke-miterlimit="10" d="M602.723,171.018
		c0.203,0.416,0.514,1.085,0.931,2.015c0.411,0.931,0.722,1.605,0.931,2.017c1.443,3.101,2.737,5.894,3.877,8.376
		c1.134,2.48,2.118,4.86,2.946,7.131l75.063-7.443l12.406-14.579l26.986,24.195c-9.103,7.861-13.649,12.204-13.649,13.028
		l-15.507,118.797l9.616,7.756v14.271l-82.509,3.101v13.025c0,4.549-1.294,7.756-3.877,9.617c-2.588,1.86-6.359,2.791-11.322,2.791
		l-18.92-25.743c1.24-4.14,2.272-8.018,3.102-11.634c0.824-3.62,1.443-6.978,1.861-10.079l-7.445-125.003
		c-0.416-3.103-1.24-7.444-2.48-13.029c-1.241-5.581-2.589-11.369-4.033-17.369l13.338-4.963L602.723,171.018z M668.17,321.145
		l13.336-110.425l-65.136,6.825l6.204,104.531l44.044-0.931H668.17z"/>
</g>
<path fill="#CFCFCF" stroke="#FFFFFF" stroke-width="4" stroke-miterlimit="10" d="M762.46,409.412c-0.866,0-1.729,0.014-2.59,0.037
	c-8.268-40.766-44.307-71.452-87.514-71.452c-49.316,0-89.296,39.979-89.296,89.296c0,9.646,1.536,18.934,4.366,27.637
	c-22.978,16.997-37.878,44.288-37.878,75.063c0,51.533,41.775,93.312,93.311,93.312c30.995,0,58.454-15.116,75.423-38.373
	c13.151,7.082,28.194,11.104,44.178,11.104c51.533,0,93.31-41.776,93.31-93.313C855.77,451.188,813.993,409.412,762.46,409.412z"/>
<path fill="#CFCFCF" stroke="#FFFFFF" stroke-width="4" stroke-miterlimit="10" d="M358.861,435.295
	c1.299-5.806,2.006-11.835,2.006-18.032c0-45.438-36.835-82.272-82.274-82.272c-25.111,0-47.579,11.263-62.67,28.996
	c-50.18,13.338-87.157,59.074-87.157,113.452c0,64.832,52.557,117.392,117.391,117.392c10.669,0,21.003-1.432,30.828-4.1
	c17.058,18.603,41.56,30.268,68.789,30.268c51.534,0,93.311-41.776,93.311-93.312C439.085,480.595,404.199,441.658,358.861,435.295z
	"/>
<g>
	<path d="M383.55,545.763c0-5.718,1.919-10.192,5.758-13.429s8.793-4.854,14.864-4.854c3.977,0,7.56,0.76,10.752,2.28
		c3.192,1.521,5.625,3.639,7.3,6.356c1.674,2.719,2.511,5.802,2.511,9.249c0,3.492-0.881,6.618-2.643,9.375
		c-1.763,2.758-4.26,4.846-7.491,6.263c-3.231,1.419-6.717,2.128-10.458,2.128c-4.053,0-7.677-0.784-10.869-2.351
		c-3.192-1.567-5.611-3.704-7.255-6.415C384.373,551.654,383.55,548.789,383.55,545.763z M389.425,545.835
		c0,4.153,1.396,7.422,4.187,9.812c2.791,2.389,6.292,3.584,10.502,3.584c4.289,0,7.819-1.208,10.59-3.62
		c2.771-2.412,4.157-5.836,4.157-10.27c0-2.805-0.593-5.253-1.777-7.346c-1.185-2.089-2.918-3.712-5.199-4.864
		c-2.282-1.151-4.843-1.727-7.682-1.727c-4.035,0-7.506,1.109-10.414,3.326C390.88,536.947,389.425,540.649,389.425,545.835z"/>
	<path d="M429.013,562.545v-34.452h5.846l22.62,27.049v-27.049h5.463v34.452h-5.845l-22.62-27.073v27.073H429.013z"/>
	<path d="M469.276,562.545v-34.452h5.699v30.386h21.209v4.066H469.276z"/>
	<path d="M500.932,562.545v-34.452h5.699v34.452H500.932z"/>
	<path d="M513.611,562.545v-34.452h5.846l22.619,27.049v-27.049h5.465v34.452h-5.847l-22.62-27.073v27.073H513.611z"/>
	<path d="M554.225,562.545v-34.452h31.139v4.065h-25.439v10.55h23.824v4.043h-23.824v11.728h26.438v4.066H554.225z"/>
</g>
</svg>
