<?xml version="1.0" encoding="UTF-8"?>
<!DOCTYPE svg PUBLIC "-//W3C//DTD SVG 1.1//EN" "http://www.w3.org/Graphics/SVG/1.1/DTD/svg11.dtd">
<!-- Creator: CorelDRAW -->
<svg xmlns="http://www.w3.org/2000/svg" xml:space="preserve" width="210mm" height="297mm" style="shape-rendering:geometricPrecision; text-rendering:geometricPrecision; image-rendering:optimizeQuality; fill-rule:evenodd; clip-rule:evenodd"
viewBox="0 0 210 297"
 xmlns:xlink="http://www.w3.org/1999/xlink">
 <defs>
  <style type="text/css">
   <![CDATA[
    .str0 {stroke:#A60C05;stroke-width:1.7631;stroke-linecap:round;stroke-linejoin:round}
    .fil1 {fill:none}
    .fil0 {fill:#A40C01}
   ]]>
  </style>
 </defs>
 <g id="Camada_x0020_1">
  <metadata id="CorelCorpID_0Corel-Layer"/>
  <path class="fil0" d="M175.504 138.726c-5.2189,-0.0002 -9.5741,1.7455 -13.0828,5.2543 -3.5086,3.5087 -5.2543,7.8637 -5.2543,13.0828 0,5.2013 1.7456,9.574 5.2543,13.1004 3.5089,3.5264 7.8638,5.2895 13.0829,5.2895 5.2015,0 9.5741,-1.7632 13.1004,-5.2895 3.5265,-3.5265 5.2896,-7.8991 5.2896,-13.1005 0.0001,-5.2191 -1.7631,-9.5741 -5.2895,-13.0828 -3.5262,-3.509 -7.899,-5.2543 -13.1006,-5.2542zm0.0351 8.7983c2.645,-0.0002 4.884,0.9345 6.7354,2.7858 1.8867,1.8866 2.8211,4.1435 2.8211,6.7883 0,2.6447 -0.9345,4.884 -2.8211,6.7353 -1.8513,1.8865 -4.0905,2.8211 -6.7353,2.8211 -2.6447,-0.0001 -4.9016,-0.9345 -6.7882,-2.8211 -1.8513,-1.8514 -2.7682,-4.0906 -2.7682,-6.7354 0.0001,-2.6448 0.9169,-4.9016 2.7682,-6.7883 1.8867,-1.8515 4.1435,-2.7858 6.7881,-2.7857z"/>
  <path class="fil0" d="M66.1511 132.309c-4.8486,-4.8488 -10.8083,-7.282 -17.8963,-7.282 -7.1054,-0.0001 -13.0652,2.4332 -17.9139,7.282 -4.884,4.8663 -7.3172,10.8436 -7.3172,17.9139 0.0002,7.1055 2.4332,13.0828 7.3173,17.9316 4.8489,4.8663 10.8083,7.2995 17.9139,7.2995 7.0881,-0.0001 13.0476,-2.4332 17.8963,-7.2996 4.8666,-4.8489 7.2996,-10.8259 7.2996,-17.9315 0.0002,-7.0705 -2.4331,-13.0476 -7.2997,-17.9139zm-17.9316 4.2668c3.791,-0.0002 6.9999,1.3224 9.6446,3.9672 2.6802,2.6799 4.0201,5.9066 4.0201,9.6798 0.0001,3.7907 -1.34,6.9998 -4.02,9.6446 -2.6446,2.6799 -5.8538,4.0201 -9.6447,4.0201 -3.7731,-0.0001 -6.9998,-1.3401 -9.6798,-4.0201 -2.6448,-2.645 -3.9671,-5.8538 -3.9671,-9.6446 0.0002,-3.7733 1.3224,-6.9999 3.9671,-9.6799 2.6801,-2.6449 5.9067,-3.9672 9.6798,-3.9671z"/>
  <path class="fil0" d="M81.4733 106.654c-0.7227,-0.0002 -1.3048,0.2292 -1.7808,0.6876 -0.4761,0.4761 -0.7229,1.0579 -0.7229,1.7809l0 6.4003c0.0002,0.4935 -0.1587,0.8992 -0.4761,1.2342 -0.3173,0.3348 -0.7229,0.4937 -1.2165,0.4937 -0.4936,-0.0001 -0.9169,-0.1587 -1.2519,-0.4937 -0.3349,-0.3351 -0.4937,-0.7406 -0.4937,-1.2343l0 -6.4003c0.0002,-0.7406 -0.2291,-1.34 -0.6876,-1.7808 -0.4583,-0.4586 -1.0579,-0.6877 -1.7984,-0.6877 -0.7229,-0.0001 -1.3048,0.2292 -1.7808,0.6876 -0.4583,0.476 -0.6877,1.0579 -0.6877,1.7808l0.0002 6.4003c0.0002,1.9217 0.6347,3.5087 1.9218,4.7782 1.2873,1.2694 2.8917,1.9042 4.8135,1.9042 0.582,0 1.1285,-0.0705 1.6574,-0.194 -0.0528,0.4232 -0.2291,0.7758 -0.5642,1.0579 -0.3349,0.282 -0.7228,0.4232 -1.146,0.4232l-0.1057 -0.0001c-0.7227,-0.0002 -1.3224,0.2292 -1.7985,0.7053 -0.476,0.476 -0.7229,1.0755 -0.7229,1.7984 0.0002,0.7227 0.2293,1.3048 0.7053,1.7632 0.4762,0.4583 1.058,0.6876 1.7809,0.6876l0.1235 -0.0001c1.8867,-0.0002 3.4734,-0.6347 4.7606,-1.9219 1.2872,-1.2872 1.9219,-2.874 1.9219,-4.7606l0.0001 -12.6421c0.0002,-0.7231 -0.2292,-1.3048 -0.6877,-1.7808 -0.4583,-0.4586 -1.0402,-0.6877 -1.7638,-0.687z"/>
  <path class="fil0" d="M67.9319 108.858c-1.4986,-1.4988 -3.35,-2.2569 -5.554,-2.2569 -0.7228,-0.0002 -1.3048,0.2292 -1.7632,0.7052 -0.4761,0.4759 -0.7052,1.0579 -0.7052,1.7808 0.0002,0.7228 0.2292,1.3224 0.7052,1.7808 0.4586,0.4584 1.0403,0.6877 1.7632,0.6877 0.7937,-0.0001 1.4635,0.2821 2.0277,0.8286 0.5467,0.5642 0.8287,1.2343 0.8287,2.0277 0.0002,0.7933 -0.2821,1.481 -0.8286,2.0276 -0.5642,0.5465 -1.2342,0.8111 -2.0277,0.8111 -0.7933,-0.0001 -1.481,-0.2645 -2.0276,-0.8111 -0.5465,-0.5467 -0.811,-1.2343 -0.811,-2.0277l0 -11.1081c0.0002,-0.7229 -0.2292,-1.3048 -0.7053,-1.7632 -0.476,-0.4585 -1.0579,-0.6877 -1.7808,-0.6877 -0.7052,0 -1.2871,0.2292 -1.7631,0.7053 -0.476,0.476 -0.7053,1.0579 -0.7053,1.7455l0.0001 11.108c0.0002,2.1862 0.7582,4.0377 2.2569,5.5364 1.4987,1.4986 3.35,2.2569 5.5364,2.2569 2.1865,-0.0002 4.0377,-0.7582 5.554,-2.2569 1.4988,-1.4988 2.2569,-3.3324 2.2569,-5.5364 0.0001,-2.204 -0.7581,-4.0554 -2.2573,-5.5536z"/>
  <path class="fil0" d="M53.4739 107.342c-0.4584,-0.4586 -1.0402,-0.6877 -1.7631,-0.6877 -0.7229,-0.0001 -1.3048,0.2292 -1.7808,0.6877 -0.476,0.4759 -0.7229,1.0579 -0.7229,1.7808l0 6.4002c0.0002,0.4935 -0.1587,0.8992 -0.476,1.2342 -0.3173,0.3348 -0.7229,0.4937 -1.2166,0.4937 -0.4936,-0.0001 -0.9168,-0.1587 -1.2518,-0.4938 -0.335,-0.335 -0.4937,-0.7405 -0.4937,-1.2342l0 -6.3652c0.0002,-0.7231 -0.2292,-1.3224 -0.7053,-1.7985 -0.476,-0.4762 -1.0578,-0.7053 -1.7808,-0.7053 -0.7228,-0.0001 -1.3047,0.2292 -1.7808,0.7053 -0.4583,0.4759 -0.6876,1.0755 -0.6876,1.7984l0.0001 6.3473c0.0002,1.9219 0.6348,3.5087 1.9043,4.7959 1.2872,1.2694 2.8916,1.9042 4.7958,1.9042 1.8867,0 3.4559,-0.6348 4.743,-1.9219 1.2696,-1.2873 1.9043,-2.874 1.9043,-4.7606l0.0001 -6.4005c0.0002,-0.7229 -0.2292,-1.3048 -0.6882,-1.78z"/>
  <path class="fil0" d="M38.1694 103.093c-1.4986,-1.4988 -3.35,-2.2393 -5.554,-2.2393 -2.2039,-0.0001 -4.0553,0.7405 -5.554,2.2392 -1.4987,1.4987 -2.2392,3.3324 -2.2392,5.5364l0.0001 11.1257c0.0002,0.6875 0.2292,1.2694 0.7053,1.7455 0.4762,0.476 1.0579,0.7052 1.7632,0.7052 0.723,0 1.3048,-0.2292 1.7808,-0.6876 0.4761,-0.4586 0.7053,-1.0403 0.7053,-1.7632l0.0002 -11.1257c0.0002,-0.7936 0.2645,-1.4635 0.8111,-2.0101 0.5466,-0.5466 1.2342,-0.8111 2.0277,-0.8111 0.7936,0 1.4634,0.2645 2.0277,0.8111 0.5467,0.5464 0.8287,1.2165 0.8287,2.01 0.0002,0.7934 -0.2821,1.4811 -0.8287,2.0276 -0.5642,0.5641 -1.2342,0.8463 -2.0276,0.8463 -0.6523,-0.0001 -1.2342,0.2469 -1.7279,0.7229 -0.4936,0.4937 -0.7406,1.0756 -0.7406,1.7456l0.0001 1.5514c0.0002,1.9042 0.6348,3.4911 1.9043,4.7782 1.2518,1.2694 2.8387,1.9042 4.7606,1.9042 0.7229,0 1.3047,-0.2292 1.7808,-0.6876 0.4762,-0.4586 0.7229,-1.0403 0.7229,-1.7632 0.0002,-0.7407 -0.2468,-1.3401 -0.7229,-1.7985 -0.4759,-0.4761 -1.0755,-0.7053 -1.8161,-0.7053 -0.8461,0 -1.3752,-0.4056 -1.6044,-1.2166 1.5693,-0.5467 2.8563,-1.4811 3.8261,-2.8388 0.9521,-1.3578 1.4282,-2.874 1.4282,-4.5666 0.0002,-2.2042 -0.7582,-4.0377 -2.2577,-5.5357z"/>
  <path class="fil0" d="M90.0952 138.709c-4.4607,0 -8.1988,1.4987 -11.2491,4.4961 -3.015,2.9973 -4.5138,6.7177 -4.5138,11.1786l0.0002 15.1456c0.0002,1.6925 0.5466,3.0856 1.6221,4.1788 1.0756,1.0755 2.4685,1.6221 4.1612,1.6221 1.7103,-0.0001 3.1032,-0.5466 4.214,-1.6222 1.1108,-1.0932 1.6574,-2.4861 1.6574,-4.1787l0.0001 -15.1459c0.0002,-1.1462 0.3879,-2.1158 1.1814,-2.874 0.7935,-0.7582 1.7808,-1.1461 2.9621,-1.1461 1.1109,-0.0001 2.063,0.3879 2.8564,1.1813 0.7936,0.7933 1.1813,1.728 1.1813,2.8388l0.0002 19.8709c0.0002,4.496 1.4987,8.2517 4.4961,11.2668 2.9975,2.9973 6.753,4.4961 11.2492,4.4961l0.247 -0.0001c1.6926,-0.0001 3.1032,-0.5466 4.214,-1.6221 1.1108,-1.0756 1.6574,-2.4685 1.6574,-4.1611 0.0001,-1.7105 -0.5466,-3.1033 -1.6574,-4.2141 -1.1107,-1.1109 -2.5213,-1.6574 -4.214,-1.6574l-0.2467 0c-1.146,-0.0002 -2.1158,-0.3879 -2.9092,-1.1814 -0.7758,-0.7758 -1.1637,-1.7455 -1.1637,-2.8916l0 -19.9064c0.0002,-4.4609 -1.5163,-8.1812 -4.5314,-11.1786 -3.0501,-2.9976 -6.7882,-4.4961 -11.2138,-4.4961l-0.001 0.0007z"/>
  <path class="fil0" d="M129.943 138.603c1.2873,1.3048 1.9395,2.8917 1.9395,4.7606 0.0002,1.8688 -0.6523,3.4559 -1.9394,4.7606 -1.3223,1.3223 -2.9269,1.9924 -4.7959,1.9924 -1.5338,0 -2.8916,0.5819 -4.0729,1.7279 -1.146,1.1461 -1.7279,2.5037 -1.7279,4.073l0 3.6673c0.0002,4.4784 1.4811,8.2341 4.4609,11.2491 2.98,2.9974 6.7178,4.4961 11.2139,4.4961 1.6927,-0.0001 3.0855,-0.5466 4.1964,-1.6221 1.1285,-1.0933 1.6926,-2.4861 1.6926,-4.1788 0.0001,-1.7456 -0.5642,-3.1561 -1.6926,-4.2316 -1.1107,-1.0932 -2.5213,-1.6398 -4.2669,-1.6398 -1.9922,-0.0001 -3.2618,-0.9522 -3.7732,-2.8564 3.7205,-1.2873 6.7178,-3.5264 8.9923,-6.7178 2.2569,-3.1738 3.3853,-6.753 3.3853,-10.7201 0.0001,-5.2015 -1.7632,-9.5565 -5.3072,-13.0652 -3.5261,-3.5089 -7.899,-5.272 -13.1004,-5.272 -5.2188,0 -9.574,1.7632 -13.0652,5.2719 -3.5086,3.5087 -5.2718,7.8638 -5.2718,13.0652l0.0001 26.1656c0.0002,1.6574 0.5465,3.0327 1.6574,4.1435 1.111,1.1108 2.4861,1.6574 4.1258,1.6574 1.7103,-0.0001 3.1032,-0.5466 4.214,-1.6222 1.1109,-1.0932 1.6574,-2.4861 1.6574,-4.1787l0.0002 -26.1657c0.0002,-1.8691 0.6347,-3.4559 1.9219,-4.7606 1.3049,-1.2872 2.8916,-1.9219 4.7606,-1.9219 1.8691,-0.0001 3.4735,0.6347 4.7951,1.9223z"/>
  <path class="fil0" d="M150.343 124.427c-1.9042,-0.0002 -3.5264,0.67 -4.884,1.9924 -1.3224,1.3576 -1.9924,2.9797 -1.9924,4.884 0.0001,1.9217 0.67,3.5439 1.9924,4.9016 1.3577,1.3222 2.9798,1.9747 4.8841,1.9747 1.9219,0 3.544,-0.6524 4.9016,-1.9747 1.3225,-1.3579 1.9748,-2.9798 1.9748,-4.9017 0.0001,-1.9043 -0.6524,-3.5264 -1.9747,-4.884 -1.3575,-1.3226 -2.9798,-1.9925 -4.9018,-1.9923z"/>
  <path class="fil0" d="M150.343 138.709c-1.6925,0 -3.0856,0.5466 -4.1611,1.6221 -1.0932,1.0931 -1.6397,2.4861 -1.6397,4.1788l0.0001 25.0194c0.0002,1.6925 0.5466,3.0856 1.6397,4.1788 1.0757,1.0755 2.4685,1.6221 4.1612,1.6221 1.6926,-0.0001 3.1032,-0.5466 4.214,-1.6222 1.1108,-1.0932 1.6574,-2.4861 1.6574,-4.1787l0.0001 -25.0198c0.0002,-1.7456 -0.5465,-3.1384 -1.6221,-4.214 -1.0931,-1.058 -2.5037,-1.5869 -4.2496,-1.5865z"/>
  <line class="fil1 str0" x1="146.658" y1="97.1153" x2="130.225" y2= "91.2791" />
  <path class="fil1 str0" d="M136.714 110.798c-15.3924,-24.9138 -26.148,-33.4123 -32.2662,-25.4957 -6.1535,7.9167 -11.7957,20.8761 -16.9266,38.8782"/>
  <path class="fil1 str0" d="M136.961 119.984c1.005,-2.5744 2.0276,-5.1309 3.0679,-7.6875 1.4636,-3.5971 3.6322,-6.6649 6.5238,-9.1862 3.3325,-2.927 7.2115,-4.1435 11.6018,-3.6498 4.32,0.5464 8.428,1.8513 12.2894,3.8966 3.9144,2.0981 7.3701,4.8135 10.3499,8.1635 2.8916,3.2794 5.5541,6.6825 7.9872,10.2088 2.5038,3.5969 4.7783,7.3348 6.8236,11.1962"/>
 </g>
</svg>
