<?xml version="1.0" encoding="utf-8"?>
<!-- Generator: Adobe Illustrator 15.0.0, SVG Export Plug-In . SVG Version: 6.00 Build 0)  -->
<!DOCTYPE svg PUBLIC "-//W3C//DTD SVG 1.1//EN" "http://www.w3.org/Graphics/SVG/1.1/DTD/svg11.dtd">
<svg version="1.1" id="Layer_1" xmlns="http://www.w3.org/2000/svg" xmlns:xlink="http://www.w3.org/1999/xlink" x="0px" y="0px"
	 width="612px" height="792px" viewBox="0 0 612 792" enable-background="new 0 0 612 792" xml:space="preserve">
<rect x="299.139" y="484" fill="#0F153E" width="295.189" height="227.996"/>
<rect x="20" y="233.69" fill="#0F153E" width="572" height="227.996"/>
<rect x="40" y="74.89" fill="#9E1F63" width="26.391" height="26.391"/>
<rect x="40" y="40" fill="#EC008C" width="26.391" height="26.391"/>
<rect x="40" y="109.779" fill="#007FAF" width="26.391" height="26.391"/>
<rect x="40" y="144.67" fill="#808285" width="26.391" height="26.391"/>
<rect x="40" y="179.56" fill="#EDDD53" width="26.391" height="26.391"/>
<rect x="40" y="300.89" fill="#9E1F63" width="26.391" height="26.391"/>
<rect x="40" y="266" fill="#EC008C" width="26.391" height="26.391"/>
<rect x="40" y="335.779" fill="#007FAF" width="26.391" height="26.391"/>
<rect x="40" y="370.67" fill="#808285" width="26.391" height="26.391"/>
<rect x="40" y="405.56" fill="#EDDD53" width="26.391" height="26.391"/>
<g>
	<path fill="#D90F7A" d="M206.828,111.167c-1.684,0.104-3.318,0.171-4.854,0.171c-2.167,0-4.217-0.057-6.151-0.167
		c-1.934-0.111-3.827-0.19-5.675-0.24c0.075-2.39,0.161-4.613,0.26-6.67c0.096-2.056,0.228-4.051,0.388-5.988
		c0.161-1.93,0.346-3.865,0.552-5.799c0.209-1.935,0.463-3.987,0.759-6.154c0.221-1.576,0.491-3.195,0.813-4.859
		c0.319-1.664,0.74-3.271,1.256-4.824c0.518-1.552,1.15-3.012,1.903-4.38c0.751-1.364,1.678-2.568,2.775-3.601
		c1.094-1.037,2.384-1.85,3.861-2.44c1.479-0.591,3.203-0.887,5.171-0.887c1.134,0,2.181,0.153,3.142,0.463
		c0.962,0.306,1.789,0.769,2.477,1.386c0.69,0.616,1.225,1.367,1.61,2.255c0.381,0.886,0.57,1.895,0.57,3.031
		c0,0.908-0.135,1.888-0.406,2.936c-0.272,1.046-0.688,2.176-1.258,3.384l0.148,0.442c0.642,0.395,1.308,0.683,1.995,0.869
		c0.692,0.185,1.357,0.278,1.995,0.278c0.887,0,1.728-0.167,2.516-0.499c0.787-0.335,1.489-0.827,2.105-1.478
		c0.616-0.653,1.104-1.45,1.46-2.384c0.355-0.936,0.539-2.008,0.539-3.216c0-1.527-0.361-2.989-1.073-4.381
		c-0.715-1.389-1.738-2.611-3.067-3.658c-1.332-1.047-2.938-1.884-4.822-2.511c-1.884-0.631-4-0.944-6.341-0.944
		c-1.623,0-3.287,0.192-4.986,0.574c-1.704,0.38-3.376,0.986-5.025,1.81c-1.654,0.826-3.26,1.88-4.823,3.163
		c-1.568,1.278-3.021,2.814-4.36,4.598c-1.346,1.789-2.547,3.833-3.605,6.135c-1.058,2.305-1.923,4.896-2.586,7.78
		c-0.519,2.22-0.954,4.363-1.313,6.432c-0.356,2.07-0.66,4.132-0.905,6.188c-0.247,2.059-0.442,4.139-0.591,6.248
		c-0.147,2.105-0.271,4.317-0.372,6.632c-1.749,0.074-3.336,0.234-4.765,0.481c-1.43,0.245-2.654,0.559-3.676,0.944
		c-1.023,0.38-1.813,0.83-2.366,1.347c-0.555,0.519-0.833,1.071-0.833,1.663c0,0.246,0.049,0.48,0.148,0.701
		c1.329-0.492,2.974-0.812,4.934-0.958c1.959-0.149,4.097-0.234,6.413-0.26c-0.05,7.416-0.143,14.504-0.279,21.269
		c-0.135,6.76-0.405,13.057-0.812,18.881c-0.406,5.828-0.994,11.117-1.755,15.873c-0.762,4.755-1.817,8.816-3.16,12.179
		c-1.343,3.362-3.006,5.962-4.991,7.796c-1.98,1.834-4.388,2.753-7.223,2.753c-1.083,0-2.156-0.135-3.218-0.406
		c-1.057-0.271-2.08-0.699-3.067-1.275c-0.983-0.581-1.909-1.318-2.771-2.22c-0.862-0.897-1.649-1.987-2.365-3.269
		c-0.762,0-1.471,0.143-2.123,0.427c-0.652,0.281-1.222,0.645-1.702,1.089c-0.477,0.442-0.855,0.955-1.126,1.532
		c-0.271,0.581-0.406,1.166-0.406,1.756c0,1.059,0.338,2.062,1.015,3.014c0.681,0.947,1.606,1.778,2.789,2.492
		c1.183,0.713,2.583,1.28,4.196,1.7c1.615,0.421,3.37,0.631,5.265,0.631c2.194,0,4.396-0.368,6.597-1.095
		c2.208-0.725,4.338-1.944,6.394-3.658c2.059-1.712,3.997-3.978,5.821-6.799c1.823-2.822,3.461-6.337,4.915-10.552
		c0.911-2.685,1.713-5.669,2.403-8.96c0.687-3.288,1.286-6.744,1.792-10.367c0.502-3.622,0.93-7.334,1.274-11.142
		c0.346-3.808,0.634-7.558,0.87-11.252c0.23-3.697,0.424-7.266,0.57-10.717c0.149-3.448,0.271-6.64,0.37-9.571
		c1.848,0.05,3.701,0.136,5.564,0.26c1.859,0.121,3.75,0.185,5.671,0.185c1.699,0,3.362-0.074,4.99-0.224
		c0.188-0.019,0.377-0.054,0.566-0.075V111.167z"/>
	<path fill="#007FAF" d="M341.083,164.451c1.44-1.436,3.772-1.436,5.21,0l1.462,1.464l1.19,1.189l5.398,5.4l5.208,5.208
		l-5.208,5.211l-5.398,5.4l-1.19,1.189l-1.462,1.46c-1.438,1.439-3.77,1.439-5.21,0c-1.439-1.439-1.439-3.769,0-5.208l1.462-1.464
		l1.188-1.189l5.4-5.4l-5.4-5.401l-1.188-1.189l-1.462-1.461C339.644,168.224,339.644,165.891,341.083,164.451z"/>
	<path fill="#007FAF" d="M227.659,190.974c-1.438,1.439-3.771,1.439-5.21,0l-1.46-1.46l-1.19-1.189l-5.399-5.4l-5.209-5.211
		l5.209-5.208l5.399-5.4l1.19-1.189l1.46-1.464c1.438-1.436,3.772-1.436,5.21,0c1.439,1.439,1.439,3.772,0,5.21l-1.461,1.461
		l-1.19,1.189l-5.399,5.401l5.399,5.4l1.19,1.189l1.461,1.464C229.098,187.205,229.098,189.535,227.659,190.974z"/>
	<g>
		<path fill="#EDDD53" d="M388.348,165.355c0-3.284-1.167-5.994-3.497-8.138c-2.33-2.145-5.768-3.217-10.314-3.217
			c-2.321,0-4.312,0.348-5.972,1.05c-1.66,0.699-3.01,1.732-4.046,3.092c-1.037,1.365-1.688,2.751-1.953,4.157
			c-0.264,1.411-0.396,3.335-0.396,5.774v1.586h10.245v-4.143c0-1.92,0.211-3.204,0.639-3.848c0.422-0.644,1.068-0.967,1.938-0.967
			c0.869,0,1.517,0.291,1.94,0.872c0.427,0.583,0.639,1.468,0.639,2.65c0,1.545-0.703,3.693-2.107,6.447
			c-1.406,2.754-5.835,9.924-13.286,21.512l-0.008,6.215h25.159v-7.426H374.79c6.414-9.023,10.277-14.925,11.589-17.704
			C387.688,170.484,388.348,167.849,388.348,165.355z"/>
		<path fill="#EDDD53" d="M414.772,158.307c-0.98-1.204-2.463-2.223-4.444-3.056c-1.98-0.833-4.229-1.25-6.736-1.25
			c-3.07,0-5.688,0.602-7.852,1.802c-2.16,1.204-3.603,2.799-4.33,4.791c-0.725,1.991-1.091,4.988-1.091,8.987v15.203
			c0,3.067,0.227,5.304,0.683,6.71c0.453,1.412,1.216,2.75,2.291,4.022c1.073,1.275,2.518,2.213,4.329,2.815
			c1.811,0.602,4.084,0.9,6.818,0.9c2.078,0,3.954-0.288,5.632-0.862c1.681-0.574,3.113-1.513,4.304-2.824
			c1.187-1.309,1.971-2.719,2.348-4.226c0.377-1.506,0.567-3.909,0.567-7.209V169.58c0-3.302-0.177-5.706-0.524-7.213
			C416.415,160.86,415.752,159.507,414.772,158.307z M405.855,187.497c0,2.137-0.131,3.509-0.395,4.118
			c-0.266,0.609-0.821,0.916-1.67,0.916c-0.85,0-1.403-0.261-1.653-0.781c-0.258-0.519-0.383-2.044-0.383-4.573v-21.258
			c0-2.24,0.137-3.672,0.41-4.288c0.271-0.621,0.833-0.929,1.685-0.929c0.866,0,1.42,0.291,1.652,0.872
			c0.238,0.583,0.354,2.034,0.354,4.345V187.497z"/>
		<path fill="#EDDD53" d="M418.246,161.808v5.079h1.13c2.643,0,4.346,0.176,5.11,0.528c0.764,0.349,1.23,0.866,1.401,1.546
			c0.168,0.68,0.252,2.708,0.252,6.08v23.356h11.435v-43.563h-6.735C427.971,158.354,423.772,160.678,418.246,161.808z"/>
		<path fill="#EDDD53" d="M464.268,173.267c1.312-2.782,1.967-5.417,1.967-7.912c0-3.284-1.163-5.994-3.493-8.138
			c-2.332-2.145-5.772-3.217-10.316-3.217c-2.318,0-4.311,0.348-5.97,1.05c-1.662,0.699-3.009,1.732-4.045,3.092
			c-1.042,1.365-1.692,2.751-1.956,4.157c-0.267,1.411-0.396,3.335-0.396,5.774v1.586h10.243v-4.143c0-1.92,0.215-3.204,0.637-3.848
			c0.429-0.644,1.073-0.967,1.943-0.967c0.868,0,1.517,0.291,1.939,0.872c0.424,0.583,0.639,1.468,0.639,2.65
			c0,1.545-0.701,3.693-2.109,6.447c-1.405,2.754-5.834,9.924-13.288,21.512l-0.004,6.215h25.157v-7.426h-12.539
			C459.092,181.948,462.954,176.045,464.268,173.267z"/>
	</g>
	<g>
		<path fill="#808285" d="M234.382,187.208v-28.365h24.5c3.643,0,6.198,0.339,7.667,1.019c1.344,0.623,2.301,1.663,2.868,3.117
			c0.498,1.288,0.748,2.964,0.748,5.029c0,2.993-0.604,5.126-1.808,6.399c-0.665,0.708-1.863,1.24-3.596,1.601
			c-0.388,0.097-1.225,0.235-2.514,0.417c0.721,0.041,1.191,0.068,1.414,0.082c1.995,0.125,3.262,0.34,3.801,0.644
			c1.594,0.803,2.362,2.66,2.308,5.57v4.488h-8.749v-3.532c0-1.539-0.361-2.564-1.08-3.077c-0.458-0.304-1.109-0.477-1.955-0.519
			c-0.277-0.027-0.852-0.042-1.724-0.042h-13.279v7.169H234.382z M242.984,173.099h13.508c2.119,0,3.512-0.242,4.176-0.727
			c0.542-0.388,0.811-1.219,0.811-2.494c0-0.803-0.042-1.461-0.125-1.974c-0.167-0.983-0.72-1.606-1.663-1.871
			c-0.526-0.151-1.489-0.229-2.888-0.229h-13.82V173.099z"/>
		<path fill="#808285" d="M275.606,164.163v-5.319h7.313v5.319H275.606z M275.606,187.208v-19.865h7.313v19.865H275.606z"/>
		<path fill="#808285" d="M301.432,166.886c3.476,0,6.295,0.187,8.457,0.561c1.634,0.291,2.942,0.908,3.927,1.849
			c0.887,0.845,1.427,2.072,1.621,3.679c0.111,0.831,0.166,2.084,0.166,3.761c0,2.73-0.125,4.662-0.374,5.798
			c-0.513,2.299-2.092,3.782-4.737,4.447c-1.814,0.458-4.994,0.686-9.538,0.686c-3.616,0-6.408-0.201-8.375-0.603
			c-1.607-0.317-2.881-1.039-3.823-2.161c-0.747-0.9-1.213-2.196-1.392-3.886c-0.07-0.762-0.104-2.008-0.104-3.74
			c0-2.715,0.172-4.627,0.52-5.735c0.692-2.216,2.515-3.596,5.466-4.136C295.1,167.059,297.83,166.886,301.432,166.886z
			 M301.265,172.268c-2.633,0-4.343,0.229-5.133,0.686c-0.637,0.359-1.067,0.934-1.289,1.724c-0.152,0.583-0.228,1.489-0.228,2.722
			c0,1.344,0.11,2.294,0.331,2.847c0.375,0.998,1.227,1.608,2.556,1.829c0.888,0.139,2.238,0.208,4.054,0.208
			c2.784,0,4.551-0.229,5.298-0.686c0.568-0.346,0.963-0.893,1.185-1.641c0.138-0.471,0.207-1.337,0.207-2.598
			c0-1.621-0.138-2.729-0.415-3.325c-0.43-0.9-1.377-1.441-2.846-1.622C304.18,172.317,302.941,172.268,301.265,172.268z"/>
	</g>
	<g>
		<path fill="#D90F7A" d="M234.422,135.432v-4.524h6.219v4.524H234.422z M234.422,155.025v-16.891h6.219v16.891H234.422z"/>
		<path fill="#D90F7A" d="M245.055,155.025v-16.891h6.062v3.921c0.225-0.837,0.459-1.46,0.707-1.874
			c0.6-0.976,1.609-1.656,3.022-2.031c1.002-0.27,2.36-0.408,4.081-0.408c2.429,0,4.318,0.324,5.673,0.972
			c1.046,0.496,1.872,1.25,2.472,2.262c0.626,1.062,0.938,2.75,0.938,5.072v8.976h-6.22v-8.713c0-1.435-0.318-2.407-0.955-2.914
			c-0.669-0.53-2.066-0.794-4.186-0.794c-2.332,0-3.858,0.453-4.577,1.36c-0.53,0.66-0.796,1.803-0.796,3.427v7.633H245.055z"/>
	</g>
	<linearGradient id="SVGID_1_" gradientUnits="userSpaceOnUse" x1="301.2256" y1="50.9331" x2="301.2256" y2="138.4744">
		<stop  offset="0" style="stop-color:#9E1F63"/>
		<stop  offset="1" style="stop-color:#EC008C"/>
	</linearGradient>
	<path fill="url(#SVGID_1_)" d="M394.794,131.352c-2.23,1.105-4.217,1.903-5.96,2.401c-1.744,0.496-3.323,0.748-4.737,0.748
		c-1.969,0-3.594-0.406-4.881-1.222c-1.282-0.811-2.293-1.984-3.024-3.519c-0.736-1.535-1.249-3.406-1.538-5.607
		c-0.288-2.205-0.431-4.706-0.431-7.509c0-1.497,0.024-3.252,0.079-5.272c0.053-2.019,0.14-4.21,0.255-6.568
		c0.118-2.362,0.274-4.873,0.473-7.533c0.195-2.662,0.438-5.397,0.729-8.2c2.541,0.181,4.88,0.377,7.022,0.587
		c2.133,0.214,4.066,0.318,5.798,0.318c1.81,0,3.191-0.172,4.151-0.514c0.956-0.338,1.435-1.086,1.435-2.239
		c0-0.319-0.041-0.656-0.119-1.022c-0.078-0.368-0.18-0.778-0.316-1.223c-1.517,0.289-3.474,0.435-5.856,0.435
		c-0.551,0-1.242,0-2.065,0c-0.824,0-1.746-0.015-2.753-0.04c-1.013-0.028-2.099-0.053-3.266-0.077
		c-1.165-0.029-2.365-0.067-3.597-0.118c0.521-5.168,1.156-10.405,1.903-15.716c0.751-5.311,1.673-10.454,2.774-15.438
		c-0.603-0.337-1.253-0.602-1.946-0.787c-0.696-0.182-1.475-0.274-2.338-0.274c-0.528,0-1.064,0.05-1.613,0.157
		c-0.554,0.107-1.065,0.288-1.536,0.548c-0.473,0.265-0.885,0.621-1.238,1.065c-0.355,0.446-0.597,1.012-0.728,1.692
		c-0.683,3.825-1.364,8.183-2.045,13.055c-0.684,4.881-1.324,10.06-1.93,15.538c-1.6,0.107-3.067,0.293-4.404,0.552
		c-1.337,0.263-2.485,0.588-3.439,0.983c-0.961,0.396-1.706,0.833-2.244,1.318c-0.538,0.484-0.808,1.001-0.808,1.553
		c0,0.209,0.04,0.392,0.12,0.552c1.257-0.318,2.773-0.545,4.541-0.688c1.771-0.146,3.69-0.231,5.763-0.257
		c-0.263,2.515-0.497,5.073-0.709,7.669c-0.21,2.593-0.379,5.189-0.508,7.791c-0.132,2.593-0.237,5.157-0.316,7.687
		c-0.079,2.532-0.116,4.991-0.116,7.376c0,2.263,0.09,4.305,0.256,6.149c-0.242,0.075-0.486,0.16-0.727,0.225
		c-0.981,0.253-1.924,0.377-2.834,0.377c-0.63,0-1.163-0.09-1.601-0.275c-0.438-0.181-0.786-0.523-1.049-1.021
		c-0.265-0.498-0.452-1.174-0.566-2.034c-0.11-0.855-0.167-1.966-0.167-3.331c0-0.788,0.028-1.709,0.09-2.768
		c0.061-1.062,0.135-2.177,0.223-3.345c0.086-1.171,0.187-2.365,0.304-3.583c0.112-1.214,0.213-2.364,0.301-3.451
		c0.087-1.084,0.16-2.066,0.223-2.95c0.061-0.883,0.092-1.588,0.092-2.112c0-1.802-0.211-3.333-0.63-4.605
		c-0.421-1.269-0.982-2.305-1.692-3.107c-0.708-0.809-1.518-1.392-2.427-1.759c-0.911-0.367-1.854-0.552-2.835-0.552
		c-1.415,0-2.902,0.428-4.459,1.286c-1.557,0.859-3.121,2.255-4.696,4.185c-1.575,1.931-3.123,4.453-4.644,7.555
		c-1.521,3.106-2.949,6.915-4.277,11.428l-0.157-0.026c0.157-1.524,0.306-3.048,0.445-4.58c0.141-1.529,0.268-3.01,0.38-4.446
		c0.116-1.435,0.216-2.785,0.303-4.053c0.088-1.268,0.161-2.394,0.223-3.37c0.06-0.983,0.11-1.792,0.145-2.429
		c0.037-0.638,0.051-1.045,0.051-1.222c0-1.468-0.283-2.505-0.853-3.107c-0.569-0.605-1.359-0.908-2.373-0.908
		c-0.42,0-0.996,0.072-1.73,0.21c-0.736,0.143-1.584,0.341-2.546,0.605c-0.27,0.071-0.564,0.161-0.85,0.242
		c0.031-0.836,0.066-1.674,0.066-2.507c0-5.444-0.799-10.778-2.391-15.994c-1.591-5.215-3.938-9.871-7.027-13.955
		c-3.096-4.087-6.914-7.375-11.458-9.872c-4.549-2.486-9.778-3.736-15.684-3.736c-5.262,0-10.134,0.855-14.611,2.564
		c-4.478,1.703-8.541,4.04-12.186,6.992c-3.646,2.957-6.864,6.403-9.658,10.352c-2.793,3.945-5.135,8.17-7.028,12.67
		c-1.308,3.105-2.378,6.289-3.243,9.535c-0.061-0.646-0.193-1.257-0.46-1.821c-0.345-0.728-0.81-1.357-1.401-1.888
		c-0.59-0.527-1.296-0.939-2.109-1.236c-0.811-0.295-1.688-0.445-2.621-0.445c-2.661,0-5.108,0.884-7.337,2.643
		c-2.23,1.764-4.274,4.182-6.134,7.264c-1.86,3.081-3.538,6.708-5.026,10.882c-1.491,4.179-2.829,8.681-4.01,13.507l-0.371-0.036
		c0.051-0.787,0.132-1.933,0.242-3.436c0.11-1.504,0.24-3.21,0.388-5.119c0.146-1.91,0.314-3.955,0.5-6.135
		c0.185-2.179,0.381-4.359,0.59-6.539c0.211-2.184,0.425-4.29,0.646-6.323c0.224-2.03,0.444-3.861,0.666-5.486
		c-3.529,0.844-6.747,1.411-9.668,1.717v3.465c0.07-0.018,0.139-0.029,0.207-0.046l0.186,0.11c-0.026,2.314-0.069,4.805-0.128,7.466
		c-0.064,2.66-0.132,5.407-0.204,8.239c-0.074,2.835-0.174,5.71-0.295,8.631c-0.124,2.92-0.246,5.777-0.369,8.573
		c-0.126,2.796-0.265,5.489-0.424,8.075c-0.161,2.586-0.328,4.986-0.5,7.206l0.591,0.036l7.723-0.958
		c0.145-1.602,0.399-3.58,0.758-5.935c0.356-2.352,0.823-4.862,1.404-7.538c0.578-2.671,1.268-5.42,2.069-8.242
		c0.802-2.821,1.7-5.51,2.697-8.075c0.998-2.562,2.102-4.895,3.309-7.003c1.208-2.104,2.511-3.8,3.917-5.08
		c0.863-0.791,1.81-1.393,2.843-1.813c1.036-0.416,2.109-0.626,3.218-0.626c1.037,0,2.015,0.193,2.938,0.574
		c0.923,0.381,1.902,1.004,2.938,1.866h0.296c0.784-0.598,1.407-1.264,1.874-1.994c-0.962,4.779-1.442,9.485-1.442,14.133
		c0,5.439,0.793,10.774,2.384,15.99c1.449,4.738,3.539,8.986,6.209,12.789h2.103c0.417-0.186,0.854-0.359,1.356-0.481
		c1.263-0.319,2.976-0.473,5.14-0.451c3.057,0.019,5.435,0.426,7.134,1.22c1.315,0.605,2.345,1.522,3.093,2.746
		c0.774,1.28,1.151,3.315,1.128,6.11l-0.039,4.771c2.507,0.568,5.163,0.859,7.979,0.859c5.266,0,10.133-0.855,14.611-2.564
		c4.478-1.707,8.539-4.039,12.186-6.996c3.647-2.958,6.864-6.405,9.659-10.347c2.79-3.954,5.146-8.169,7.065-12.674
		c1.914-4.499,3.353-9.154,4.323-13.949c0.605-2.989,0.998-5.941,1.226-8.873c0.412,0.008,0.786,0.057,1.093,0.171
		c0.331,0.12,0.607,0.328,0.827,0.615c0.219,0.29,0.381,0.677,0.484,1.166c0.106,0.492,0.156,1.097,0.156,1.813
		c0,0.787-0.01,1.864-0.038,3.227c-0.026,1.365-0.068,2.91-0.13,4.631c-0.062,1.724-0.13,3.576-0.211,5.563
		c-0.079,1.985-0.17,3.986-0.274,6.006c-0.105,2.023-0.22,4.012-0.342,5.97c-0.122,1.959-0.255,3.769-0.395,5.433l0.421,0.024
		l5.481-0.68c0.144-2.59,0.483-5.179,1.025-7.77c0.543-2.585,1.226-5.064,2.046-7.437c0.823-2.368,1.745-4.573,2.768-6.611
		c1.024-2.037,2.091-3.804,3.202-5.3c1.111-1.496,2.227-2.671,3.346-3.53c1.118-0.854,2.187-1.286,3.201-1.286
		c1.276,0,2.3,0.49,3.067,1.458c0.771,0.972,1.158,2.479,1.158,4.527c0,0.77-0.061,1.796-0.171,3.084
		c-0.117,1.282-0.243,2.714-0.382,4.289c-0.141,1.575-0.266,3.231-0.382,4.969c-0.114,1.742-0.171,3.435-0.171,5.081
		c0,1.347,0.039,2.604,0.118,3.779c0.079,1.168,0.255,2.193,0.526,3.066c0.271,0.877,0.678,1.568,1.219,2.074
		c0.541,0.509,1.286,0.762,2.23,0.762c0.804,0,1.73-0.139,2.781-0.41c1.05-0.271,2.104-0.624,3.163-1.062
		c1.019-0.421,1.988-0.887,2.916-1.39c0.112,0.801,0.241,1.556,0.394,2.265c0.591,2.779,1.417,4.992,2.477,6.626
		c1.062,1.642,2.321,2.782,3.776,3.427c1.455,0.637,3.062,0.961,4.818,0.961c1.336,0,2.753-0.171,4.249-0.513
		c1.492-0.342,3.038-0.827,4.64-1.456c1.601-0.627,3.225-1.382,4.879-2.259c1.649-0.879,3.288-1.856,4.914-2.932
		C395.908,132.928,395.502,132.061,394.794,131.352z M310.292,105.646c-0.301,3.231-0.821,6.498-1.558,9.792
		c-0.738,3.306-1.724,6.505-2.945,9.593c-1.222,3.093-2.768,5.842-4.637,8.239c-1.87,2.404-4.087,4.329-6.646,5.781
		c-2.563,1.457-5.529,2.183-8.901,2.183c-3.09,0-5.921-0.551-8.478-1.655c-2.564-1.111-4.874-2.632-6.926-4.577
		c-2.055-1.93-3.833-4.208-5.333-6.822c-1.501-2.607-2.759-5.415-3.774-8.407c-1.012-3.002-1.764-6.121-2.248-9.35
		c-0.486-3.226-0.729-6.411-0.729-9.56c0-2.667,0.147-5.636,0.455-8.894c0.296-3.249,0.815-6.518,1.549-9.796
		c0.745-3.281,1.725-6.461,2.946-9.556c1.227-3.092,2.772-5.844,4.642-8.233c1.869-2.407,4.084-4.325,6.648-5.752
		c2.559-1.432,5.527-2.145,8.896-2.145c3.091,0,5.92,0.552,8.482,1.657c2.562,1.111,4.869,2.625,6.926,4.537
		c2.051,1.914,3.832,4.179,5.332,6.783c1.496,2.611,2.754,5.408,3.769,8.381c1.018,2.978,1.769,6.074,2.251,9.275
		c0.483,3.217,0.73,6.408,0.73,9.593C310.744,99.437,310.592,102.415,310.292,105.646z"/>
	<path fill="#007FAF" d="M334.819,164.287l0.535-1.995c0.526-1.965-0.64-3.985-2.604-4.512c-1.963-0.528-3.986,0.641-4.512,2.603
		l-0.537,1.995l-0.434,1.629l-0.802,2.988l0,0l-6.109,22.519l-0.435,1.625l-0.533,1.998c-0.527,1.963,0.638,3.987,2.604,4.511
		c1.961,0.525,3.985-0.642,4.51-2.605l0.535-1.999l0.437-1.624l0.801-2.989h-0.001l6.108-22.519L334.819,164.287z"/>
</g>
<g>
	<path fill="#D90F7A" d="M206.828,335.881c-1.684,0.104-3.318,0.171-4.854,0.171c-2.167,0-4.217-0.057-6.151-0.167
		c-1.934-0.111-3.827-0.19-5.675-0.24c0.075-2.39,0.161-4.613,0.26-6.67c0.096-2.056,0.228-4.051,0.388-5.988
		c0.161-1.93,0.346-3.865,0.552-5.799c0.209-1.935,0.463-3.987,0.759-6.154c0.221-1.576,0.491-3.195,0.813-4.859
		c0.319-1.664,0.74-3.271,1.256-4.824c0.518-1.552,1.15-3.012,1.903-4.38c0.751-1.364,1.678-2.568,2.775-3.601
		c1.094-1.037,2.384-1.85,3.861-2.44c1.479-0.591,3.203-0.887,5.171-0.887c1.134,0,2.181,0.153,3.142,0.463
		c0.962,0.306,1.789,0.769,2.477,1.386c0.69,0.616,1.225,1.367,1.61,2.255c0.381,0.886,0.57,1.895,0.57,3.031
		c0,0.908-0.135,1.888-0.406,2.936c-0.272,1.046-0.688,2.176-1.258,3.384l0.148,0.442c0.642,0.395,1.308,0.683,1.995,0.869
		c0.692,0.185,1.357,0.278,1.995,0.278c0.887,0,1.728-0.167,2.516-0.499c0.787-0.335,1.489-0.827,2.105-1.478
		c0.616-0.653,1.104-1.45,1.46-2.384c0.355-0.936,0.538-2.008,0.538-3.216c0-1.527-0.36-2.989-1.072-4.381
		c-0.716-1.389-1.738-2.611-3.067-3.658c-1.332-1.047-2.938-1.884-4.822-2.511c-1.884-0.631-4-0.944-6.341-0.944
		c-1.623,0-3.287,0.192-4.986,0.574c-1.704,0.38-3.376,0.986-5.025,1.81c-1.654,0.826-3.26,1.88-4.823,3.163
		c-1.568,1.278-3.021,2.814-4.36,4.598c-1.346,1.789-2.547,3.833-3.605,6.135c-1.058,2.305-1.923,4.896-2.586,7.78
		c-0.519,2.22-0.954,4.363-1.313,6.432c-0.356,2.07-0.66,4.132-0.905,6.188c-0.247,2.059-0.442,4.139-0.591,6.248
		c-0.147,2.105-0.271,4.317-0.372,6.632c-1.749,0.074-3.336,0.234-4.765,0.481c-1.43,0.245-2.654,0.559-3.676,0.944
		c-1.023,0.38-1.813,0.83-2.366,1.347c-0.555,0.519-0.833,1.071-0.833,1.663c0,0.246,0.049,0.48,0.148,0.701
		c1.329-0.492,2.974-0.812,4.934-0.958c1.959-0.149,4.097-0.234,6.413-0.26c-0.05,7.416-0.143,14.504-0.279,21.269
		c-0.135,6.76-0.405,13.057-0.812,18.881c-0.406,5.828-0.994,11.117-1.755,15.873c-0.762,4.754-1.817,8.815-3.16,12.178
		c-1.343,3.363-3.006,5.963-4.991,7.797c-1.98,1.834-4.388,2.754-7.223,2.754c-1.083,0-2.156-0.135-3.218-0.406
		c-1.057-0.271-2.08-0.699-3.067-1.275c-0.983-0.58-1.909-1.318-2.771-2.22c-0.862-0.897-1.649-1.987-2.365-3.269
		c-0.762,0-1.471,0.143-2.123,0.427c-0.652,0.281-1.222,0.646-1.702,1.089c-0.477,0.442-0.855,0.955-1.126,1.532
		c-0.271,0.581-0.406,1.166-0.406,1.757c0,1.059,0.338,2.062,1.015,3.014c0.681,0.947,1.606,1.777,2.789,2.492
		c1.183,0.713,2.583,1.28,4.196,1.699c1.615,0.422,3.37,0.632,5.265,0.632c2.194,0,4.396-0.368,6.597-1.095
		c2.208-0.725,4.338-1.943,6.394-3.658c2.059-1.713,3.997-3.979,5.821-6.799c1.823-2.822,3.461-6.338,4.915-10.553
		c0.911-2.684,1.713-5.668,2.403-8.959c0.687-3.288,1.286-6.744,1.792-10.367c0.502-3.622,0.93-7.334,1.274-11.142
		c0.346-3.808,0.634-7.558,0.87-11.252c0.23-3.697,0.424-7.266,0.57-10.717c0.149-3.448,0.271-6.64,0.37-9.571
		c1.848,0.05,3.701,0.136,5.564,0.26c1.859,0.121,3.75,0.185,5.671,0.185c1.699,0,3.362-0.074,4.99-0.224
		c0.188-0.019,0.377-0.054,0.566-0.075V335.881z"/>
	<path fill="#007FAF" d="M341.084,389.165c1.439-1.436,3.771-1.436,5.209,0l1.463,1.464l1.189,1.189l5.398,5.399l5.209,5.209
		l-5.209,5.211l-5.398,5.399l-1.189,1.189l-1.463,1.46c-1.438,1.439-3.77,1.439-5.209,0c-1.439-1.438-1.439-3.769,0-5.207
		l1.461-1.464l1.189-1.189l5.4-5.399l-5.4-5.401l-1.189-1.189l-1.461-1.461C339.645,392.938,339.645,390.604,341.084,389.165z"/>
	<path fill="#007FAF" d="M227.659,415.687c-1.438,1.439-3.771,1.439-5.209,0l-1.46-1.46l-1.19-1.189l-5.399-5.399l-5.209-5.211
		l5.209-5.209l5.399-5.399l1.19-1.189l1.46-1.464c1.438-1.436,3.772-1.436,5.209,0c1.439,1.439,1.439,3.772,0,5.21l-1.461,1.461
		l-1.189,1.189l-5.399,5.401l5.399,5.399l1.189,1.189l1.461,1.464C229.098,411.918,229.098,414.248,227.659,415.687z"/>
	<g>
		<path fill="#EDDD53" d="M388.348,390.069c0-3.284-1.166-5.994-3.496-8.138c-2.33-2.145-5.768-3.217-10.314-3.217
			c-2.322,0-4.312,0.348-5.973,1.05c-1.66,0.699-3.01,1.732-4.045,3.092c-1.037,1.365-1.689,2.751-1.953,4.157
			c-0.264,1.411-0.396,3.335-0.396,5.774v1.586h10.246v-4.143c0-1.92,0.211-3.204,0.639-3.848c0.422-0.644,1.068-0.967,1.938-0.967
			s1.518,0.291,1.941,0.872c0.426,0.583,0.639,1.468,0.639,2.65c0,1.545-0.703,3.693-2.107,6.447
			c-1.406,2.754-5.836,9.924-13.287,21.512l-0.008,6.215h25.16v-7.426h-12.539c6.414-9.023,10.277-14.926,11.588-17.704
			C387.689,395.198,388.348,392.563,388.348,390.069z"/>
		<path fill="#EDDD53" d="M414.773,383.021c-0.98-1.204-2.463-2.223-4.445-3.056c-1.98-0.833-4.229-1.25-6.736-1.25
			c-3.07,0-5.688,0.602-7.852,1.802c-2.16,1.204-3.602,2.799-4.33,4.791c-0.725,1.991-1.09,4.988-1.09,8.987v15.202
			c0,3.067,0.227,5.304,0.682,6.71c0.453,1.412,1.217,2.751,2.291,4.022c1.074,1.275,2.518,2.213,4.33,2.815
			c1.811,0.602,4.084,0.899,6.818,0.899c2.078,0,3.953-0.288,5.631-0.862c1.682-0.573,3.113-1.513,4.305-2.823
			c1.186-1.309,1.971-2.719,2.348-4.226c0.377-1.506,0.566-3.91,0.566-7.209v-14.529c0-3.302-0.176-5.706-0.523-7.213
			C416.416,385.574,415.752,384.221,414.773,383.021z M405.855,412.21c0,2.138-0.131,3.51-0.395,4.118
			c-0.266,0.608-0.82,0.915-1.67,0.915s-1.402-0.26-1.652-0.78c-0.258-0.519-0.383-2.044-0.383-4.573v-21.258
			c0-2.24,0.137-3.672,0.41-4.288c0.271-0.621,0.832-0.929,1.684-0.929c0.867,0,1.42,0.291,1.652,0.872
			c0.238,0.583,0.354,2.034,0.354,4.345V412.21z"/>
		<path fill="#EDDD53" d="M418.246,386.522v5.079h1.131c2.643,0,4.346,0.176,5.109,0.528c0.764,0.349,1.23,0.866,1.402,1.546
			c0.168,0.68,0.252,2.708,0.252,6.08v23.356h11.434v-43.563h-6.734C427.971,383.067,423.773,385.392,418.246,386.522z"/>
		<path fill="#EDDD53" d="M464.268,397.98c1.312-2.782,1.967-5.417,1.967-7.912c0-3.284-1.162-5.994-3.492-8.138
			c-2.332-2.145-5.773-3.217-10.316-3.217c-2.318,0-4.311,0.348-5.971,1.05c-1.662,0.699-3.008,1.732-4.045,3.092
			c-1.041,1.365-1.691,2.751-1.955,4.157c-0.268,1.411-0.396,3.335-0.396,5.774v1.586h10.244v-4.143c0-1.92,0.215-3.204,0.637-3.848
			c0.428-0.644,1.072-0.967,1.943-0.967c0.867,0,1.516,0.291,1.939,0.872c0.424,0.583,0.639,1.468,0.639,2.65
			c0,1.545-0.701,3.693-2.109,6.447c-1.406,2.754-5.834,9.924-13.289,21.512l-0.004,6.215h25.158v-7.426h-12.539
			C459.092,406.661,462.955,400.759,464.268,397.98z"/>
	</g>
	<g>
		<path fill="#808285" d="M234.381,411.922v-28.364h24.5c3.643,0,6.199,0.339,7.668,1.019c1.344,0.623,2.301,1.663,2.868,3.117
			c0.498,1.288,0.748,2.964,0.748,5.029c0,2.993-0.604,5.126-1.808,6.399c-0.665,0.707-1.863,1.239-3.596,1.601
			c-0.389,0.097-1.225,0.235-2.514,0.416c0.721,0.041,1.191,0.068,1.414,0.082c1.994,0.125,3.262,0.34,3.801,0.645
			c1.594,0.803,2.362,2.66,2.308,5.57v4.487h-8.749v-3.532c0-1.538-0.36-2.563-1.08-3.076c-0.457-0.305-1.109-0.477-1.954-0.52
			c-0.276-0.027-0.852-0.041-1.724-0.041h-13.279v7.169H234.381z M242.985,397.812h13.508c2.119,0,3.512-0.242,4.176-0.728
			c0.541-0.388,0.811-1.218,0.811-2.494c0-0.803-0.041-1.461-0.125-1.974c-0.166-0.983-0.72-1.606-1.662-1.871
			c-0.526-0.151-1.489-0.229-2.888-0.229h-13.819V397.812z"/>
		<path fill="#808285" d="M275.606,388.876v-5.319h7.313v5.319H275.606z M275.606,411.922v-19.865h7.313v19.865H275.606z"/>
		<path fill="#808285" d="M301.432,391.6c3.476,0,6.296,0.187,8.457,0.561c1.635,0.291,2.943,0.908,3.928,1.849
			c0.887,0.845,1.426,2.072,1.621,3.679c0.111,0.83,0.166,2.084,0.166,3.76c0,2.73-0.125,4.662-0.375,5.799
			c-0.512,2.299-2.092,3.781-4.736,4.446c-1.814,0.458-4.995,0.687-9.539,0.687c-3.616,0-6.408-0.201-8.375-0.604
			c-1.607-0.317-2.881-1.039-3.823-2.16c-0.747-0.9-1.213-2.197-1.392-3.887c-0.07-0.762-0.104-2.008-0.104-3.74
			c0-2.715,0.172-4.627,0.52-5.735c0.692-2.216,2.515-3.596,5.466-4.136C295.1,391.772,297.83,391.6,301.432,391.6z
			 M301.265,396.982c-2.633,0-4.343,0.228-5.133,0.686c-0.637,0.359-1.067,0.934-1.289,1.724c-0.152,0.582-0.228,1.489-0.228,2.722
			c0,1.344,0.11,2.294,0.331,2.847c0.375,0.998,1.227,1.608,2.556,1.829c0.888,0.139,2.238,0.208,4.054,0.208
			c2.784,0,4.551-0.229,5.298-0.686c0.568-0.347,0.964-0.894,1.185-1.642c0.139-0.471,0.207-1.337,0.207-2.598
			c0-1.62-0.137-2.729-0.414-3.324c-0.43-0.9-1.378-1.441-2.847-1.622C304.18,397.03,302.941,396.982,301.265,396.982z"/>
	</g>
	<g>
		<path fill="#D90F7A" d="M234.422,360.146v-4.524h6.219v4.524H234.422z M234.422,379.739v-16.891h6.219v16.891H234.422z"/>
		<path fill="#D90F7A" d="M245.055,379.739v-16.891h6.062v3.921c0.226-0.837,0.46-1.46,0.706-1.874
			c0.601-0.976,1.609-1.656,3.022-2.031c1.002-0.27,2.36-0.408,4.081-0.408c2.428,0,4.317,0.324,5.672,0.972
			c1.047,0.496,1.872,1.25,2.473,2.262c0.626,1.062,0.938,2.75,0.938,5.072v8.976h-6.22v-8.713c0-1.435-0.317-2.407-0.955-2.914
			c-0.669-0.53-2.065-0.794-4.187-0.794c-2.331,0-3.857,0.453-4.576,1.36c-0.529,0.66-0.796,1.803-0.796,3.427v7.633H245.055z"/>
	</g>
	<linearGradient id="SVGID_2_" gradientUnits="userSpaceOnUse" x1="301.2256" y1="275.647" x2="301.2256" y2="363.1883">
		<stop  offset="0" style="stop-color:#9E1F63"/>
		<stop  offset="1" style="stop-color:#EC008C"/>
	</linearGradient>
	<path fill="url(#SVGID_2_)" d="M394.795,356.066c-2.23,1.105-4.217,1.903-5.961,2.401c-1.744,0.496-3.322,0.748-4.736,0.748
		c-1.969,0-3.594-0.406-4.881-1.222c-1.283-0.811-2.293-1.984-3.025-3.519c-0.736-1.535-1.248-3.406-1.537-5.607
		c-0.289-2.205-0.432-4.706-0.432-7.509c0-1.497,0.025-3.252,0.08-5.272c0.053-2.019,0.139-4.21,0.254-6.568
		c0.119-2.362,0.275-4.873,0.473-7.533c0.195-2.662,0.438-5.397,0.729-8.2c2.541,0.181,4.881,0.377,7.023,0.587
		c2.133,0.214,4.066,0.318,5.797,0.318c1.811,0,3.191-0.172,4.152-0.514c0.955-0.338,1.434-1.086,1.434-2.239
		c0-0.319-0.041-0.656-0.119-1.022c-0.078-0.368-0.18-0.778-0.316-1.223c-1.516,0.289-3.473,0.435-5.855,0.435
		c-0.551,0-1.242,0-2.066,0s-1.746-0.015-2.752-0.04c-1.014-0.028-2.1-0.053-3.266-0.077c-1.166-0.029-2.365-0.067-3.598-0.118
		c0.521-5.168,1.156-10.405,1.904-15.716c0.75-5.311,1.672-10.454,2.773-15.438c-0.602-0.337-1.252-0.602-1.945-0.787
		c-0.697-0.182-1.475-0.274-2.338-0.274c-0.529,0-1.064,0.05-1.613,0.157c-0.555,0.107-1.066,0.288-1.537,0.548
		c-0.473,0.265-0.885,0.621-1.238,1.065c-0.355,0.446-0.596,1.012-0.727,1.692c-0.684,3.825-1.365,8.183-2.045,13.055
		c-0.684,4.881-1.324,10.06-1.93,15.538c-1.6,0.107-3.068,0.293-4.404,0.552c-1.338,0.263-2.486,0.588-3.439,0.983
		c-0.961,0.396-1.707,0.833-2.244,1.318c-0.539,0.484-0.809,1.001-0.809,1.553c0,0.209,0.041,0.392,0.121,0.552
		c1.256-0.318,2.773-0.545,4.541-0.688c1.771-0.146,3.689-0.231,5.762-0.257c-0.262,2.515-0.496,5.073-0.709,7.669
		c-0.209,2.593-0.379,5.189-0.508,7.791c-0.131,2.593-0.236,5.157-0.316,7.687c-0.078,2.532-0.115,4.991-0.115,7.376
		c0,2.263,0.09,4.305,0.256,6.149c-0.242,0.075-0.486,0.16-0.727,0.225c-0.982,0.253-1.924,0.377-2.834,0.377
		c-0.631,0-1.164-0.09-1.602-0.275c-0.438-0.181-0.785-0.523-1.049-1.021c-0.264-0.498-0.451-1.174-0.566-2.034
		c-0.109-0.855-0.166-1.966-0.166-3.331c0-0.788,0.027-1.709,0.09-2.768c0.061-1.062,0.135-2.177,0.223-3.345
		c0.086-1.171,0.186-2.365,0.303-3.583c0.113-1.214,0.213-2.364,0.301-3.451c0.088-1.084,0.16-2.066,0.223-2.95
		c0.061-0.883,0.092-1.588,0.092-2.112c0-1.802-0.211-3.333-0.629-4.605c-0.422-1.269-0.982-2.305-1.693-3.107
		c-0.707-0.809-1.518-1.392-2.426-1.759c-0.912-0.367-1.855-0.552-2.836-0.552c-1.414,0-2.902,0.428-4.459,1.286
		c-1.557,0.859-3.121,2.255-4.695,4.185c-1.576,1.931-3.123,4.453-4.645,7.555c-1.521,3.106-2.949,6.915-4.277,11.428l-0.156-0.026
		c0.156-1.524,0.305-3.048,0.445-4.58c0.141-1.529,0.268-3.01,0.379-4.446c0.117-1.435,0.217-2.785,0.303-4.053
		c0.088-1.268,0.162-2.394,0.223-3.37c0.061-0.983,0.111-1.792,0.145-2.429c0.037-0.638,0.051-1.045,0.051-1.222
		c0-1.468-0.283-2.505-0.852-3.107c-0.57-0.605-1.359-0.908-2.373-0.908c-0.42,0-0.996,0.072-1.73,0.21
		c-0.736,0.143-1.584,0.341-2.547,0.605c-0.27,0.071-0.564,0.161-0.85,0.242c0.031-0.836,0.066-1.674,0.066-2.507
		c0-5.444-0.799-10.778-2.391-15.994c-1.59-5.215-3.938-9.871-7.027-13.955c-3.096-4.087-6.914-7.375-11.458-9.872
		c-4.549-2.486-9.778-3.736-15.684-3.736c-5.262,0-10.134,0.855-14.611,2.564c-4.478,1.703-8.541,4.04-12.186,6.992
		c-3.646,2.957-6.864,6.403-9.658,10.352c-2.793,3.945-5.135,8.17-7.028,12.67c-1.308,3.105-2.378,6.289-3.243,9.535
		c-0.061-0.646-0.192-1.257-0.46-1.821c-0.345-0.728-0.81-1.357-1.401-1.888c-0.59-0.527-1.297-0.939-2.109-1.236
		c-0.811-0.295-1.688-0.445-2.621-0.445c-2.66,0-5.107,0.884-7.337,2.643c-2.23,1.764-4.274,4.182-6.134,7.264
		c-1.86,3.081-3.538,6.708-5.027,10.882c-1.491,4.179-2.829,8.681-4.01,13.507l-0.371-0.036c0.051-0.787,0.132-1.933,0.242-3.436
		c0.11-1.504,0.24-3.21,0.388-5.119c0.146-1.91,0.314-3.955,0.5-6.135c0.185-2.179,0.381-4.359,0.59-6.539
		c0.211-2.184,0.425-4.29,0.646-6.323c0.224-2.03,0.444-3.861,0.666-5.486c-3.529,0.844-6.747,1.411-9.668,1.717v3.465
		c0.07-0.018,0.139-0.029,0.207-0.046l0.186,0.11c-0.026,2.314-0.069,4.805-0.128,7.466c-0.064,2.66-0.132,5.407-0.204,8.239
		c-0.074,2.835-0.174,5.71-0.295,8.631c-0.124,2.92-0.246,5.777-0.369,8.573c-0.126,2.796-0.265,5.489-0.424,8.075
		c-0.161,2.586-0.328,4.986-0.5,7.206l0.591,0.036l7.723-0.958c0.145-1.602,0.399-3.58,0.758-5.935
		c0.356-2.352,0.823-4.862,1.404-7.538c0.578-2.671,1.268-5.42,2.069-8.242c0.802-2.821,1.7-5.51,2.697-8.075
		c0.998-2.562,2.102-4.895,3.309-7.003c1.209-2.104,2.512-3.8,3.918-5.08c0.863-0.791,1.81-1.393,2.843-1.813
		c1.036-0.416,2.109-0.626,3.218-0.626c1.037,0,2.016,0.193,2.938,0.574c0.923,0.381,1.902,1.004,2.938,1.866h0.297
		c0.783-0.598,1.407-1.264,1.873-1.994c-0.961,4.779-1.441,9.485-1.441,14.133c0,5.439,0.793,10.774,2.384,15.99
		c1.448,4.738,3.539,8.986,6.21,12.789h2.103c0.417-0.186,0.854-0.359,1.356-0.481c1.263-0.319,2.977-0.473,5.141-0.451
		c3.057,0.019,5.435,0.426,7.133,1.22c1.315,0.605,2.346,1.522,3.094,2.746c0.774,1.28,1.151,3.315,1.128,6.11l-0.039,4.771
		c2.507,0.568,5.163,0.859,7.979,0.859c5.266,0,10.133-0.855,14.611-2.564c4.478-1.707,8.539-4.039,12.186-6.996
		c3.647-2.958,6.864-6.405,9.659-10.347c2.791-3.954,5.146-8.169,7.066-12.674c1.914-4.499,3.352-9.154,4.322-13.949
		c0.605-2.989,0.998-5.941,1.227-8.873c0.412,0.008,0.785,0.057,1.092,0.171c0.332,0.12,0.607,0.328,0.828,0.615
		c0.219,0.29,0.381,0.677,0.484,1.166c0.105,0.492,0.156,1.097,0.156,1.813c0,0.787-0.01,1.864-0.039,3.227
		c-0.025,1.365-0.068,2.91-0.129,4.631c-0.062,1.724-0.131,3.576-0.211,5.563c-0.08,1.985-0.17,3.986-0.275,6.006
		c-0.105,2.023-0.219,4.012-0.342,5.97c-0.121,1.959-0.254,3.769-0.395,5.433l0.422,0.024l5.48-0.68
		c0.145-2.59,0.484-5.179,1.025-7.77c0.543-2.585,1.227-5.064,2.047-7.437c0.822-2.368,1.744-4.573,2.768-6.611
		c1.023-2.037,2.09-3.804,3.201-5.3c1.111-1.496,2.227-2.671,3.346-3.53c1.119-0.854,2.188-1.286,3.201-1.286
		c1.277,0,2.301,0.49,3.068,1.458c0.77,0.972,1.158,2.479,1.158,4.527c0,0.77-0.061,1.796-0.172,3.084
		c-0.117,1.282-0.242,2.714-0.381,4.289c-0.141,1.575-0.266,3.231-0.383,4.969c-0.113,1.742-0.17,3.435-0.17,5.081
		c0,1.347,0.039,2.604,0.117,3.779c0.08,1.168,0.256,2.193,0.527,3.066c0.271,0.877,0.678,1.568,1.219,2.074
		c0.541,0.509,1.285,0.762,2.23,0.762c0.803,0,1.73-0.139,2.781-0.41c1.049-0.271,2.104-0.624,3.162-1.062
		c1.02-0.421,1.988-0.887,2.916-1.39c0.113,0.801,0.242,1.556,0.395,2.265c0.59,2.779,1.416,4.992,2.477,6.626
		c1.062,1.642,2.32,2.782,3.775,3.427c1.455,0.637,3.062,0.961,4.818,0.961c1.336,0,2.754-0.171,4.25-0.513
		c1.492-0.342,3.037-0.827,4.639-1.456c1.602-0.627,3.225-1.382,4.879-2.259c1.65-0.879,3.289-1.856,4.914-2.932
		C395.908,357.642,395.502,356.774,394.795,356.066z M310.293,330.359c-0.301,3.231-0.822,6.498-1.559,9.792
		c-0.738,3.306-1.723,6.505-2.945,9.593c-1.222,3.093-2.768,5.842-4.637,8.239c-1.87,2.404-4.087,4.329-6.646,5.781
		c-2.563,1.457-5.529,2.183-8.901,2.183c-3.09,0-5.921-0.551-8.478-1.655c-2.564-1.111-4.874-2.632-6.926-4.577
		c-2.055-1.93-3.832-4.208-5.332-6.822c-1.502-2.607-2.76-5.415-3.775-8.407c-1.012-3.002-1.764-6.121-2.248-9.35
		c-0.485-3.226-0.729-6.411-0.729-9.56c0-2.667,0.147-5.636,0.455-8.894c0.295-3.249,0.814-6.518,1.549-9.796
		c0.744-3.281,1.725-6.461,2.945-9.556c1.227-3.092,2.771-5.844,4.642-8.233c1.869-2.407,4.084-4.325,6.648-5.752
		c2.559-1.432,5.527-2.145,8.896-2.145c3.091,0,5.92,0.552,8.482,1.657c2.562,1.111,4.869,2.625,6.926,4.537
		c2.051,1.914,3.832,4.179,5.332,6.783c1.496,2.611,2.754,5.408,3.77,8.381c1.018,2.978,1.768,6.074,2.25,9.275
		c0.484,3.217,0.73,6.408,0.73,9.593C310.744,324.15,310.592,327.128,310.293,330.359z"/>
	<path fill="#007FAF" d="M334.82,389l0.535-1.995c0.525-1.965-0.641-3.985-2.604-4.512c-1.963-0.528-3.986,0.641-4.512,2.603
		l-0.537,1.995l-0.434,1.629l-0.803,2.988l0,0l-6.109,22.519l-0.434,1.624l-0.533,1.998c-0.527,1.963,0.637,3.986,2.604,4.511
		c1.961,0.525,3.986-0.642,4.51-2.604l0.535-1.999l0.438-1.624l0.801-2.988h-0.002l6.109-22.519L334.82,389z"/>
</g>
<g>
	<path fill="#0F153E" d="M68.607,589.608c-1.196,0.074-2.357,0.122-3.449,0.122c-1.54,0-2.996-0.04-4.37-0.119
		s-2.718-0.134-4.031-0.171c0.053-1.696,0.114-3.276,0.185-4.738c0.068-1.461,0.162-2.877,0.276-4.254
		c0.114-1.371,0.246-2.746,0.392-4.119c0.149-1.375,0.329-2.833,0.539-4.373c0.157-1.119,0.349-2.27,0.578-3.452
		c0.227-1.182,0.525-2.323,0.892-3.427c0.368-1.103,0.817-2.14,1.352-3.112c0.534-0.969,1.192-1.824,1.971-2.558
		c0.777-0.736,1.693-1.314,2.743-1.734c1.051-0.42,2.275-0.63,3.674-0.63c0.806,0,1.549,0.109,2.232,0.329
		c0.683,0.218,1.271,0.547,1.759,0.985c0.49,0.437,0.87,0.971,1.144,1.601c0.271,0.631,0.405,1.347,0.405,2.154
		c0,0.645-0.096,1.342-0.288,2.085c-0.193,0.743-0.489,1.546-0.894,2.404l0.105,0.314c0.456,0.28,0.929,0.484,1.417,0.616
		c0.492,0.131,0.964,0.198,1.417,0.198c0.63,0,1.228-0.12,1.787-0.354c0.559-0.238,1.058-0.588,1.495-1.05
		c0.437-0.465,0.784-1.031,1.038-1.694c0.252-0.665,0.381-1.427,0.381-2.285c0-1.085-0.255-2.123-0.762-3.112
		c-0.508-0.987-1.234-1.855-2.179-2.599c-0.946-0.744-2.087-1.339-3.426-1.783c-1.339-0.449-2.842-0.672-4.505-0.672
		c-1.153,0-2.335,0.138-3.542,0.408c-1.21,0.271-2.399,0.7-3.57,1.286c-1.175,0.586-2.316,1.335-3.426,2.246
		c-1.114,0.908-2.146,2-3.098,3.267c-0.956,1.271-1.81,2.723-2.561,4.358c-0.751,1.637-1.366,3.479-1.838,5.526
		c-0.368,1.578-0.677,3.1-0.933,4.57c-0.253,1.47-0.468,2.935-0.643,4.396c-0.175,1.463-0.314,2.94-0.42,4.438
		c-0.104,1.496-0.193,3.067-0.264,4.712c-1.242,0.052-2.37,0.166-3.385,0.342c-1.016,0.174-1.886,0.397-2.611,0.671
		c-0.727,0.27-1.288,0.59-1.681,0.956c-0.395,0.369-0.591,0.762-0.591,1.182c0,0.175,0.035,0.342,0.105,0.498
		c0.944-0.35,2.113-0.576,3.505-0.681c1.392-0.105,2.911-0.166,4.556-0.185c-0.036,5.269-0.102,10.305-0.198,15.11
		c-0.096,4.803-0.288,9.276-0.577,13.414c-0.289,4.141-0.707,7.897-1.247,11.276c-0.542,3.377-1.291,6.263-2.245,8.651
		c-0.954,2.39-2.136,4.236-3.546,5.539c-1.407,1.303-3.117,1.956-5.131,1.956c-0.77,0-1.532-0.096-2.286-0.288
		c-0.751-0.193-1.477-0.497-2.179-0.906c-0.698-0.412-1.356-0.937-1.968-1.577c-0.612-0.638-1.171-1.411-1.68-2.322
		c-0.542,0-1.045,0.102-1.508,0.304c-0.463,0.199-0.868,0.458-1.209,0.773c-0.339,0.314-0.608,0.679-0.8,1.089
		c-0.192,0.412-0.288,0.828-0.288,1.248c0,0.752,0.24,1.464,0.721,2.141c0.484,0.673,1.142,1.263,1.981,1.771
		c0.84,0.507,1.835,0.909,2.981,1.207c1.147,0.3,2.394,0.449,3.74,0.449c1.559,0,3.123-0.262,4.687-0.778
		c1.568-0.515,3.082-1.38,4.542-2.599c1.462-1.217,2.839-2.826,4.136-4.83c1.295-2.005,2.458-4.502,3.492-7.497
		c0.647-1.906,1.217-4.027,1.708-6.365c0.488-2.335,0.914-4.79,1.273-7.364c0.357-2.573,0.66-5.21,0.905-7.915
		c0.246-2.705,0.451-5.37,0.618-7.993c0.164-2.627,0.301-5.162,0.405-7.614c0.106-2.45,0.192-4.718,0.263-6.8
		c1.313,0.035,2.629,0.096,3.953,0.185c1.321,0.086,2.664,0.131,4.028,0.131c1.207,0,2.389-0.053,3.545-0.159
		c0.134-0.013,0.268-0.038,0.402-0.053V589.608z"/>
	<path fill="#0F153E" d="M163.986,627.463c1.022-1.021,2.679-1.021,3.701,0l1.039,1.04l0.845,0.845l3.835,3.836l3.701,3.701
		l-3.701,3.702l-3.835,3.836l-0.845,0.845l-1.039,1.037c-1.021,1.022-2.678,1.022-3.701,0s-1.022-2.678,0-3.699l1.038-1.04
		l0.845-0.845l3.837-3.836l-3.837-3.838l-0.845-0.845l-1.038-1.038C162.963,630.144,162.963,628.485,163.986,627.463z"/>
	<path fill="#0F153E" d="M83.406,646.305c-1.021,1.022-2.679,1.022-3.701,0l-1.038-1.037l-0.846-0.845l-3.836-3.836l-3.701-3.702
		l3.701-3.701l3.836-3.836l0.846-0.845l1.038-1.04c1.021-1.021,2.679-1.021,3.701,0c1.022,1.022,1.022,2.681,0,3.701l-1.038,1.038
		l-0.845,0.845l-3.835,3.838l3.835,3.836l0.845,0.845l1.038,1.04C84.428,643.627,84.428,645.282,83.406,646.305z"/>
	<g>
		<path fill="#0F153E" d="M197.563,628.104c0-2.332-0.828-4.258-2.484-5.781c-1.655-1.523-4.097-2.285-7.327-2.285
			c-1.65,0-3.064,0.248-4.243,0.746c-1.18,0.497-2.138,1.23-2.874,2.196c-0.737,0.97-1.201,1.955-1.388,2.953
			c-0.188,1.003-0.282,2.37-0.282,4.103v1.127h7.279v-2.943c0-1.364,0.15-2.276,0.454-2.733c0.299-0.458,0.759-0.688,1.376-0.688
			c0.617,0,1.078,0.207,1.379,0.62c0.303,0.414,0.454,1.042,0.454,1.883c0,1.098-0.5,2.623-1.498,4.579
			c-0.999,1.957-4.146,7.05-9.439,15.282l-0.005,4.416h17.875v-5.276h-8.908c4.557-6.41,7.301-10.604,8.232-12.577
			C197.095,631.749,197.563,629.877,197.563,628.104z"/>
		<path fill="#0F153E" d="M216.336,623.098c-0.696-0.855-1.75-1.579-3.158-2.171c-1.407-0.592-3.004-0.889-4.786-0.889
			c-2.181,0-4.04,0.429-5.578,1.28c-1.535,0.856-2.559,1.989-3.076,3.403c-0.515,1.416-0.774,3.544-0.774,6.385v10.801
			c0,2.179,0.161,3.768,0.484,4.767c0.322,1.003,0.864,1.954,1.627,2.857c0.763,0.906,1.789,1.572,3.076,2
			c1.287,0.428,2.901,0.64,4.844,0.64c1.476,0,2.808-0.205,4-0.613c1.195-0.407,2.212-1.074,3.058-2.006
			c0.842-0.93,1.4-1.931,1.668-3.002c0.268-1.069,0.402-2.777,0.402-5.121v-10.322c0-2.346-0.125-4.054-0.372-5.124
			C217.503,624.912,217.032,623.95,216.336,623.098z M210.001,643.835c0,1.519-0.093,2.493-0.28,2.926
			c-0.188,0.432-0.583,0.649-1.187,0.649s-0.996-0.185-1.174-0.554c-0.183-0.369-0.272-1.452-0.272-3.249v-15.103
			c0-1.591,0.097-2.608,0.292-3.046c0.193-0.44,0.591-0.66,1.196-0.66c0.616,0,1.009,0.207,1.174,0.62
			c0.169,0.414,0.251,1.444,0.251,3.086V643.835z"/>
		<path fill="#0F153E" d="M218.804,625.585v3.608h0.803c1.877,0,3.087,0.125,3.63,0.375c0.542,0.247,0.874,0.615,0.996,1.098
			c0.12,0.483,0.179,1.924,0.179,4.319v16.594h8.123V620.63h-4.784C225.712,623.131,222.73,624.783,218.804,625.585z"/>
		<path fill="#0F153E" d="M251.498,633.726c0.933-1.977,1.397-3.849,1.397-5.621c0-2.332-0.826-4.258-2.481-5.781
			c-1.657-1.523-4.102-2.285-7.329-2.285c-1.647,0-3.062,0.248-4.242,0.746c-1.181,0.497-2.137,1.23-2.874,2.196
			c-0.74,0.97-1.202,1.955-1.389,2.953c-0.19,1.003-0.282,2.37-0.282,4.103v1.127h7.277v-2.943c0-1.364,0.153-2.276,0.453-2.733
			c0.304-0.458,0.762-0.688,1.38-0.688c0.616,0,1.077,0.207,1.378,0.62c0.301,0.414,0.454,1.042,0.454,1.883
			c0,1.098-0.498,2.623-1.499,4.579c-0.999,1.957-4.145,7.05-9.441,15.282l-0.002,4.416h17.873v-5.276h-8.908
			C247.821,639.893,250.566,635.699,251.498,633.726z"/>
	</g>
	<g>
		<path fill="#0F153E" d="M88.182,643.63v-20.15h17.405c2.588,0,4.404,0.24,5.448,0.724c0.955,0.442,1.634,1.181,2.038,2.215
			c0.354,0.914,0.531,2.105,0.531,3.572c0,2.126-0.429,3.642-1.285,4.546c-0.472,0.502-1.324,0.881-2.555,1.137
			c-0.276,0.069-0.87,0.168-1.786,0.296c0.512,0.029,0.847,0.049,1.005,0.059c1.417,0.089,2.317,0.241,2.7,0.458
			c1.132,0.57,1.679,1.89,1.64,3.957v3.188h-6.216v-2.509c0-1.093-0.255-1.821-0.768-2.186c-0.325-0.217-0.788-0.339-1.388-0.369
			c-0.197-0.02-0.605-0.029-1.225-0.029h-9.434v5.093H88.182z M94.294,633.606h9.596c1.505,0,2.495-0.172,2.966-0.517
			c0.384-0.275,0.576-0.865,0.576-1.771c0-0.57-0.029-1.038-0.089-1.402c-0.118-0.698-0.511-1.141-1.181-1.329
			c-0.373-0.107-1.057-0.162-2.051-0.162h-9.818V633.606z"/>
		<path fill="#0F153E" d="M117.468,627.259v-3.779h5.197v3.779H117.468z M117.468,643.63v-14.112h5.197v14.112H117.468z"/>
		<path fill="#0F153E" d="M135.816,629.192c2.47,0,4.474,0.133,6.008,0.398c1.161,0.207,2.091,0.646,2.79,1.314
			c0.63,0.601,1.013,1.472,1.152,2.613c0.079,0.59,0.118,1.48,0.118,2.671c0,1.939-0.088,3.312-0.266,4.119
			c-0.364,1.634-1.486,2.687-3.365,3.159c-1.289,0.325-3.548,0.487-6.777,0.487c-2.568,0-4.553-0.143-5.95-0.429
			c-1.142-0.226-2.047-0.738-2.715-1.534c-0.532-0.64-0.862-1.562-0.99-2.762c-0.05-0.541-0.073-1.426-0.073-2.657
			c0-1.928,0.122-3.287,0.369-4.074c0.491-1.574,1.786-2.555,3.882-2.938C131.317,629.315,133.257,629.192,135.816,629.192z
			 M135.698,633.017c-1.871,0-3.086,0.162-3.646,0.487c-0.453,0.255-0.759,0.663-0.916,1.225c-0.108,0.413-0.162,1.058-0.162,1.934
			c0,0.954,0.079,1.63,0.236,2.022c0.266,0.709,0.871,1.143,1.815,1.299c0.631,0.099,1.59,0.148,2.88,0.148
			c1.977,0,3.233-0.163,3.763-0.487c0.404-0.246,0.685-0.635,0.842-1.166c0.098-0.335,0.147-0.95,0.147-1.846
			c0-1.151-0.097-1.938-0.294-2.361c-0.305-0.64-0.979-1.024-2.023-1.152C137.768,633.051,136.889,633.017,135.698,633.017z"/>
	</g>
	<g>
		<path fill="#0F153E" d="M88.211,606.847v-3.214h4.418v3.214H88.211z M88.211,620.767v-11.999h4.418v11.999H88.211z"/>
		<path fill="#0F153E" d="M95.765,620.767v-11.999h4.307v2.785c0.16-0.594,0.326-1.037,0.501-1.331
			c0.427-0.692,1.144-1.176,2.148-1.442c0.712-0.191,1.676-0.29,2.898-0.29c1.725,0,3.068,0.23,4.03,0.69
			c0.744,0.353,1.331,0.889,1.756,1.607c0.445,0.753,0.666,1.953,0.666,3.604v6.376h-4.418v-6.189c0-1.02-0.226-1.71-0.678-2.069
			c-0.476-0.377-1.468-0.565-2.975-0.565c-1.655,0-2.74,0.322-3.251,0.967c-0.376,0.469-0.564,1.281-0.564,2.435v5.423H95.765z"/>
	</g>
	<path fill="#0F153E" d="M202.144,603.949c-1.585,0.785-2.996,1.352-4.235,1.705c-1.239,0.353-2.36,0.531-3.365,0.531
		c-1.399,0-2.553-0.288-3.468-0.867c-0.912-0.577-1.629-1.409-2.149-2.5c-0.523-1.091-0.886-2.42-1.092-3.983
		c-0.206-1.566-0.307-3.343-0.307-5.334c0-1.063,0.018-2.311,0.057-3.746c0.037-1.434,0.098-2.99,0.18-4.665
		c0.084-1.679,0.196-3.462,0.336-5.352c0.139-1.892,0.311-3.835,0.518-5.827c1.805,0.13,3.467,0.269,4.989,0.418
		c1.515,0.152,2.889,0.227,4.118,0.227c1.287,0,2.268-0.123,2.95-0.366c0.678-0.24,1.019-0.771,1.019-1.591
		c0-0.226-0.029-0.466-0.085-0.727c-0.055-0.261-0.127-0.553-0.225-0.868c-1.077,0.205-2.467,0.309-4.16,0.309
		c-0.392,0-0.883,0-1.468,0s-1.24-0.01-1.955-0.027c-0.72-0.021-1.492-0.038-2.32-0.056c-0.829-0.021-1.68-0.047-2.556-0.083
		c0.371-3.673,0.822-7.394,1.353-11.166c0.533-3.772,1.188-7.426,1.97-10.967c-0.427-0.24-0.889-0.429-1.382-0.56
		c-0.495-0.129-1.048-0.194-1.661-0.194c-0.376,0-0.756,0.035-1.146,0.111c-0.394,0.076-0.757,0.205-1.092,0.39
		c-0.336,0.188-0.628,0.44-0.88,0.757c-0.252,0.315-0.423,0.719-0.516,1.201c-0.485,2.718-0.97,5.813-1.453,9.274
		c-0.486,3.468-0.941,7.147-1.371,11.039c-1.136,0.075-2.18,0.208-3.129,0.392c-0.95,0.188-1.766,0.418-2.443,0.699
		c-0.683,0.281-1.213,0.592-1.594,0.937c-0.383,0.344-0.575,0.711-0.575,1.104c0,0.148,0.029,0.277,0.086,0.393
		c0.892-0.227,1.97-0.388,3.226-0.49c1.258-0.103,2.621-0.164,4.093-0.182c-0.186,1.786-0.353,3.604-0.504,5.448
		c-0.148,1.842-0.269,3.687-0.361,5.534c-0.093,1.843-0.168,3.664-0.225,5.461c-0.056,1.799-0.082,3.546-0.082,5.24
		c0,1.607,0.064,3.058,0.182,4.368c-0.172,0.054-0.345,0.114-0.516,0.159c-0.698,0.18-1.367,0.269-2.013,0.269
		c-0.448,0-0.827-0.064-1.138-0.195c-0.311-0.128-0.558-0.372-0.745-0.726c-0.188-0.354-0.321-0.834-0.402-1.444
		c-0.078-0.607-0.118-1.397-0.118-2.366c0-0.561,0.02-1.215,0.064-1.967c0.043-0.754,0.096-1.546,0.158-2.376
		c0.061-0.832,0.132-1.681,0.215-2.546c0.081-0.862,0.151-1.68,0.214-2.452c0.062-0.77,0.114-1.468,0.158-2.095
		c0.043-0.628,0.065-1.129,0.065-1.502c0-1.279-0.15-2.367-0.447-3.271c-0.299-0.901-0.698-1.638-1.203-2.207
		c-0.502-0.574-1.078-0.989-1.724-1.25c-0.648-0.261-1.318-0.393-2.015-0.393c-1.004,0-2.062,0.304-3.167,0.914
		c-1.106,0.609-2.217,1.602-3.336,2.973c-1.12,1.372-2.219,3.163-3.299,5.367c-1.081,2.207-2.095,4.912-3.039,8.119l-0.111-0.02
		c0.111-1.082,0.216-2.165,0.316-3.253c0.1-1.086,0.19-2.139,0.269-3.159c0.083-1.019,0.154-1.979,0.215-2.879
		c0.062-0.9,0.115-1.7,0.158-2.394c0.043-0.699,0.079-1.273,0.103-1.726c0.026-0.454,0.036-0.743,0.036-0.868
		c0-1.043-0.201-1.779-0.605-2.207c-0.405-0.43-0.966-0.646-1.686-0.646c-0.298,0-0.708,0.051-1.229,0.149
		c-0.523,0.102-1.125,0.242-1.809,0.43c-0.191,0.051-0.401,0.115-0.604,0.172c0.022-0.594,0.047-1.189,0.047-1.78
		c0-3.868-0.567-7.658-1.698-11.362c-1.129-3.706-2.797-7.013-4.992-9.914c-2.199-2.904-4.912-5.239-8.141-7.013
		c-3.232-1.767-6.946-2.654-11.142-2.654c-3.738,0-7.199,0.606-10.38,1.821c-3.18,1.21-6.068,2.87-8.657,4.968
		c-2.589,2.101-4.876,4.549-6.861,7.354c-1.984,2.803-3.648,5.804-4.993,9.001c-0.93,2.206-1.69,4.468-2.305,6.773
		c-0.043-0.458-0.136-0.892-0.326-1.293c-0.246-0.517-0.576-0.965-0.996-1.342c-0.419-0.374-0.921-0.667-1.499-0.878
		c-0.576-0.209-1.199-0.316-1.862-0.316c-1.89,0-3.628,0.628-5.212,1.878c-1.584,1.253-3.037,2.971-4.358,5.16
		c-1.321,2.188-2.513,4.766-3.571,7.73c-1.059,2.97-2.009,6.167-2.849,9.596l-0.264-0.025c0.036-0.56,0.094-1.374,0.172-2.441
		c0.079-1.068,0.17-2.281,0.276-3.637c0.104-1.356,0.223-2.81,0.355-4.358c0.131-1.548,0.271-3.097,0.419-4.646
		c0.149-1.551,0.302-3.047,0.458-4.491c0.159-1.443,0.316-2.743,0.473-3.897c-2.507,0.6-4.793,1.003-6.869,1.22v2.462
		c0.05-0.013,0.099-0.021,0.147-0.032l0.132,0.078c-0.018,1.645-0.049,3.413-0.091,5.304c-0.045,1.89-0.093,3.842-0.145,5.854
		c-0.053,2.015-0.123,4.057-0.209,6.133c-0.088,2.074-0.175,4.104-0.262,6.09c-0.09,1.986-0.188,3.899-0.302,5.736
		c-0.114,1.838-0.233,3.542-0.355,5.119l0.42,0.026l5.487-0.681c0.103-1.139,0.283-2.544,0.539-4.217
		c0.253-1.671,0.585-3.454,0.997-5.354c0.411-1.897,0.901-3.851,1.47-5.855c0.57-2.004,1.208-3.914,1.916-5.736
		c0.708-1.82,1.493-3.478,2.35-4.976c0.859-1.495,1.785-2.7,2.784-3.609c0.613-0.562,1.286-0.989,2.02-1.287
		c0.735-0.296,1.499-0.445,2.285-0.445c0.737,0,1.432,0.137,2.087,0.407c0.656,0.271,1.352,0.714,2.087,1.325h0.211
		c0.557-0.425,1-0.897,1.331-1.416c-0.683,3.396-1.024,6.739-1.024,10.041c0,3.864,0.563,7.654,1.694,11.359
		c1.028,3.366,2.514,6.384,4.411,9.085h1.495c0.295-0.132,0.606-0.255,0.963-0.342c0.898-0.227,2.115-0.336,3.652-0.32
		c2.172,0.014,3.862,0.304,5.067,0.867c0.936,0.431,1.667,1.082,2.198,1.951c0.551,0.909,0.818,2.355,0.802,4.341l-0.028,3.389
		c1.78,0.404,3.667,0.611,5.668,0.611c3.741,0,7.199-0.608,10.38-1.822c3.18-1.213,6.066-2.869,8.657-4.97
		c2.591-2.102,4.876-4.55,6.862-7.352c1.982-2.809,3.656-5.803,5.02-9.004c1.36-3.196,2.381-6.503,3.071-9.91
		c0.43-2.123,0.709-4.221,0.871-6.303c0.293,0.006,0.558,0.04,0.776,0.121c0.236,0.086,0.431,0.233,0.588,0.438
		c0.156,0.205,0.271,0.48,0.344,0.828c0.075,0.35,0.111,0.778,0.111,1.288c0,0.56-0.007,1.323-0.028,2.292
		c-0.018,0.97-0.049,2.067-0.092,3.29c-0.044,1.226-0.093,2.54-0.15,3.952c-0.057,1.41-0.121,2.831-0.195,4.267
		c-0.075,1.438-0.156,2.851-0.243,4.241c-0.086,1.392-0.18,2.678-0.28,3.86l0.3,0.017l3.894-0.482
		c0.103-1.841,0.344-3.681,0.729-5.521c0.386-1.837,0.871-3.598,1.454-5.283c0.584-1.682,1.239-3.248,1.966-4.696
		c0.728-1.446,1.485-2.702,2.274-3.766c0.79-1.062,1.582-1.897,2.377-2.508c0.795-0.606,1.554-0.913,2.274-0.913
		c0.908,0,1.635,0.348,2.18,1.035c0.546,0.69,0.823,1.761,0.823,3.216c0,0.547-0.043,1.276-0.122,2.191
		c-0.083,0.91-0.172,1.929-0.271,3.047c-0.1,1.118-0.189,2.295-0.272,3.529c-0.081,1.237-0.121,2.439-0.121,3.609
		c0,0.957,0.028,1.851,0.083,2.685c0.057,0.83,0.182,1.559,0.375,2.179c0.193,0.623,0.481,1.113,0.866,1.474
		s0.913,0.541,1.585,0.541c0.57,0,1.229-0.099,1.976-0.291c0.745-0.191,1.495-0.442,2.247-0.754c0.724-0.3,1.413-0.63,2.071-0.987
		c0.081,0.569,0.172,1.105,0.28,1.609c0.419,1.975,1.006,3.547,1.76,4.707c0.755,1.166,1.648,1.977,2.682,2.435
		c1.034,0.452,2.175,0.683,3.423,0.683c0.949,0,1.957-0.121,3.02-0.364c1.06-0.243,2.158-0.588,3.295-1.034
		c1.138-0.445,2.291-0.981,3.466-1.604c1.172-0.626,2.337-1.319,3.491-2.084C202.934,605.068,202.646,604.452,202.144,603.949z
		 M142.111,585.687c-0.214,2.295-0.584,4.616-1.107,6.955c-0.524,2.35-1.224,4.622-2.092,6.816
		c-0.867,2.197-1.966,4.149-3.294,5.853c-1.328,1.708-2.903,3.074-4.722,4.106c-1.821,1.035-3.928,1.552-6.323,1.552
		c-2.195,0-4.207-0.392-6.023-1.177c-1.822-0.789-3.462-1.87-4.92-3.251c-1.46-1.372-2.723-2.989-3.788-4.847
		c-1.067-1.853-1.961-3.847-2.682-5.973c-0.719-2.134-1.253-4.349-1.597-6.643c-0.344-2.291-0.518-4.555-0.518-6.791
		c0-1.896,0.105-4.004,0.323-6.318c0.209-2.309,0.579-4.631,1.101-6.96c0.528-2.331,1.225-4.591,2.092-6.788
		c0.871-2.196,1.969-4.151,3.298-5.85c1.328-1.71,2.901-3.072,4.723-4.087c1.817-1.017,3.927-1.523,6.32-1.523
		c2.195,0,4.206,0.393,6.026,1.178c1.819,0.789,3.459,1.864,4.92,3.223c1.457,1.359,2.722,2.969,3.788,4.818
		c1.063,1.855,1.957,3.843,2.678,5.955c0.723,2.115,1.256,4.314,1.599,6.589c0.344,2.286,0.519,4.553,0.519,6.815
		C142.432,581.275,142.324,583.392,142.111,585.687z"/>
	<path fill="#0F153E" d="M159.536,627.346l0.38-1.417c0.374-1.396-0.455-2.831-1.85-3.205c-1.394-0.375-2.832,0.455-3.205,1.849
		l-0.381,1.417l-0.308,1.158l-0.57,2.122l0,0l-4.34,15.998l-0.308,1.153l-0.379,1.42c-0.375,1.395,0.453,2.832,1.85,3.204
		c1.394,0.373,2.832-0.456,3.204-1.851l0.38-1.42l0.311-1.153l0.569-2.123h-0.001l4.34-15.998L159.536,627.346z"/>
</g>
<g>
	<path fill="#EDDD53" d="M376.279,589.608c-1.196,0.074-2.357,0.122-3.449,0.122c-1.539,0-2.996-0.04-4.369-0.119
		c-1.375-0.079-2.719-0.134-4.031-0.171c0.053-1.696,0.113-3.276,0.184-4.738c0.068-1.461,0.162-2.877,0.276-4.254
		c0.114-1.371,0.245-2.746,0.392-4.119c0.149-1.375,0.33-2.833,0.539-4.373c0.157-1.119,0.35-2.27,0.578-3.452
		c0.227-1.182,0.525-2.323,0.893-3.427c0.367-1.103,0.816-2.14,1.352-3.112c0.533-0.969,1.191-1.824,1.971-2.558
		c0.777-0.736,1.693-1.314,2.744-1.734s2.275-0.63,3.674-0.63c0.805,0,1.549,0.109,2.232,0.329c0.683,0.218,1.27,0.547,1.759,0.985
		c0.49,0.437,0.87,0.971,1.144,1.601c0.271,0.631,0.404,1.347,0.404,2.154c0,0.645-0.096,1.342-0.287,2.085
		c-0.193,0.743-0.489,1.546-0.895,2.404l0.105,0.314c0.457,0.28,0.93,0.484,1.418,0.616c0.491,0.131,0.963,0.198,1.417,0.198
		c0.63,0,1.228-0.12,1.787-0.354c0.559-0.238,1.058-0.588,1.495-1.05c0.438-0.465,0.784-1.031,1.038-1.694
		c0.253-0.665,0.382-1.427,0.382-2.285c0-1.085-0.256-2.123-0.762-3.112c-0.508-0.987-1.234-1.855-2.18-2.599
		c-0.945-0.744-2.086-1.339-3.426-1.783c-1.338-0.449-2.842-0.672-4.504-0.672c-1.154,0-2.336,0.138-3.543,0.408
		c-1.211,0.271-2.398,0.7-3.57,1.286c-1.175,0.586-2.316,1.335-3.426,2.246c-1.114,0.908-2.146,2-3.098,3.267
		c-0.957,1.271-1.811,2.723-2.562,4.358c-0.751,1.637-1.366,3.479-1.838,5.526c-0.368,1.578-0.677,3.1-0.933,4.57
		c-0.254,1.47-0.469,2.935-0.643,4.396c-0.176,1.463-0.314,2.94-0.42,4.438c-0.105,1.496-0.193,3.067-0.265,4.712
		c-1.242,0.052-2.37,0.166-3.385,0.342c-1.016,0.174-1.886,0.397-2.611,0.671c-0.728,0.27-1.288,0.59-1.681,0.956
		c-0.395,0.369-0.592,0.762-0.592,1.182c0,0.175,0.035,0.342,0.105,0.498c0.943-0.35,2.113-0.576,3.505-0.681
		c1.392-0.105,2.911-0.166,4.556-0.185c-0.035,5.269-0.102,10.305-0.198,15.11c-0.096,4.803-0.288,9.276-0.577,13.414
		c-0.288,4.141-0.706,7.897-1.246,11.276c-0.542,3.377-1.291,6.263-2.245,8.651c-0.954,2.39-2.136,4.236-3.546,5.539
		c-1.407,1.303-3.117,1.956-5.131,1.956c-0.77,0-1.532-0.096-2.287-0.288c-0.75-0.193-1.477-0.497-2.178-0.906
		c-0.699-0.412-1.356-0.937-1.969-1.577c-0.612-0.638-1.172-1.411-1.68-2.322c-0.542,0-1.045,0.102-1.509,0.304
		c-0.463,0.199-0.868,0.458-1.209,0.773c-0.339,0.314-0.608,0.679-0.8,1.089c-0.193,0.412-0.289,0.828-0.289,1.248
		c0,0.752,0.24,1.464,0.721,2.141c0.484,0.673,1.143,1.263,1.982,1.771c0.84,0.507,1.834,0.909,2.98,1.207
		c1.146,0.3,2.395,0.449,3.74,0.449c1.559,0,3.123-0.262,4.688-0.778c1.568-0.515,3.082-1.38,4.541-2.599
		c1.463-1.217,2.84-2.826,4.137-4.83c1.295-2.005,2.458-4.502,3.491-7.497c0.647-1.906,1.218-4.027,1.708-6.365
		c0.487-2.335,0.913-4.79,1.273-7.364c0.356-2.573,0.66-5.21,0.904-7.915c0.246-2.705,0.451-5.37,0.619-7.993
		c0.163-2.627,0.301-5.162,0.404-7.614c0.105-2.45,0.191-4.718,0.263-6.8c1.313,0.035,2.63,0.096,3.953,0.185
		c1.321,0.086,2.664,0.131,4.028,0.131c1.207,0,2.389-0.053,3.545-0.159c0.135-0.013,0.269-0.038,0.402-0.053V589.608z"/>
	<path fill="#EDDD53" d="M471.658,627.463c1.021-1.021,2.679-1.021,3.7,0l1.039,1.04l0.845,0.845l3.836,3.836l3.7,3.701l-3.7,3.702
		l-3.836,3.836l-0.845,0.845l-1.039,1.037c-1.021,1.022-2.679,1.022-3.7,0c-1.023-1.022-1.023-2.678,0-3.699l1.037-1.04l0.846-0.845
		l3.836-3.836l-3.836-3.838l-0.846-0.845l-1.037-1.038C470.635,630.144,470.635,628.485,471.658,627.463z"/>
	<path fill="#EDDD53" d="M391.078,646.305c-1.021,1.022-2.68,1.022-3.701,0l-1.037-1.037l-0.846-0.845l-3.836-3.836l-3.701-3.702
		l3.701-3.701l3.836-3.836l0.846-0.845l1.037-1.04c1.021-1.021,2.68-1.021,3.701,0c1.021,1.022,1.021,2.681,0,3.701l-1.039,1.038
		l-0.844,0.845l-3.836,3.838l3.836,3.836l0.844,0.845l1.039,1.04C392.1,643.627,392.1,645.282,391.078,646.305z"/>
	<g>
		<path fill="#EDDD53" d="M505.234,628.104c0-2.332-0.828-4.258-2.483-5.781s-4.097-2.285-7.327-2.285
			c-1.65,0-3.064,0.248-4.243,0.746c-1.18,0.497-2.138,1.23-2.874,2.196c-0.736,0.97-1.2,1.955-1.387,2.953
			c-0.188,1.003-0.282,2.37-0.282,4.103v1.127h7.278v-2.943c0-1.364,0.15-2.276,0.455-2.733c0.299-0.458,0.758-0.688,1.376-0.688
			c0.617,0,1.078,0.207,1.379,0.62c0.303,0.414,0.454,1.042,0.454,1.883c0,1.098-0.5,2.623-1.498,4.579
			c-0.998,1.957-4.146,7.05-9.439,15.282l-0.005,4.416h17.874v-5.276h-8.908c4.557-6.41,7.302-10.604,8.232-12.577
			C504.768,631.749,505.234,629.877,505.234,628.104z"/>
		<path fill="#EDDD53" d="M524.008,623.098c-0.695-0.855-1.749-1.579-3.157-2.171c-1.407-0.592-3.005-0.889-4.786-0.889
			c-2.182,0-4.04,0.429-5.578,1.28c-1.534,0.856-2.559,1.989-3.076,3.403c-0.514,1.416-0.773,3.544-0.773,6.385v10.801
			c0,2.179,0.16,3.768,0.484,4.767c0.321,1.003,0.863,1.954,1.627,2.857c0.764,0.906,1.789,1.572,3.076,2s2.901,0.64,4.844,0.64
			c1.477,0,2.809-0.205,4-0.613c1.195-0.407,2.213-1.074,3.059-2.006c0.842-0.93,1.4-1.931,1.668-3.002
			c0.268-1.069,0.402-2.777,0.402-5.121v-10.322c0-2.346-0.125-4.054-0.371-5.124C525.176,624.912,524.703,623.95,524.008,623.098z
			 M517.673,643.835c0,1.519-0.093,2.493-0.28,2.926c-0.188,0.432-0.583,0.649-1.187,0.649s-0.996-0.185-1.174-0.554
			c-0.183-0.369-0.272-1.452-0.272-3.249v-15.103c0-1.591,0.098-2.608,0.292-3.046c0.192-0.44,0.591-0.66,1.196-0.66
			c0.615,0,1.009,0.207,1.174,0.62c0.169,0.414,0.251,1.444,0.251,3.086V643.835z"/>
		<path fill="#EDDD53" d="M526.476,625.585v3.608h0.804c1.877,0,3.087,0.125,3.629,0.375c0.543,0.247,0.875,0.615,0.996,1.098
			c0.12,0.483,0.18,1.924,0.18,4.319v16.594h8.123V620.63h-4.785C533.384,623.131,530.402,624.783,526.476,625.585z"/>
		<path fill="#EDDD53" d="M559.17,633.726c0.933-1.977,1.397-3.849,1.397-5.621c0-2.332-0.825-4.258-2.481-5.781
			s-4.102-2.285-7.328-2.285c-1.647,0-3.062,0.248-4.242,0.746c-1.181,0.497-2.137,1.23-2.873,2.196
			c-0.74,0.97-1.202,1.955-1.389,2.953c-0.191,1.003-0.282,2.37-0.282,4.103v1.127h7.277v-2.943c0-1.364,0.153-2.276,0.452-2.733
			c0.305-0.458,0.762-0.688,1.381-0.688c0.616,0,1.076,0.207,1.378,0.62c0.302,0.414,0.454,1.042,0.454,1.883
			c0,1.098-0.498,2.623-1.499,4.579c-0.999,1.957-4.145,7.05-9.44,15.282l-0.003,4.416h17.872v-5.276h-8.907
			C555.493,639.893,558.238,635.699,559.17,633.726z"/>
	</g>
	<g>
		<path fill="#EDDD53" d="M395.854,643.63v-20.15h17.405c2.588,0,4.404,0.24,5.448,0.724c0.954,0.442,1.634,1.181,2.037,2.215
			c0.354,0.914,0.531,2.105,0.531,3.572c0,2.126-0.428,3.642-1.284,4.546c-0.472,0.502-1.323,0.881-2.555,1.137
			c-0.276,0.069-0.87,0.168-1.786,0.296c0.513,0.029,0.848,0.049,1.006,0.059c1.416,0.089,2.316,0.241,2.699,0.458
			c1.133,0.57,1.68,1.89,1.641,3.957v3.188h-6.217v-2.509c0-1.093-0.255-1.821-0.768-2.186c-0.324-0.217-0.787-0.339-1.387-0.369
			c-0.197-0.02-0.605-0.029-1.226-0.029h-9.434v5.093H395.854z M401.966,633.606h9.597c1.505,0,2.494-0.172,2.966-0.517
			c0.384-0.275,0.576-0.865,0.576-1.771c0-0.57-0.029-1.038-0.089-1.402c-0.118-0.698-0.511-1.141-1.182-1.329
			c-0.373-0.107-1.057-0.162-2.051-0.162h-9.817V633.606z"/>
		<path fill="#EDDD53" d="M425.141,627.259v-3.779h5.196v3.779H425.141z M425.141,643.63v-14.112h5.196v14.112H425.141z"/>
		<path fill="#EDDD53" d="M443.488,629.192c2.469,0,4.473,0.133,6.008,0.398c1.161,0.207,2.091,0.646,2.79,1.314
			c0.63,0.601,1.013,1.472,1.151,2.613c0.08,0.59,0.118,1.48,0.118,2.671c0,1.939-0.089,3.312-0.267,4.119
			c-0.363,1.634-1.486,2.687-3.364,3.159c-1.289,0.325-3.548,0.487-6.776,0.487c-2.568,0-4.553-0.143-5.95-0.429
			c-1.142-0.226-2.047-0.738-2.716-1.534c-0.531-0.64-0.861-1.562-0.989-2.762c-0.05-0.541-0.073-1.426-0.073-2.657
			c0-1.928,0.122-3.287,0.369-4.074c0.491-1.574,1.785-2.555,3.883-2.938C438.989,629.315,440.93,629.192,443.488,629.192z
			 M443.37,633.017c-1.87,0-3.086,0.162-3.646,0.487c-0.452,0.255-0.759,0.663-0.916,1.225c-0.108,0.413-0.162,1.058-0.162,1.934
			c0,0.954,0.079,1.63,0.235,2.022c0.267,0.709,0.871,1.143,1.815,1.299c0.632,0.099,1.59,0.148,2.88,0.148
			c1.978,0,3.233-0.163,3.764-0.487c0.404-0.246,0.686-0.635,0.842-1.166c0.099-0.335,0.147-0.95,0.147-1.846
			c0-1.151-0.097-1.938-0.294-2.361c-0.306-0.64-0.98-1.024-2.023-1.152C445.439,633.051,444.561,633.017,443.37,633.017z"/>
	</g>
	<g>
		<path fill="#EDDD53" d="M395.883,606.847v-3.214h4.418v3.214H395.883z M395.883,620.767v-11.999h4.418v11.999H395.883z"/>
		<path fill="#EDDD53" d="M403.437,620.767v-11.999h4.307v2.785c0.159-0.594,0.326-1.037,0.501-1.331
			c0.428-0.692,1.144-1.176,2.148-1.442c0.711-0.191,1.676-0.29,2.898-0.29c1.725,0,3.067,0.23,4.029,0.69
			c0.744,0.353,1.33,0.889,1.756,1.607c0.445,0.753,0.666,1.953,0.666,3.604v6.376h-4.418v-6.189c0-1.02-0.226-1.71-0.678-2.069
			c-0.477-0.377-1.469-0.565-2.975-0.565c-1.656,0-2.74,0.322-3.252,0.967c-0.375,0.469-0.564,1.281-0.564,2.435v5.423H403.437z"/>
	</g>
	<path fill="#EDDD53" d="M509.815,603.949c-1.585,0.785-2.996,1.352-4.235,1.705c-1.238,0.353-2.359,0.531-3.364,0.531
		c-1.399,0-2.554-0.288-3.468-0.867c-0.912-0.577-1.629-1.409-2.149-2.5c-0.522-1.091-0.886-2.42-1.092-3.983
		c-0.206-1.566-0.307-3.343-0.307-5.334c0-1.063,0.019-2.311,0.058-3.746c0.037-1.434,0.098-2.99,0.18-4.665
		c0.084-1.679,0.195-3.462,0.336-5.352c0.139-1.892,0.311-3.835,0.518-5.827c1.805,0.13,3.467,0.269,4.989,0.418
		c1.515,0.152,2.89,0.227,4.118,0.227c1.287,0,2.268-0.123,2.95-0.366c0.679-0.24,1.019-0.771,1.019-1.591
		c0-0.226-0.029-0.466-0.085-0.727s-0.128-0.553-0.225-0.868c-1.077,0.205-2.468,0.309-4.159,0.309c-0.393,0-0.883,0-1.469,0
		s-1.24-0.01-1.955-0.027c-0.721-0.021-1.492-0.038-2.32-0.056c-0.828-0.021-1.68-0.047-2.556-0.083
		c0.37-3.673,0.821-7.394,1.353-11.166c0.533-3.772,1.188-7.426,1.971-10.967c-0.428-0.24-0.889-0.429-1.382-0.56
		c-0.495-0.129-1.048-0.194-1.661-0.194c-0.376,0-0.756,0.035-1.146,0.111c-0.394,0.076-0.757,0.205-1.092,0.39
		c-0.336,0.188-0.628,0.44-0.879,0.757c-0.253,0.315-0.424,0.719-0.517,1.201c-0.485,2.718-0.97,5.813-1.452,9.274
		c-0.486,3.468-0.941,7.147-1.371,11.039c-1.137,0.075-2.18,0.208-3.129,0.392c-0.951,0.188-1.767,0.418-2.443,0.699
		c-0.684,0.281-1.213,0.592-1.595,0.937c-0.383,0.344-0.575,0.711-0.575,1.104c0,0.148,0.029,0.277,0.087,0.393
		c0.892-0.227,1.97-0.388,3.226-0.49c1.259-0.103,2.621-0.164,4.094-0.182c-0.186,1.786-0.353,3.604-0.504,5.448
		c-0.148,1.842-0.27,3.687-0.361,5.534c-0.092,1.843-0.168,3.664-0.225,5.461c-0.055,1.799-0.082,3.546-0.082,5.24
		c0,1.607,0.064,3.058,0.182,4.368c-0.172,0.054-0.345,0.114-0.516,0.159c-0.697,0.18-1.367,0.269-2.014,0.269
		c-0.447,0-0.826-0.064-1.137-0.195c-0.312-0.128-0.559-0.372-0.746-0.726s-0.32-0.834-0.402-1.444
		c-0.077-0.607-0.117-1.397-0.117-2.366c0-0.561,0.02-1.215,0.063-1.967c0.043-0.754,0.096-1.546,0.158-2.376
		c0.062-0.832,0.132-1.681,0.215-2.546c0.081-0.862,0.151-1.68,0.214-2.452c0.062-0.77,0.113-1.468,0.158-2.095
		c0.043-0.628,0.065-1.129,0.065-1.502c0-1.279-0.149-2.367-0.447-3.271c-0.3-0.901-0.698-1.638-1.202-2.207
		c-0.503-0.574-1.078-0.989-1.725-1.25c-0.647-0.261-1.317-0.393-2.014-0.393c-1.005,0-2.062,0.304-3.168,0.914
		c-1.105,0.609-2.217,1.602-3.336,2.973c-1.119,1.372-2.219,3.163-3.299,5.367c-1.082,2.207-2.096,4.912-3.039,8.119l-0.111-0.02
		c0.111-1.082,0.217-2.165,0.316-3.253c0.1-1.086,0.189-2.139,0.27-3.159c0.083-1.019,0.154-1.979,0.215-2.879
		c0.062-0.9,0.115-1.7,0.158-2.394c0.043-0.699,0.079-1.273,0.103-1.726c0.026-0.454,0.036-0.743,0.036-0.868
		c0-1.043-0.201-1.779-0.605-2.207c-0.404-0.43-0.965-0.646-1.686-0.646c-0.299,0-0.707,0.051-1.229,0.149
		c-0.522,0.102-1.125,0.242-1.81,0.43c-0.191,0.051-0.4,0.115-0.604,0.172c0.022-0.594,0.047-1.189,0.047-1.78
		c0-3.868-0.566-7.658-1.697-11.362c-1.13-3.706-2.798-7.013-4.992-9.914c-2.199-2.904-4.912-5.239-8.141-7.013
		c-3.232-1.767-6.947-2.654-11.143-2.654c-3.738,0-7.199,0.606-10.381,1.821c-3.18,1.21-6.067,2.87-8.656,4.968
		c-2.59,2.101-4.876,4.549-6.861,7.354c-1.984,2.803-3.648,5.804-4.992,9.001c-0.93,2.206-1.69,4.468-2.305,6.773
		c-0.043-0.458-0.137-0.892-0.326-1.293c-0.246-0.517-0.576-0.965-0.996-1.342c-0.42-0.374-0.922-0.667-1.499-0.878
		c-0.575-0.209-1.198-0.316-1.862-0.316c-1.89,0-3.628,0.628-5.211,1.878c-1.585,1.253-3.037,2.971-4.359,5.16
		c-1.32,2.188-2.513,4.766-3.57,7.73c-1.059,2.97-2.01,6.167-2.849,9.596l-0.264-0.025c0.036-0.56,0.094-1.374,0.172-2.441
		c0.079-1.068,0.171-2.281,0.276-3.637c0.104-1.356,0.223-2.81,0.354-4.358c0.131-1.548,0.271-3.097,0.419-4.646
		c0.15-1.551,0.303-3.047,0.459-4.491c0.159-1.443,0.316-2.743,0.473-3.897c-2.507,0.6-4.793,1.003-6.868,1.22v2.462
		c0.05-0.013,0.099-0.021,0.147-0.032l0.132,0.078c-0.019,1.645-0.049,3.413-0.091,5.304c-0.046,1.89-0.094,3.842-0.146,5.854
		c-0.053,2.015-0.123,4.057-0.21,6.133c-0.088,2.074-0.174,4.104-0.262,6.09c-0.09,1.986-0.188,3.899-0.302,5.736
		c-0.114,1.838-0.233,3.542-0.354,5.119l0.42,0.026l5.486-0.681c0.104-1.139,0.283-2.544,0.539-4.217
		c0.253-1.671,0.585-3.454,0.997-5.354c0.411-1.897,0.901-3.851,1.47-5.855c0.57-2.004,1.207-3.914,1.916-5.736
		c0.709-1.82,1.492-3.478,2.35-4.976c0.859-1.495,1.785-2.7,2.784-3.609c0.613-0.562,1.286-0.989,2.021-1.287
		c0.734-0.296,1.498-0.445,2.285-0.445c0.736,0,1.432,0.137,2.086,0.407c0.656,0.271,1.352,0.714,2.088,1.325h0.211
		c0.557-0.425,1-0.897,1.33-1.416c-0.683,3.396-1.023,6.739-1.023,10.041c0,3.864,0.562,7.654,1.693,11.359
		c1.028,3.366,2.515,6.384,4.411,9.085h1.495c0.295-0.132,0.605-0.255,0.963-0.342c0.897-0.227,2.114-0.336,3.651-0.32
		c2.172,0.014,3.862,0.304,5.067,0.867c0.936,0.431,1.666,1.082,2.198,1.951c0.551,0.909,0.818,2.355,0.802,4.341l-0.027,3.389
		c1.779,0.404,3.667,0.611,5.668,0.611c3.74,0,7.198-0.608,10.38-1.822c3.181-1.213,6.066-2.869,8.657-4.97
		c2.59-2.102,4.875-4.55,6.861-7.352c1.982-2.809,3.656-5.803,5.02-9.004c1.36-3.196,2.381-6.503,3.071-9.91
		c0.43-2.123,0.709-4.221,0.871-6.303c0.293,0.006,0.558,0.04,0.776,0.121c0.235,0.086,0.431,0.233,0.588,0.438
		c0.155,0.205,0.271,0.48,0.344,0.828c0.075,0.35,0.111,0.778,0.111,1.288c0,0.56-0.008,1.323-0.027,2.292
		c-0.019,0.97-0.049,2.067-0.092,3.29c-0.045,1.226-0.094,2.54-0.15,3.952c-0.057,1.41-0.121,2.831-0.195,4.267
		c-0.075,1.438-0.156,2.851-0.243,4.241c-0.086,1.392-0.181,2.678-0.28,3.86l0.3,0.017l3.894-0.482
		c0.103-1.841,0.344-3.681,0.729-5.521c0.386-1.837,0.871-3.598,1.454-5.283c0.584-1.682,1.239-3.248,1.966-4.696
		c0.728-1.446,1.484-2.702,2.274-3.766c0.79-1.062,1.582-1.897,2.377-2.508c0.795-0.606,1.554-0.913,2.274-0.913
		c0.907,0,1.635,0.348,2.18,1.035c0.547,0.69,0.822,1.761,0.822,3.216c0,0.547-0.043,1.276-0.121,2.191
		c-0.084,0.91-0.173,1.929-0.271,3.047c-0.1,1.118-0.188,2.295-0.271,3.529c-0.08,1.237-0.121,2.439-0.121,3.609
		c0,0.957,0.027,1.851,0.084,2.685c0.057,0.83,0.182,1.559,0.374,2.179c0.192,0.623,0.481,1.113,0.866,1.474
		c0.384,0.36,0.912,0.541,1.584,0.541c0.57,0,1.229-0.099,1.977-0.291c0.744-0.191,1.494-0.442,2.246-0.754
		c0.725-0.3,1.412-0.63,2.071-0.987c0.081,0.569,0.173,1.105,0.28,1.609c0.42,1.975,1.006,3.547,1.76,4.707
		c0.755,1.166,1.648,1.977,2.682,2.435c1.034,0.452,2.176,0.683,3.424,0.683c0.949,0,1.956-0.121,3.02-0.364
		c1.06-0.243,2.157-0.588,3.295-1.034c1.138-0.445,2.291-0.981,3.466-1.604c1.173-0.626,2.337-1.319,3.491-2.084
		C510.605,605.068,510.317,604.452,509.815,603.949z M449.783,585.687c-0.214,2.295-0.584,4.616-1.107,6.955
		c-0.524,2.35-1.224,4.622-2.092,6.816c-0.867,2.197-1.967,4.149-3.295,5.853c-1.328,1.708-2.902,3.074-4.721,4.106
		c-1.821,1.035-3.929,1.552-6.324,1.552c-2.195,0-4.207-0.392-6.023-1.177c-1.821-0.789-3.461-1.87-4.92-3.251
		c-1.459-1.372-2.723-2.989-3.787-4.847c-1.068-1.853-1.961-3.847-2.683-5.973c-0.719-2.134-1.253-4.349-1.597-6.643
		c-0.345-2.291-0.518-4.555-0.518-6.791c0-1.896,0.105-4.004,0.322-6.318c0.21-2.309,0.579-4.631,1.102-6.96
		c0.527-2.331,1.225-4.591,2.092-6.788c0.871-2.196,1.969-4.151,3.299-5.85c1.327-1.71,2.9-3.072,4.723-4.087
		c1.817-1.017,3.927-1.523,6.32-1.523c2.195,0,4.205,0.393,6.025,1.178c1.819,0.789,3.459,1.864,4.921,3.223
		c1.456,1.359,2.722,2.969,3.788,4.818c1.062,1.855,1.956,3.843,2.678,5.955c0.723,2.115,1.256,4.314,1.599,6.589
		c0.344,2.286,0.519,4.553,0.519,6.815C450.104,581.275,449.996,583.392,449.783,585.687z"/>
	<path fill="#EDDD53" d="M467.208,627.346l0.38-1.417c0.373-1.396-0.455-2.831-1.85-3.205c-1.395-0.375-2.832,0.455-3.205,1.849
		l-0.381,1.417l-0.309,1.158l-0.57,2.122l0,0l-4.34,15.998l-0.309,1.153l-0.379,1.42c-0.375,1.395,0.453,2.832,1.85,3.204
		c1.394,0.373,2.832-0.456,3.204-1.851l0.38-1.42l0.311-1.153l0.569-2.123h-0.001l4.34-15.998L467.208,627.346z"/>
</g>
</svg>
