<?xml version="1.0" encoding="utf-8"?>
<!-- Generator: Adobe Illustrator 15.0.0, SVG Export Plug-In . SVG Version: 6.00 Build 0)  -->
<!DOCTYPE svg PUBLIC "-//W3C//DTD SVG 1.1//EN" "http://www.w3.org/Graphics/SVG/1.1/DTD/svg11.dtd">
<svg version="1.1" xmlns="http://www.w3.org/2000/svg" xmlns:xlink="http://www.w3.org/1999/xlink" x="0px" y="0px"
	 width="1576.297px" height="675.784px" viewBox="0 0 1576.297 675.784" enable-background="new 0 0 1576.297 675.784"
	 xml:space="preserve">
<g id="Layer_1">
</g>
<g id="Layer_2">
	<g>
		<path fill="#FFFFFF" stroke="#000000" stroke-width="5" d="M1190.739,443.802h42.032c0,0,4.767,0,4.333-6.065l0.027-8.235
			c0,0-0.894-3.899,3.439-10.832l12.566-21.666c0,0,32.933-63.266-30.333-78.432c0,0-14.3-1.733-23.399,0
			c0,0-61.531,13.433-29.466,78l12.133,20.8c0,0,6.066,10.832,5.633,14.731l-0.433,6.501
			C1187.272,438.603,1187.272,443.802,1190.739,443.802z"/>
		<path fill="none" stroke="#000000" stroke-width="3" d="M1216.9,442.357h-10.634c0,0-4.23-14.174,0-21.957
			c4.231-7.78,6.907-6.257,10.634,0C1221.869,428.742,1216.9,442.357,1216.9,442.357z"/>
		<polygon fill="#999999" stroke="#000000" stroke-width="2" points="1193.193,447.845 1230.169,447.845 1230.169,453.334 
			1193.193,455.068 		"/>
		<polygon fill="#999999" stroke="#000000" stroke-width="2" points="1193.207,459.431 1193.036,463.762 1230.155,460.891 
			1230.326,456.562 		"/>
		<polygon fill="#999999" stroke="#000000" stroke-width="2" points="1193.193,466.697 1193.193,471.789 1230.169,469.243 
			1230.169,464.382 		"/>
		<path fill="#999999" stroke="#000000" stroke-width="2" d="M1193.193,474.711l36.977-1.156v5.779c0,0-0.289,3.466-5.488,4.044
			h-5.2h-14.845h-6.822c0,0-4.622,1.732-4.622-4.912V474.711z"/>
		<path fill="#999999" stroke="#000000" stroke-width="2" d="M1219.482,487.422"/>
		<path fill="#999999" stroke="#000000" stroke-width="2" d="M1204.637,483.378l0.402,4.044c0,0-0.869,3.177,2.021,2.889
			l9.822,0.019c0,0,2.601,1.139,2.601-2.907v-4.044H1204.637z"/>
		<g>
			<path d="M1096.804,328.023c4.223-0.365,8.491-0.314,12.749-0.052c4.257,0.299,8.502,0.901,12.696,1.79
				c4.186,0.879,8.466,1.696,12.381,3.533c1.964,0.886,3.865,1.917,5.688,3.072c1.822,1.156,3.569,2.442,5.142,3.969l-0.194,0.35
				c-2.118-0.518-4.134-1.143-6.136-1.769l-5.95-1.894c-1.968-0.641-3.91-1.335-5.842-2.086c-1.926-0.77-3.888-1.458-5.875-2.073
				c-3.986-1.18-8.045-2.156-12.16-2.907c-4.112-0.787-8.285-1.258-12.499-1.532L1096.804,328.023z"/>
		</g>
		<g>
			<path d="M1124.774,290.543c4.084,1.133,8.066,2.671,11.964,4.404c3.885,1.768,7.652,3.814,11.271,6.112
				c3.615,2.286,7.34,4.547,10.367,7.636c1.531,1.516,2.952,3.146,4.257,4.866c1.303,1.72,2.491,3.535,3.43,5.515l-0.304,0.26
				c-1.803-1.226-3.475-2.515-5.131-3.801l-4.913-3.853c-1.62-1.289-3.197-2.617-4.745-3.995c-1.536-1.395-3.133-2.724-4.78-3.995
				c-3.323-2.498-6.785-4.831-10.377-6.972c-3.579-2.173-7.324-4.073-11.177-5.802L1124.774,290.543z"/>
		</g>
		<g>
			<path d="M1157.246,262.549c3.458,2.453,6.68,5.251,9.758,8.205c3.054,2.981,5.902,6.186,8.526,9.576
				c2.624,3.378,5.36,6.77,7.158,10.703c0.925,1.946,1.709,3.961,2.352,6.022c0.642,2.06,1.143,4.171,1.354,6.352l-0.374,0.142
				c-1.28-1.765-2.415-3.546-3.536-5.318l-3.313-5.292c-1.086-1.762-2.118-3.547-3.106-5.369c-0.971-1.833-2.022-3.626-3.14-5.381
				c-2.277-3.478-4.742-6.848-7.394-10.082c-2.628-3.259-5.506-6.318-8.543-9.252L1157.246,262.549z"/>
		</g>
		<g>
			<path d="M1214.195,255.824c0.319,3.534,0.456,7.092,0.612,10.639c0.12,3.549,0.169,7.098,0.185,10.638
				c0.01,1.77,0.095,3.542,0.16,5.311c0.057,1.769,0.002,3.529-0.171,5.286c-0.175,1.757-0.401,3.511-0.728,5.266
				c-0.309,1.755-0.681,3.512-1.257,5.279h-0.4c-0.569-1.77-0.908-3.55-1.155-5.331c-0.256-1.781-0.393-3.562-0.457-5.341
				c-0.058-1.778,0.015-3.551,0.212-5.317c0.207-1.765,0.439-3.526,0.601-5.29l1.013-10.566c0.382-3.523,0.667-7.037,0.987-10.577
				L1214.195,255.824z"/>
		</g>
		<g>
			<path d="M1094.418,368.937c3.511-0.512,7.057-0.842,10.59-1.191c3.538-0.314,7.078-0.558,10.612-0.767
				c1.767-0.106,3.532-0.289,5.294-0.449c1.763-0.154,3.524-0.195,5.288-0.118c1.763,0.079,3.527,0.209,5.298,0.439
				c1.77,0.212,3.544,0.487,5.34,0.968l0.021,0.398c-1.736,0.666-3.495,1.102-5.26,1.445c-1.764,0.353-3.535,0.586-5.308,0.748
				c-1.772,0.155-3.547,0.18-5.321,0.078c-1.773-0.109-3.545-0.246-5.315-0.311l-10.605-0.434
				c-3.539-0.188-7.063-0.282-10.616-0.407L1094.418,368.937z"/>
		</g>
		<g>
			<path d="M1126.033,452.879c2.578-2.438,5.289-4.746,7.979-7.063c2.714-2.291,5.471-4.525,8.242-6.729
				c1.385-1.103,2.724-2.267,4.074-3.411c1.354-1.14,2.771-2.186,4.259-3.137c1.488-0.949,3.006-1.856,4.587-2.687
				c1.57-0.844,3.18-1.639,4.925-2.278l0.247,0.314c-1.038,1.543-2.227,2.91-3.473,4.206c-1.24,1.303-2.556,2.513-3.913,3.664
				c-1.361,1.146-2.799,2.186-4.309,3.122c-1.514,0.93-3.042,1.837-4.527,2.802l-8.927,5.742c-3.003,1.88-5.941,3.83-8.919,5.771
				L1126.033,452.879z"/>
		</g>
		<g>
			<path d="M1105.001,418.295c3.109-1.709,6.315-3.26,9.502-4.824c3.204-1.533,6.435-3,9.672-4.434
				c1.618-0.719,3.207-1.507,4.802-2.274c1.597-0.762,3.233-1.417,4.912-1.962c1.679-0.544,3.377-1.04,5.116-1.444
				c1.732-0.421,3.491-0.784,5.34-0.964l0.16,0.367c-1.393,1.231-2.888,2.255-4.42,3.194c-1.529,0.949-3.106,1.788-4.71,2.561
				c-1.606,0.765-3.259,1.409-4.957,1.936c-1.7,0.519-3.407,1.011-5.087,1.57l-10.086,3.307c-3.381,1.062-6.715,2.209-10.086,3.335
				L1105.001,418.295z"/>
		</g>
		<g>
			<path d="M1292.848,455.297c-2.95-1.972-5.804-4.101-8.662-6.207c-2.837-2.137-5.628-4.327-8.394-6.539
				c-1.383-1.104-2.816-2.15-4.232-3.212c-1.412-1.066-2.748-2.216-4.005-3.454c-1.257-1.239-2.479-2.518-3.64-3.874
				c-1.172-1.343-2.305-2.736-3.317-4.295l0.251-0.311c1.735,0.668,3.333,1.522,4.874,2.449c1.546,0.919,3.018,1.933,4.443,2.999
				c1.419,1.072,2.753,2.242,4.003,3.506c1.243,1.27,2.467,2.557,3.738,3.79l7.585,7.425c2.501,2.51,5.056,4.939,7.609,7.412
				L1292.848,455.297z"/>
		</g>
		<g>
			<path d="M1313.208,418.202c-3.344-1.184-6.636-2.545-9.924-3.882c-3.276-1.372-6.521-2.808-9.746-4.27
				c-1.613-0.73-3.259-1.392-4.894-2.071c-1.631-0.686-3.208-1.471-4.732-2.361c-1.523-0.892-3.023-1.829-4.482-2.858
				c-1.467-1.013-2.908-2.084-4.273-3.346l0.167-0.363c1.846,0.221,3.605,0.655,5.327,1.174c1.725,0.511,3.401,1.13,5.044,1.812
				c1.64,0.689,3.221,1.496,4.743,2.412c1.518,0.924,3.021,1.87,4.557,2.752l9.18,5.328c3.042,1.817,6.117,3.543,9.201,5.31
				L1313.208,418.202z"/>
		</g>
		<g>
			<path d="M1324.806,371.61c-3.541,0.232-7.101,0.28-10.651,0.35c-3.551,0.033-7.1-0.006-10.64-0.076
				c-1.77-0.034-3.543,0.008-5.313,0.028c-1.769,0.015-3.528-0.084-5.28-0.301c-1.751-0.218-3.5-0.487-5.246-0.856
				c-1.748-0.352-3.495-0.767-5.247-1.387l0.01-0.4c1.784-0.525,3.571-0.82,5.357-1.024c1.787-0.212,3.571-0.305,5.351-0.326
				c1.779-0.014,3.55,0.103,5.31,0.344c1.759,0.25,3.515,0.525,5.273,0.729l10.538,1.272c3.513,0.469,7.019,0.841,10.55,1.247
				L1324.806,371.61z"/>
		</g>
		<g>
			<path d="M1297.393,292.74c-2.807,2.17-5.733,4.2-8.639,6.24c-2.927,2.011-5.892,3.961-8.868,5.88
				c-1.487,0.96-2.935,1.986-4.391,2.992c-1.459,1-2.974,1.901-4.548,2.7c-1.574,0.798-3.175,1.551-4.83,2.22
				c-1.646,0.685-3.327,1.316-5.126,1.78l-0.215-0.337c1.186-1.433,2.503-2.676,3.872-3.842c1.363-1.174,2.792-2.248,4.256-3.259
				c1.468-1.005,3.001-1.898,4.596-2.682c1.599-0.775,3.209-1.526,4.782-2.34l9.451-4.831c3.175-1.574,6.291-3.224,9.447-4.859
				L1297.393,292.74z"/>
		</g>
		<g>
			<path d="M1317.901,328.589c-3.349,1.171-6.768,2.17-10.169,3.186c-3.414,0.981-6.843,1.894-10.273,2.771
				c-1.714,0.441-3.412,0.956-5.112,1.449c-1.701,0.486-3.422,0.862-5.169,1.122c-1.746,0.258-3.502,0.466-5.284,0.577
				c-1.778,0.128-3.572,0.195-5.426,0.066l-0.098-0.388c1.578-0.984,3.222-1.746,4.889-2.419c1.665-0.683,3.359-1.249,5.069-1.745
				c1.71-0.489,3.448-0.851,5.208-1.089c1.762-0.229,3.527-0.433,5.277-0.707l10.494-1.592c3.51-0.488,6.988-1.067,10.499-1.62
				L1317.901,328.589z"/>
		</g>
		<g>
			<path d="M1264.713,267.875c-1.936,2.973-4.031,5.853-6.104,8.736c-2.102,2.862-4.26,5.68-6.438,8.471
				c-1.088,1.396-2.118,2.841-3.162,4.271c-1.049,1.425-2.183,2.773-3.406,4.046c-1.224,1.271-2.488,2.509-3.831,3.686
				c-1.329,1.188-2.708,2.337-4.255,3.368l-0.314-0.248c0.648-1.743,1.484-3.35,2.392-4.902c0.901-1.557,1.896-3.041,2.946-4.478
				c1.055-1.433,2.21-2.78,3.458-4.045c1.255-1.258,2.528-2.498,3.746-3.784l7.334-7.673c2.48-2.531,4.879-5.114,7.322-7.697
				L1264.713,267.875z"/>
		</g>
		<path fill="none" stroke="#000000" stroke-width="3" stroke-linejoin="round" d="M1205.996,421.287l-16.599-32.553
			c0,0,12.792,8.415,16.156-3.558c0,0,5.446,16.397,14.555,1.302c0,0,3.682,15.616,15.764,1.042l-18.447,34.507"/>
	</g>
	<g>
		<path d="M200.102,259.58l-6.704,47.248h27.462l6.704-47.248h14.055l-6.703,47.248h23.57l-1.946,13.948h-23.595l-4.436,31.355
			h23.597l-1.95,13.947h-23.619l-6.543,46.273h-14.056l6.543-46.273h-27.412l-6.595,46.273h-14.054l6.543-46.273h-23.41
			l1.944-13.947h23.437l4.436-31.355h-23.437l1.946-13.948h23.462l6.703-47.248H200.102z M191.438,320.776l-4.407,31.355h27.422
			l4.436-31.355H191.438z"/>
		<path d="M265.634,253.202h9.731h9.73v58.924l3.351-4.324c8.434-9.875,18.993-14.813,31.679-14.813
			c12.758,0,22.597,3.46,29.517,10.38c6.919,6.919,10.379,16.758,10.379,29.516v79.251h-9.73h-9.731V337.75
			c0-9.586-1.838-16.488-5.514-20.705c-3.676-4.216-9.659-6.325-17.947-6.325c-9.803,0-17.588,3.551-23.354,10.65
			c-5.767,7.1-8.649,16.705-8.649,28.814v61.953h-9.73h-9.731V253.202z"/>
		<path d="M383.767,398.404c-9.911-11.244-14.866-25.982-14.866-44.221c0-18.307,4.955-33.084,14.866-44.328
			c9.91-11.245,22.867-16.867,38.869-16.867c16.145,0,29.155,5.623,39.031,16.867c9.874,11.244,14.812,26.021,14.812,44.328
			c0,18.238-4.938,32.977-14.812,44.221c-9.876,11.246-22.886,16.867-39.031,16.867C406.634,415.271,393.677,409.65,383.767,398.404
			z M447.07,386.512c6.055-8.002,9.082-18.775,9.082-32.328c0-13.549-3.027-24.343-9.082-32.381
			c-6.055-8.036-14.2-12.055-24.435-12.055c-10.236,0-18.363,4.019-24.381,12.055c-6.019,8.038-9.027,18.832-9.027,32.381
			c0,13.553,3.009,24.326,9.027,32.328c6.018,8,14.146,12.002,24.381,12.002C432.87,398.514,441.016,394.512,447.07,386.512z"/>
		<path d="M488.06,296.449h9.19h9.299v19.786c1.657-3.098,3.422-5.909,5.298-8.433c7.352-9.875,16.397-14.813,27.137-14.813
			c1.801,0,3.639,0.325,5.514,0.974v19.894l-4-0.108c-10.524,0-18.65,3.154-24.38,9.461c-5.73,6.308-8.596,15.299-8.596,26.976
			v61.953h-9.73h-9.731V296.449z"/>
		<path d="M576.298,415.271c-11.316,0-20.291-3.027-26.921-9.082c-6.632-6.055-9.948-14.236-9.948-24.543
			c0-10.379,3.118-18.633,9.352-24.76c6.234-6.125,15.335-9.946,27.3-11.46l26.489-3.352c2.163-0.217,4.218-0.576,6.163-1.08
			c2.523-0.649,4.47-1.947,5.838-3.893c1.369-1.947,2.055-4.396,2.055-7.353v-0.973c0-6.199-2.342-11.046-7.027-14.542
			c-4.687-3.496-11.208-5.244-19.569-5.244c-8.001,0-14.254,1.856-18.759,5.568c-4.505,3.713-7.227,9.244-8.163,16.597H545.16
			c0.936-12.686,5.406-22.219,13.407-28.598c8.001-6.379,19.461-9.569,34.382-9.569c14.056,0,24.759,3.046,32.111,9.137
			c7.353,6.091,11.028,14.974,11.028,26.651v63.573c0,1.945,0.595,3.516,1.783,4.705c1.189,1.188,2.795,1.781,4.812,1.781
			c0.577,0,1.423-0.07,2.541-0.215c1.116-0.143,2.324-0.359,3.622-0.648v14.055c-1.875,0.721-3.855,1.299-5.947,1.73
			c-2.091,0.434-3.854,0.648-5.298,0.648c-7.352,0-12.687-2.02-16.001-6.055c-2.162-2.666-3.713-6.449-4.648-11.352
			c-1.443,1.803-3.1,3.533-4.975,5.189C602.247,410.912,590.353,415.271,576.298,415.271z M616.626,366.293v-12.541
			c-3.604,1.73-7.605,2.92-12.001,3.568l-17.839,2.594c-9.371,1.297-16.218,3.479-20.542,6.541
			c-4.325,3.064-6.487,7.229-6.487,12.488c0,6.486,1.766,11.479,5.298,14.975c3.531,3.496,8.542,5.244,15.028,5.244
			c10.234,0,18.884-2.773,25.948-8.326c4.829-3.893,8.038-8.287,9.623-13.189c0.287-0.936,0.504-2.414,0.648-4.434
			C616.519,371.123,616.626,368.816,616.626,366.293z"/>
		<path d="M702.81,415.271c-16.362,0-29.229-5.189-38.598-15.57c-9.37-10.379-14.056-24.721-14.056-43.029
			c0-19.462,4.954-34.94,14.866-46.438c9.91-11.497,23.228-17.246,39.95-17.246c15.136,0,27.354,5.623,36.652,16.867
			c9.298,11.244,13.946,26.021,13.946,44.328l-0.229,6.92h-84.504c0.794,11.533,3.425,20.326,7.891,26.381
			c5.474,7.352,14.118,11.029,25.934,11.029c7.421,0,13.903-2.09,19.452-6.271c5.547-4.18,8.931-9.514,10.157-16.002h19.245
			c-2.883,12.688-8.649,22.363-17.3,29.031C727.569,411.938,716.433,415.271,702.81,415.271z M735.291,345.426
			c-0.58-10.738-3.248-19.1-8.005-25.083c-5.262-6.631-12.975-9.947-23.141-9.947c-10.238,0-18.419,3.821-24.544,11.46
			c-4.834,5.983-7.753,13.839-8.763,23.569H735.291z"/>
		<path d="M794.725,352.455l-38.924-56.006h12.574h12.572l26.653,41.191l26.752-41.191h11.974h12.079l-38.922,56.331l40.22,59.357
			H847.61h-12.197l-28.838-44.102l-28.392,44.102h-12.217h-12.328L794.725,352.455z"/>
		<path d="M905.449,412.027c-6.632,1.008-11.46,1.514-14.487,1.514c-8.504,0-14.507-1.873-18.002-5.621
			c-3.497-3.748-5.243-10.199-5.243-19.354v-76.224h-16.002v-15.894h16.002v-32.435h19.461v32.435h18.271v15.894h-18.271v76.224
			c0,2.594,1.027,4.648,3.082,6.162S895.071,397,898.53,397h6.919V412.027z"/>
		<path d="M913.896,296.449h9.19h9.298v19.786c1.658-3.098,3.423-5.909,5.298-8.433c7.353-9.875,16.396-14.813,27.138-14.813
			c1.802,0,3.639,0.325,5.515,0.974v19.894l-4.002-0.108c-10.523,0-18.65,3.154-24.38,9.461c-5.73,6.308-8.596,15.299-8.596,26.976
			v61.953h-9.73h-9.73V296.449z"/>
		<path d="M1002.134,415.271c-11.315,0-20.289-3.027-26.922-9.082c-6.632-6.055-9.946-14.236-9.946-24.543
			c0-10.379,3.116-18.633,9.353-24.76c6.233-6.125,15.335-9.946,27.3-11.46l26.489-3.352c2.161-0.217,4.216-0.576,6.162-1.08
			c2.521-0.649,4.468-1.947,5.839-3.893c1.369-1.947,2.054-4.396,2.054-7.353v-0.973c0-6.199-2.345-11.046-7.028-14.542
			c-4.685-3.496-11.209-5.244-19.569-5.244c-8,0-14.254,1.856-18.759,5.568c-4.506,3.713-7.226,9.244-8.161,16.597h-17.948
			c0.936-12.686,5.405-22.219,13.407-28.598c8-6.379,19.461-9.569,34.381-9.569c14.056,0,24.759,3.046,32.11,9.137
			c7.353,6.091,11.028,14.974,11.028,26.651v63.573c0,1.945,0.596,3.516,1.785,4.705c1.188,1.188,2.792,1.781,4.811,1.781
			c0.575,0,1.423-0.07,2.541-0.215c1.116-0.143,2.324-0.359,3.622-0.648v14.055c-1.875,0.721-3.857,1.299-5.946,1.73
			c-2.091,0.434-3.857,0.648-5.298,0.648c-7.352,0-12.687-2.02-16.002-6.055c-2.162-2.666-3.712-6.449-4.649-11.352
			c-1.441,1.803-3.101,3.533-4.973,5.189C1028.082,410.912,1016.19,415.271,1002.134,415.271z M1042.462,366.293v-12.541
			c-3.604,1.73-7.604,2.92-12,3.568l-17.841,2.594c-9.371,1.297-16.218,3.479-20.542,6.541c-4.325,3.064-6.487,7.229-6.487,12.488
			c0,6.486,1.768,11.479,5.298,14.975c3.531,3.496,8.542,5.244,15.028,5.244c10.235,0,18.884-2.773,25.948-8.326
			c4.829-3.893,8.036-8.287,9.622-13.189c0.289-0.936,0.505-2.414,0.649-4.434C1042.354,371.123,1042.462,368.816,1042.462,366.293z
			"/>
	</g>
	<g>
		<path d="M614.317,453.701c0-3.552-1.224-5.328-3.672-5.328c-0.673,0-1.177,0.049-1.512,0.145
			c-0.769,0.144-1.417,0.216-1.944,0.216c-0.624,0-1.152-0.228-1.584-0.684s-0.648-1.02-0.648-1.692c0-1.68,1.005-2.52,3.014-2.52
			c0.047,0,0.406,0.024,1.075,0.071c7.175,0.48,10.523,0.721,10.046,0.721h0.717l17.292-0.505c0.335,0,1.579-0.071,3.732-0.216
			c0.765-0.047,1.458-0.071,2.08-0.071c2.487,0,3.731,1.104,3.731,3.312c0,0.385-0.068,1.608-0.206,3.672
			c-0.104,1.537-0.154,2.952-0.154,4.248c0,1.681,0.04,2.856,0.12,3.528c0.16,1.393,0.24,2.424,0.24,3.096
			c0,1.825-0.864,2.736-2.592,2.736s-2.592-1.278-2.592-3.834v-3.761c0-4.051-0.837-6.438-2.511-7.162
			c-1.244-0.53-4.45-0.796-9.616-0.796c-3.397,0-5.407,0.073-6.027,0.22c-2.058,0.537-3.086,1.999-3.086,4.389v3.24
			c0,0.385,0,0.912,0,1.584c0,0.673,0,1.151,0,1.439v0.937c0,1.92,0.425,3.023,1.278,3.312c0.331,0.097,0.899,0.145,1.705,0.145
			h2.911c2.982,0,4.474-1.032,4.474-3.096c0-0.576-0.061-1.32-0.18-2.232c-0.121-0.911-0.18-1.729-0.18-2.448
			c0-1.919,0.852-2.88,2.556-2.88c1.703,0,2.556,1.033,2.556,3.096c0,0.385-0.155,1.872-0.466,4.465
			c-0.266,2.208-0.398,4.152-0.398,5.831c0,0.961,0.096,2.664,0.288,5.112c0.047,0.385,0.167,1.225,0.36,2.521
			c0.144,1.056,0.216,1.896,0.216,2.52c0,1.729-0.864,2.592-2.592,2.592c-1.681,0-2.52-1.008-2.52-3.023
			c0-0.528,0.06-1.296,0.18-2.305c0.119-1.008,0.18-1.774,0.18-2.304c0-2.063-1.368-3.096-4.104-3.096h-3.24
			c-1.393,0-2.245,0.24-2.556,0.72c-0.312,0.48-0.468,1.512-0.468,3.096v4.465c0,0.768,0.023,1.8,0.072,3.096
			c0.047,1.584,0.072,2.641,0.072,3.168c0.047,1.92,0.432,3.121,1.152,3.6c0.528,0.337,1.775,0.504,3.744,0.504h9.792
			c2.832,0,4.775-0.419,5.832-1.26c1.055-0.839,1.584-2.412,1.584-4.716c0-0.72-0.036-1.788-0.108-3.204
			c-0.072-1.415-0.108-2.484-0.108-3.204c0-2.16,0.852-3.24,2.557-3.24c1.799,0,2.699,1.105,2.699,3.312
			c0,0.864-0.036,2.185-0.108,3.96c-0.072,1.776-0.108,3.096-0.108,3.96c0,0.673,0.036,1.668,0.108,2.988
			c0.072,1.32,0.108,2.316,0.108,2.987c0,2.257-1.105,3.385-3.312,3.385c-0.529,0-1.368-0.056-2.52-0.165
			c-0.576-0.055-1.632-0.082-3.168-0.082c0.335,0-1.537-0.055-5.616-0.164c-4.081-0.11-7.608-0.165-10.584-0.165
			c-4.512,0-8.928,0.169-13.248,0.504c-0.192,0-0.408,0.023-0.648,0.072c-0.241,0-0.385,0-0.432,0c-2.016,0-3.024-0.864-3.024-2.593
			c0-1.535,0.744-2.304,2.232-2.304c0.24,0,0.888,0.049,1.944,0.145c0.527,0.144,1.031,0.216,1.512,0.216
			c2.448,0,3.672-1.8,3.672-5.4V453.701z"/>
		<path d="M674.94,449.237l11.088,36.432l12.168-38.808c0.623-2.016,1.703-3.023,3.24-3.023h0.36c0.479,0,1.104,0.071,1.872,0.216
			c0.96,0.24,1.584,0.359,1.872,0.359c0.768,0.097,1.824,0.145,3.168,0.145c1.44,0,2.567-0.072,3.384-0.216l2.52-0.433
			c0.144-0.047,0.432-0.071,0.864-0.071c2.208,0,3.312,0.827,3.312,2.482c0,1.513-0.768,2.27-2.304,2.27
			c-0.385,0-0.949-0.048-1.692-0.145c-0.745-0.096-1.308-0.144-1.692-0.144c-2.448,0-3.672,1.8-3.672,5.399v5.04v6.336v6.12v11.376
			c0,3.601,1.199,5.4,3.6,5.4c0.479,0,1.008-0.072,1.584-0.216c1.055-0.096,1.68-0.145,1.872-0.145c1.536,0,2.304,0.769,2.304,2.304
			c0,1.729-1.033,2.593-3.096,2.593c0.095,0-0.265-0.049-1.08-0.145c-3.312-0.384-6.12-0.576-8.424-0.576
			c-2.256,0-4.417,0.169-6.48,0.504c-0.864,0.145-1.632,0.217-2.304,0.217c-1.872,0-2.808-0.804-2.808-2.412
			c0-1.656,0.967-2.484,2.902-2.484c0.484,0,0.846,0.033,1.089,0.096c1.064,0.128,1.693,0.192,1.886,0.192
			c1.742,0,2.83-1.8,3.265-5.4c0.097-0.767,0.145-3.215,0.145-7.344c0-1.584,0.047-3.888,0.144-6.912v-6.479v-12.744
			c0-0.288-0.121-0.432-0.36-0.432c-0.144,0-0.288,0.145-0.432,0.433l-13.248,41.179c-0.576,1.827-1.92,2.74-4.032,2.74
			c-1.249,0-2.172-0.181-2.772-0.541c-0.601-0.36-1.069-1.094-1.404-2.199l-13.032-41.179c-0.144-0.288-0.312-0.433-0.504-0.433
			c-0.192,0-0.288,0.144-0.288,0.431l0.504,33.356c0.047,3.491,0.999,5.236,2.856,5.236c0.523,0,1.238,0,2.142,0h0.857
			c1.856,0,2.784,0.816,2.784,2.448s-0.96,2.448-2.88,2.448c-0.336,0-0.84-0.049-1.512-0.145c-1.056-0.144-2.185-0.312-3.384-0.504
			c-0.961-0.144-2.185-0.216-3.672-0.216c-2.641,0-4.345,0.072-5.112,0.216l-3.024,0.576c-0.097,0-0.241,0.023-0.432,0.072
			c-0.192,0-0.336,0-0.432,0c-2.208,0-3.312-0.84-3.312-2.521c0-0.672,0.216-1.235,0.648-1.691s0.959-0.685,1.584-0.685
			c0.527,0,1.152,0.072,1.872,0.216c0.72,0.145,1.248,0.217,1.584,0.217c2.448,0,3.672-1.801,3.672-5.4v-28.944
			c0-3.6-1.224-5.399-3.672-5.399c-0.385,0-0.961,0.048-1.728,0.144c-0.769,0.097-1.345,0.145-1.728,0.145
			c-1.488,0-2.232-0.757-2.232-2.27c0-1.655,1.08-2.482,3.24-2.482c0.191,0,0.504,0.024,0.936,0.071l2.52,0.288
			c1.248,0.145,2.423,0.216,3.528,0.216c0.912,0,2.148-0.096,3.708-0.288c1.56-0.19,2.7-0.287,3.42-0.287
			c1.872,0,3.12,1.177,3.744,3.527L674.94,449.237z"/>
		<path d="M730.884,482.584v-28.82c0-3.545-1.215-5.318-3.644-5.318c-0.381,0-0.882,0.038-1.5,0.115
			c-0.906,0.115-1.549,0.173-1.93,0.173c-1.524,0-2.286-0.792-2.286-2.376c0-1.68,1.054-2.52,3.162-2.52
			c0.335,0,0.695,0.024,1.079,0.071l3.522,0.433c1.149,0.144,2.586,0.216,4.312,0.216c1.198,0,2.636-0.072,4.313-0.216
			c3.929-0.336,6.9-0.504,8.914-0.504c3.067,0,5.702,0.24,7.906,0.72c3.163,0.673,5.642,2.16,7.44,4.464
			c1.796,2.304,2.695,5.088,2.695,8.352c0,4.513-1.548,7.969-4.644,10.368c-3.096,2.401-7.572,3.601-13.428,3.601h-5.112
			c-1.584,0-2.52,0-2.808,0h-0.144c-0.769,0-1.26,0.131-1.476,0.395c-0.216,0.264-0.324,0.872-0.324,1.827v1.435
			c0,6.07,0.18,9.75,0.54,11.04c0.36,1.291,1.404,1.936,3.132,1.936c0.527,0,1.031-0.072,1.512-0.216
			c1.055-0.096,1.703-0.145,1.944-0.145c1.487,0,2.232,0.769,2.232,2.304c0,1.729-1.057,2.593-3.168,2.593l-1.008-0.145l-3.6-0.504
			c-1.008-0.144-2.52-0.216-4.536-0.216c-1.681,0-3.049,0.072-4.104,0.216l-4.176,0.576c-0.097,0-0.241,0.023-0.432,0.072
			c-0.192,0-0.36,0-0.504,0c-2.16,0-3.24-0.84-3.24-2.521c0-0.672,0.216-1.235,0.648-1.691s0.959-0.685,1.584-0.685
			c0.527,0,1.175,0.072,1.944,0.216c0.335,0.097,0.839,0.145,1.512,0.145C729.66,487.974,730.884,486.177,730.884,482.584z
			 M737.436,449.957c-0.336,0.48-0.504,1.801-0.504,3.96v10.656c0,1.296,0.911,2.041,2.736,2.232c-0.144,0,1.248,0,4.176,0
			c3.408,0,6.239-0.264,8.496-0.792c4.271-1.008,6.408-3.816,6.408-8.424c0-6.096-3.888-9.145-11.664-9.145
			C741.324,448.445,738.108,448.949,737.436,449.957z"/>
		<path d="M804.684,465.581c-1.393,0.671-3.168,1.244-5.328,1.723c2.805,0.526,4.742,1.579,5.812,3.158
			c1.068,1.579,1.604,4.186,1.604,7.822v3.302c0,0.191,0,0.478,0,0.86c0,3.444,1.091,5.167,3.276,5.167
			c2.232,0,3.348-2.044,3.348-6.134v-2.14v-1.783v-0.997c0-1.38,0.096-2.33,0.288-2.854c0.384-0.808,1.127-1.213,2.232-1.213
			c1.728,0,2.592,1.008,2.592,3.024c0,0.048-0.024,0.576-0.072,1.584v1.512c0,1.008,0,1.656,0,1.944v1.8
			c-0.048,0.288-0.072,0.72-0.072,1.296c0,2.784-0.781,4.957-2.34,6.516c-1.56,1.561-3.732,2.341-6.516,2.341
			c-5.664,0-8.496-2.864-8.496-8.596v-2.166v-2.456v-1.59c0-3.226-0.61-5.356-1.83-6.391c-1.219-1.035-3.74-1.554-7.565-1.554h-6.67
			c-1.53,0-2.295,0.94-2.295,2.819v5.566c0,3.565,0.047,5.59,0.144,6.071c0.432,2.41,1.631,3.614,3.6,3.614
			c0.672,0,1.176-0.027,1.512-0.086c0.815-0.086,1.44-0.13,1.872-0.13c1.536,0,2.304,0.793,2.304,2.378
			c0,1.679-1.033,2.519-3.096,2.519l-1.08-0.145l-3.888-0.504c-1.488-0.191-2.808-0.288-3.96-0.288c-1.44,0-3.121,0.12-5.04,0.36
			l-3.456,0.432c-0.769,0.096-1.128,0.145-1.08,0.145c-2.064,0-3.096-0.864-3.096-2.593c0-1.535,0.744-2.304,2.232-2.304
			c0.24,0,0.888,0.049,1.944,0.145c0.528,0.144,1.032,0.216,1.512,0.216c2.448,0,3.672-1.8,3.672-5.4v-28.872
			c0-3.6-1.224-5.399-3.672-5.399c-0.385,0-0.961,0.048-1.728,0.144c-0.769,0.097-1.345,0.145-1.728,0.145
			c-0.625,0-1.152-0.225-1.584-0.674s-0.648-0.981-0.648-1.596c0-1.655,1.055-2.482,3.168-2.482c0.191,0,0.527,0.024,1.008,0.071
			l3.672,0.36c0.96,0.097,2.16,0.144,3.6,0.144c1.487,0,3.144-0.047,4.968-0.144l5.472-0.288c1.824-0.096,3.503-0.144,5.04-0.144
			c10.56,0,15.84,4.02,15.84,12.056C810.156,460.63,808.331,463.86,804.684,465.581z M784.74,465.006h6.768
			c4.032,0,7.056-0.576,9.072-1.729c2.448-1.392,3.672-3.719,3.672-6.984c0-5.472-3.756-8.208-11.269-8.208
			c-3.998,0-6.707,0.301-8.128,0.9c-1.421,0.601-2.156,1.789-2.203,3.564v2.304v8.28c0,0.816,0.144,1.332,0.432,1.548
			S783.923,465.006,784.74,465.006z"/>
		<path d="M829.235,453.701c0-3.552-1.224-5.328-3.672-5.328c-0.673,0-1.177,0.049-1.512,0.145
			c-0.769,0.144-1.417,0.216-1.944,0.216c-0.624,0-1.152-0.228-1.584-0.684s-0.648-1.02-0.648-1.692c0-1.68,1.005-2.52,3.014-2.52
			c0.047,0,0.406,0.024,1.075,0.071c7.175,0.48,10.523,0.721,10.046,0.721h0.717l17.292-0.505c0.335,0,1.579-0.071,3.732-0.216
			c0.765-0.047,1.458-0.071,2.08-0.071c2.487,0,3.731,1.104,3.731,3.312c0,0.385-0.068,1.608-0.206,3.672
			c-0.104,1.537-0.154,2.952-0.154,4.248c0,1.681,0.04,2.856,0.12,3.528c0.16,1.393,0.24,2.424,0.24,3.096
			c0,1.825-0.864,2.736-2.592,2.736s-2.592-1.278-2.592-3.834v-3.761c0-4.051-0.837-6.438-2.511-7.162
			c-1.244-0.53-4.45-0.796-9.616-0.796c-3.397,0-5.407,0.073-6.027,0.22c-2.058,0.537-3.086,1.999-3.086,4.389v3.24
			c0,0.385,0,0.912,0,1.584c0,0.673,0,1.151,0,1.439v0.937c0,1.92,0.425,3.023,1.278,3.312c0.331,0.097,0.899,0.145,1.705,0.145
			h2.911c2.982,0,4.474-1.032,4.474-3.096c0-0.576-0.061-1.32-0.18-2.232c-0.121-0.911-0.18-1.729-0.18-2.448
			c0-1.919,0.852-2.88,2.556-2.88c1.703,0,2.556,1.033,2.556,3.096c0,0.385-0.155,1.872-0.466,4.465
			c-0.266,2.208-0.398,4.152-0.398,5.831c0,0.961,0.096,2.664,0.288,5.112c0.047,0.385,0.167,1.225,0.36,2.521
			c0.144,1.056,0.216,1.896,0.216,2.52c0,1.729-0.864,2.592-2.592,2.592c-1.681,0-2.52-1.008-2.52-3.023
			c0-0.528,0.06-1.296,0.18-2.305c0.119-1.008,0.18-1.774,0.18-2.304c0-2.063-1.368-3.096-4.104-3.096h-3.24
			c-1.393,0-2.245,0.24-2.556,0.72c-0.312,0.48-0.468,1.512-0.468,3.096v4.465c0,0.768,0.023,1.8,0.072,3.096
			c0.047,1.584,0.072,2.641,0.072,3.168c0.047,1.92,0.432,3.121,1.152,3.6c0.528,0.337,1.775,0.504,3.744,0.504h9.792
			c2.832,0,4.775-0.419,5.832-1.26c1.055-0.839,1.584-2.412,1.584-4.716c0-0.72-0.036-1.788-0.108-3.204
			c-0.072-1.415-0.108-2.484-0.108-3.204c0-2.16,0.852-3.24,2.557-3.24c1.799,0,2.699,1.105,2.699,3.312
			c0,0.864-0.036,2.185-0.108,3.96c-0.072,1.776-0.108,3.096-0.108,3.96c0,0.673,0.036,1.668,0.108,2.988
			c0.072,1.32,0.108,2.316,0.108,2.987c0,2.257-1.105,3.385-3.312,3.385c-0.529,0-1.368-0.056-2.52-0.165
			c-0.576-0.055-1.632-0.082-3.168-0.082c0.335,0-1.537-0.055-5.616-0.164c-4.081-0.11-7.608-0.165-10.584-0.165
			c-4.512,0-8.928,0.169-13.248,0.504c-0.192,0-0.408,0.023-0.648,0.072c-0.241,0-0.385,0-0.432,0c-2.016,0-3.024-0.864-3.024-2.593
			c0-1.535,0.744-2.304,2.232-2.304c0.24,0,0.888,0.049,1.944,0.145c0.527,0.144,1.031,0.216,1.512,0.216
			c2.448,0,3.672-1.8,3.672-5.4V453.701z"/>
		<path d="M877.69,453.701c0-3.552-1.224-5.328-3.672-5.328c-0.673,0-1.177,0.049-1.512,0.145c-0.769,0.144-1.417,0.216-1.944,0.216
			c-0.624,0-1.152-0.228-1.584-0.684s-0.648-1.02-0.648-1.692c0-1.68,1.005-2.52,3.014-2.52c0.047,0,0.406,0.024,1.075,0.071
			c7.175,0.48,10.523,0.721,10.046,0.721h0.717l17.292-0.505c0.335,0,1.579-0.071,3.732-0.216c0.765-0.047,1.458-0.071,2.08-0.071
			c2.487,0,3.731,1.104,3.731,3.312c0,0.385-0.068,1.608-0.206,3.672c-0.104,1.537-0.154,2.952-0.154,4.248
			c0,1.681,0.04,2.856,0.12,3.528c0.16,1.393,0.24,2.424,0.24,3.096c0,1.825-0.864,2.736-2.592,2.736s-2.592-1.278-2.592-3.834
			v-3.761c0-4.051-0.837-6.438-2.511-7.162c-1.244-0.53-4.45-0.796-9.616-0.796c-3.397,0-5.407,0.073-6.027,0.22
			c-2.058,0.537-3.086,1.999-3.086,4.389v3.24c0,0.385,0,0.912,0,1.584c0,0.673,0,1.151,0,1.439v0.937
			c0,1.92,0.425,3.023,1.278,3.312c0.331,0.097,0.899,0.145,1.705,0.145h2.911c2.982,0,4.474-1.032,4.474-3.096
			c0-0.576-0.061-1.32-0.18-2.232c-0.121-0.911-0.18-1.729-0.18-2.448c0-1.919,0.852-2.88,2.556-2.88
			c1.703,0,2.556,1.033,2.556,3.096c0,0.385-0.155,1.872-0.466,4.465c-0.266,2.208-0.398,4.152-0.398,5.831
			c0,0.961,0.096,2.664,0.288,5.112c0.047,0.385,0.167,1.225,0.36,2.521c0.144,1.056,0.216,1.896,0.216,2.52
			c0,1.729-0.864,2.592-2.592,2.592c-1.681,0-2.52-1.008-2.52-3.023c0-0.528,0.06-1.296,0.18-2.305
			c0.119-1.008,0.18-1.774,0.18-2.304c0-2.063-1.368-3.096-4.104-3.096h-3.24c-1.393,0-2.245,0.24-2.556,0.72
			c-0.312,0.48-0.468,1.512-0.468,3.096v4.465c0,0.768,0.023,1.8,0.072,3.096c0.047,1.584,0.072,2.641,0.072,3.168
			c0.047,1.92,0.432,3.121,1.152,3.6c0.528,0.337,1.775,0.504,3.744,0.504h9.792c2.832,0,4.775-0.419,5.832-1.26
			c1.055-0.839,1.584-2.412,1.584-4.716c0-0.72-0.036-1.788-0.108-3.204c-0.072-1.415-0.108-2.484-0.108-3.204
			c0-2.16,0.852-3.24,2.557-3.24c1.799,0,2.699,1.105,2.699,3.312c0,0.864-0.036,2.185-0.108,3.96
			c-0.072,1.776-0.108,3.096-0.108,3.96c0,0.673,0.036,1.668,0.108,2.988c0.072,1.32,0.108,2.316,0.108,2.987
			c0,2.257-1.105,3.385-3.312,3.385c-0.529,0-1.368-0.056-2.52-0.165c-0.576-0.055-1.632-0.082-3.168-0.082
			c0.335,0-1.537-0.055-5.616-0.164c-4.081-0.11-7.608-0.165-10.584-0.165c-4.512,0-8.928,0.169-13.248,0.504
			c-0.192,0-0.408,0.023-0.648,0.072c-0.241,0-0.385,0-0.432,0c-2.016,0-3.024-0.864-3.024-2.593c0-1.535,0.744-2.304,2.232-2.304
			c0.24,0,0.888,0.049,1.944,0.145c0.527,0.144,1.031,0.216,1.512,0.216c2.448,0,3.672-1.8,3.672-5.4V453.701z"/>
		<path d="M936.692,447.077l19.333,40.248V458.31c0-3.744-0.025-5.808-0.072-6.192c-0.432-2.495-1.632-3.744-3.6-3.744
			c-0.385,0-0.96,0.062-1.728,0.181c-0.768,0.12-1.344,0.18-1.728,0.18c-0.624,0-1.164-0.228-1.62-0.684
			c-0.457-0.456-0.684-0.996-0.684-1.62c0-1.729,1.08-2.592,3.24-2.592c0.432,0,0.744,0.024,0.936,0.071l3.24,0.433
			c1.44,0.192,2.783,0.288,4.032,0.288c1.248,0,2.904-0.132,4.968-0.396c0.72-0.088,1.559-0.197,2.52-0.33
			c0.096,0,0.263-0.021,0.504-0.065c0.191,0,0.36,0,0.504,0c2.063,0,3.096,0.827,3.096,2.483c0,1.608-0.978,2.412-2.932,2.412
			c-0.342,0-0.611,0-0.807,0h-0.732c-1.467,0-2.42,0.312-2.86,0.935c-0.44,0.624-0.709,1.989-0.806,4.098v4.097v7.332v19.193
			c0,3.308-0.375,5.632-1.122,6.973c-0.748,1.342-2.039,2.013-3.87,2.013c-2.363,0-4.365-1.68-6.005-5.04l-18.955-39.239v33.479
			c0,3.601,1.224,5.4,3.672,5.4c0.384,0,0.959-0.036,1.728-0.108c0.767-0.072,1.343-0.107,1.728-0.107
			c1.536,0,2.304,0.77,2.304,2.306c0,1.632-1.08,2.446-3.24,2.446c-0.097,0-0.241,0-0.432,0c-0.241-0.049-0.408-0.072-0.504-0.072
			l-2.952-0.432c-1.632-0.24-3.168-0.36-4.608-0.36c-1.249,0-2.856,0.12-4.824,0.36l-3.528,0.432c-0.097,0-0.264,0.023-0.504,0.072
			c-0.241,0-0.432,0-0.576,0c-2.064,0-3.096-0.84-3.096-2.521c0-1.487,0.767-2.231,2.304-2.231c0.24,0,0.888,0.048,1.944,0.144
			c0.527,0.145,1.031,0.216,1.512,0.216c2.448,0,3.672-1.8,3.672-5.399v-5.04v-6.336v-6.192v-11.376c0-3.6-1.238-5.4-3.716-5.4
			c-0.333,0-0.81,0.049-1.429,0.145c-0.906,0.144-1.573,0.216-2.001,0.216c-1.524,0-2.286-0.792-2.286-2.376
			c0-1.68,1.029-2.52,3.09-2.52c0.287,0,0.67,0.024,1.149,0.071c2.396,0.241,4.24,0.36,5.534,0.36c0.718,0,1.795-0.072,3.233-0.216
			c1.438-0.145,2.515-0.216,3.235-0.216c1.485,0,2.467,0.504,2.946,1.512L936.692,447.077z"/>
		<path d="M981.153,453.701c0-3.6-1.224-5.399-3.672-5.399c-0.432,0-0.936,0.038-1.512,0.114c-0.864,0.116-1.512,0.174-1.944,0.174
			c-1.488,0-2.232-0.757-2.232-2.27c0-1.655,1.08-2.482,3.24-2.482c0.239,0,0.551,0.024,0.936,0.071l3.816,0.504
			c1.44,0.192,2.976,0.288,4.608,0.288c1.343,0,2.688-0.071,4.032-0.216l4.68-0.504c0.911-0.096,2.112-0.144,3.6-0.144
			c4.367,0,8.016,0.624,10.944,1.871c3.84,1.633,6.876,4.465,9.108,8.496c2.232,4.032,3.348,8.712,3.348,14.04
			c0,4.705-0.889,8.94-2.664,12.708c-1.776,3.769-4.201,6.541-7.272,8.316c-3.697,2.16-8.161,3.24-13.392,3.24
			c-1.056,0-2.136-0.049-3.24-0.145l-4.968-0.432c-1.681-0.145-3.432-0.216-5.256-0.216c-1.584,0-2.88,0.071-3.888,0.216
			l-3.456,0.504c-0.097,0-0.265,0.023-0.504,0.072c-0.241,0-0.432,0-0.576,0c-2.064,0-3.096-0.84-3.096-2.521
			c0-0.672,0.216-1.235,0.648-1.691s0.96-0.685,1.584-0.685c0.528,0,1.176,0.072,1.944,0.216c0.335,0.097,0.839,0.145,1.512,0.145
			c2.448,0,3.672-1.8,3.672-5.4V453.701z M987.202,452.901v30.4c0,2.204,1.08,3.546,3.24,4.023c0.72,0.192,2.736,0.288,6.048,0.288
			c5.76,0,9.936-1.557,12.528-4.671c3.12-3.737,4.68-8.672,4.68-14.805c0-4.791-0.949-8.852-2.844-12.182
			c-1.897-3.33-4.5-5.475-7.812-6.433c-2.113-0.622-4.656-0.934-7.632-0.934c-3.792,0-6.109,0.216-6.948,0.646
			C987.621,449.668,987.202,450.89,987.202,452.901z"/>
		<path d="M1058.049,484.014l-2.592-7.057c-0.288-0.767-0.588-1.247-0.9-1.439c-0.313-0.191-0.948-0.288-1.908-0.288h-12.816
			c-0.96,0-1.62,0.169-1.98,0.504c-0.36,0.336-0.828,1.249-1.404,2.736l-2.088,5.544c-0.192,0.528-0.288,1.032-0.288,1.512
			c0,1.537,0.936,2.304,2.808,2.304c0.479,0,1.164-0.047,2.052-0.144c0.888-0.096,1.548-0.145,1.98-0.145
			c1.968,0,2.952,0.841,2.952,2.521c0,1.584-1.08,2.376-3.24,2.376c-0.385,0-0.912-0.049-1.584-0.145l-3.6-0.391
			c-0.672-0.074-1.776-0.113-3.312-0.113c-1.681,0-2.856,0.036-3.528,0.108l-3.024,0.324c-1.344,0.144-2.329,0.216-2.952,0.216
			c-1.872,0-2.808-0.792-2.808-2.376c0-1.68,0.912-2.521,2.736-2.521c0.383,0,0.671,0.097,0.864,0.288h0.936
			c1.296,0,2.279-0.505,2.952-1.517c0.288-0.385,0.767-1.516,1.44-3.395l13.392-36.334c0.767-2.023,2.279-3.034,4.536-3.034
			c2.208,0,3.672,1.008,4.392,3.023l12.888,35.712c0.815,2.257,1.559,3.744,2.232,4.464c0.672,0.721,1.631,1.08,2.88,1.08
			c0.384,0,0.672-0.031,0.864-0.096l2.016-0.192c1.824,0,2.736,0.792,2.736,2.374c0,1.682-0.913,2.522-2.736,2.522
			c-0.528,0-1.224-0.049-2.088-0.145c-3.024-0.335-5.281-0.504-6.768-0.504c-1.776,0-4.656,0.174-8.64,0.519
			c-1.008,0.086-1.776,0.13-2.304,0.13c-1.92,0-2.88-0.815-2.88-2.448c0-1.631,1.055-2.448,3.168-2.448
			c0.432,0,1.067,0.049,1.908,0.145c0.839,0.097,1.476,0.144,1.908,0.144c1.584,0,2.376-0.647,2.376-1.943
			C1058.625,485.694,1058.433,485.069,1058.049,484.014z M1052.866,469.325l-6.48-19.872l-6.624,19.872
			c-0.097,0.288-0.144,0.457-0.144,0.504c0,0.433,0.36,0.648,1.08,0.648h11.448c0.576,0,0.864-0.191,0.864-0.576
			C1053.01,469.806,1052.961,469.613,1052.866,469.325z"/>
	</g>
</g>
</svg>
