<?xml version="1.0" encoding="utf-8"?>
<!-- Generator: Adobe Illustrator 14.0.0, SVG Export Plug-In . SVG Version: 6.00 Build 43363)  -->
<!DOCTYPE svg PUBLIC "-//W3C//DTD SVG 1.1//EN" "http://www.w3.org/Graphics/SVG/1.1/DTD/svg11.dtd">
<svg version="1.1" id="Layer_1" xmlns="http://www.w3.org/2000/svg" xmlns:xlink="http://www.w3.org/1999/xlink" x="0px" y="0px"
	 width="800px" height="600px" viewBox="0 0 800 600" enable-background="new 0 0 800 600" xml:space="preserve">
<g>
	<path fill="#231F20" d="M277.286,323.732l-19.829,2.991l-4.653,6.204l-10.081-9.195c1.477-1.479,2.529-2.586,3.157-3.324
		c0.626-0.736,0.978-1.18,1.053-1.328v0.111c1.255-12.555,2.326-22.765,3.212-30.631c0.886-7.865,1.735-13.606,2.549-17.225
		c0.516-3.618,1.235-6.295,2.16-8.031c0.922-1.734,1.975-2.604,3.157-2.604c1.108,0,2.288,0.407,3.545,1.219
		c1.033,1.329,2.75,3.121,5.151,5.372c2.399,2.254,5.483,5.04,9.25,8.364v-22.488c0-2.363,0.037-4.375,0.111-6.037
		c0.073-1.662,0.258-2.897,0.555-3.71c0.072-1.699,0.664-2.991,1.772-3.877c1.107-0.886,2.621-1.33,4.542-1.33
		c0.958,1.701,1.845,3.565,2.659,5.595c0.811,2.032,1.624,4.228,2.437,6.591c-1.182,2.216-1.846,4.616-1.994,7.2v57.051
		c0,3.472,0.737,9.23,2.216,17.28l-7.089,2.438L277.286,323.732z M260.115,293.712c-0.813,6.646-1.588,14.401-2.326,23.263
		l18.167-2.77v-32.125l-1.662,1.662l-11.742-6.979C261.738,281.416,260.927,287.066,260.115,293.712z"/>
	<path fill="#231F20" d="M297.668,262.03c0.073,0.149,0.184,0.388,0.333,0.719c0.147,0.333,0.258,0.574,0.332,0.72
		c0.516,1.108,0.978,2.105,1.384,2.991c0.406,0.886,0.757,1.736,1.053,2.548l26.808-2.659l4.431-5.206l9.637,8.64
		c-3.25,2.807-4.874,4.359-4.874,4.652l-5.539,42.428l3.434,2.77v5.096l-29.467,1.108v4.651c0,1.624-0.462,2.77-1.384,3.435
		c-0.924,0.664-2.271,0.998-4.043,0.998l-6.758-9.195c0.444-1.479,0.812-2.863,1.108-4.154c0.294-1.293,0.516-2.492,0.665-3.6
		l-2.659-44.644c-0.148-1.107-0.442-2.658-0.886-4.652c-0.442-1.993-0.924-4.061-1.439-6.204l4.763-1.772L297.668,262.03z
		 M321.042,315.646l4.764-39.438l-23.263,2.438l2.215,37.332l15.73-0.332H321.042z"/>
	<path fill="#231F20" d="M360.478,272.997c-2.365,4.209-3.545,7.976-3.545,11.299v16.395c0,7.46-0.961,15.215-2.88,23.264
		c-0.887,3.912-2.16,7.754-3.822,11.52c-1.662,3.767-3.785,7.385-6.37,10.855c-2.512,3.324-5.909,6.684-10.191,10.081
		c-4.282,3.396-9.305,6.869-15.066,10.413l-2.659-7.864c4.431-2.881,8.217-5.744,11.354-8.586c3.14-2.844,5.706-5.558,7.7-8.142
		h-0.111c2.437-3.988,4.431-7.699,5.981-11.134c1.552-3.434,2.621-6.702,3.213-9.804c1.551-7.605,2.326-14.474,2.326-20.604v-21.158
		c0-3.175-0.924-6.942-2.77-11.3l4.321-4.874L360.478,272.997z M357.154,243.198v-0.111c2.584,1.625,3.877,3.583,3.877,5.872
		c0,2.585-0.518,5.871-1.551,9.859c-2.068,0-3.6-0.166-4.597-0.499c-0.997-0.332-1.682-1.014-2.05-2.049
		c-1.107-1.994-2.733-4.393-4.874-7.2c-2.143-2.806-4.985-6.129-8.53-9.971l3.323-6.314L357.154,243.198z"/>
	<path fill="#231F20" d="M370.226,262.03c0.072,0.149,0.184,0.388,0.332,0.719c0.147,0.333,0.258,0.574,0.332,0.72
		c0.517,1.108,0.979,2.105,1.385,2.991c0.405,0.886,0.756,1.736,1.053,2.548l26.809-2.659l4.431-5.206l9.637,8.64
		c-3.25,2.807-4.873,4.359-4.873,4.652l-5.539,42.428l3.434,2.77v5.096l-29.467,1.108v4.651c0,1.624-0.462,2.77-1.384,3.435
		c-0.925,0.664-2.271,0.998-4.044,0.998l-6.758-9.195c0.444-1.479,0.812-2.863,1.108-4.154c0.294-1.293,0.516-2.492,0.664-3.6
		l-2.658-44.644c-0.148-1.107-0.442-2.658-0.887-4.652c-0.442-1.993-0.924-4.061-1.439-6.204l4.763-1.772L370.226,262.03z
		 M393.6,315.646l4.764-39.438l-23.264,2.438l2.215,37.332l15.73-0.332H393.6z"/>
	<path fill="#231F20" d="M456.629,275.767v0.111l-0.775,2.215v16.728c-1.035,3.324-2.546,4.985-4.54,4.985
		c-0.591,0-1.106-0.037-1.551-0.111c-0.443-0.073-0.814-0.258-1.106-0.555c-1.702-2.141-3.732-4.431-6.095-6.868
		c-2.364-2.437-5.134-5.057-8.309-7.866l4.653-4.652l-10.412,1.44v35.116c0,4.875-0.26,8.197-0.775,9.97l0.109-0.11
		c-0.443,3.471-2.587,5.207-6.424,5.207c-1.702-3.103-3.362-7.201-4.987-12.297c1.109-1.994,1.734-4.357,1.885-7.09v-30.242
		c0-1.108-0.15-2.825-0.443-5.151c-0.296-2.326-0.702-5.261-1.218-8.807l6.756-2.437l2.88,6.204l19.83-2.548l3.545-5.539
		l10.746,8.53L456.629,275.767z M445.887,283.299v-4.432l-5.651,0.776L445.887,283.299z"/>
	<path fill="#231F20" d="M457.292,269.673l20.161-4.209l4.324-4.763l11.409,10.524c-3.916,2.29-5.982,4.58-6.206,6.868v33.566
		l17.061-13.736l7.089,3.545c-8.049,8.051-14.42,14.512-19.108,19.386c-4.691,4.874-7.662,8.197-8.917,9.97l-13.848-6.314
		c5.096-3.25,7.645-6.018,7.645-8.309v-39.99c-0.738,0.222-1.626,0.555-2.657,0.997c-1.035,0.444-2.052,0.886-3.047,1.33
		c-0.999,0.442-1.904,0.869-2.716,1.273c-0.811,0.407-1.366,0.721-1.662,0.941L457.292,269.673z M487.093,245.081v-0.111
		c2.585,1.625,3.876,3.583,3.876,5.872c0,2.585-0.516,5.871-1.551,9.859c-2.066,0-3.599-0.166-4.598-0.499
		c-0.995-0.333-1.68-1.014-2.048-2.049c-1.107-1.994-2.733-4.393-4.875-7.2c-2.143-2.806-4.983-6.129-8.528-9.971l3.324-6.314
		L487.093,245.081z"/>
	<path fill="#231F20" d="M512.904,262.03c0.072,0.149,0.184,0.388,0.332,0.719c0.147,0.333,0.256,0.574,0.331,0.72
		c0.516,1.108,0.978,2.105,1.385,2.991c0.404,0.886,0.758,1.736,1.054,2.548l26.807-2.659l4.432-5.206l9.636,8.64
		c-3.249,2.807-4.872,4.359-4.872,4.652l-5.539,42.428l3.434,2.77v5.096l-29.465,1.108v4.651c0,1.624-0.466,2.77-1.385,3.435
		c-0.927,0.664-2.272,0.998-4.046,0.998l-6.758-9.195c0.443-1.479,0.814-2.863,1.11-4.154c0.292-1.293,0.516-2.492,0.664-3.6
		l-2.658-44.644c-0.151-1.107-0.443-2.658-0.887-4.652c-0.443-1.993-0.924-4.061-1.439-6.204l4.761-1.772L512.904,262.03z
		 M536.278,315.646l4.764-39.438l-23.266,2.438l2.217,37.332l15.729-0.332H536.278z"/>
</g>
</svg>
