<?xml version="1.0" encoding="utf-8"?>
<!-- Generator: Adobe Illustrator 14.0.0, SVG Export Plug-In . SVG Version: 6.00 Build 43363)  -->
<!DOCTYPE svg PUBLIC "-//W3C//DTD SVG 1.1//EN" "http://www.w3.org/Graphics/SVG/1.1/DTD/svg11.dtd">
<svg version="1.1" id="Layer_1" xmlns="http://www.w3.org/2000/svg" xmlns:xlink="http://www.w3.org/1999/xlink" x="0px" y="0px"
	 width="1463px" height="768px" viewBox="0 0 1463 768" enable-background="new 0 0 1463 768" xml:space="preserve">
<g id="_x23_he_3d">
	<polygon fill="#CC9B2F" points="1279.502,544.232 914.239,591.531 1015.773,169.992 1381.041,122.685 	"/>
	<g>
		<path d="M42.719,451.136h22.322l8.73-32.311H51.369l4.931-18.416h22.448l12.038-44.551h21.931l-12.039,44.551h18.049
			l11.944-44.551h21.92l-11.946,44.551h22.417l-4.933,18.416h-22.42l-8.664,32.311h22.436l-4.93,18.416h-22.444l-11.827,44.11
			H88.361l11.827-44.11H81.994l-11.918,44.11H48.146l11.918-44.11H37.789L42.719,451.136z M105.125,451.136l8.663-32.311H95.701
			l-8.73,32.311H105.125z"/>
		<path d="M253.152,394.127c6.038,2.576,10.999,6.513,14.879,11.81c3.292,4.49,5.305,9.108,6.038,13.854
			c0.732,4.745,1.099,12.49,1.099,23.232v70.64h-32.09v-73.195c0-6.477-1.096-11.703-3.284-15.677
			c-2.847-5.593-8.247-8.391-16.2-8.391c-8.247,0-14.505,2.779-18.774,8.336c-4.27,5.557-6.403,13.486-6.403,23.79v65.137h-31.429
			V351.668h31.429v57.343c4.538-6.983,9.79-11.854,15.755-14.611s12.242-4.136,18.831-4.136
			C240.397,390.264,247.113,391.553,253.152,394.127z"/>
		<path d="M393.67,498.958c-10.146,12.522-25.548,18.784-46.206,18.784c-20.66,0-36.06-6.262-46.206-18.784
			c-10.145-12.523-15.218-27.601-15.218-45.23c0-17.334,5.073-32.355,15.218-45.063c10.146-12.707,25.546-19.062,46.206-19.062
			c20.658,0,36.06,6.354,46.206,19.062c10.145,12.708,15.218,27.729,15.218,45.063C408.888,471.357,403.815,486.435,393.67,498.958z
			 M368.527,481.588c4.925-6.534,7.389-15.819,7.389-27.86c0-12.039-2.464-21.308-7.389-27.804
			c-4.926-6.495-11.984-9.745-21.173-9.745c-9.191,0-16.266,3.25-21.228,9.745c-4.962,6.496-7.443,15.765-7.443,27.804
			c0,12.041,2.481,21.326,7.443,27.86c4.962,6.533,12.037,9.799,21.228,9.799C356.543,491.387,363.601,488.121,368.527,481.588z"/>
		<path d="M486.864,390.649c0.403,0.038,1.304,0.094,2.702,0.166v32.2c-1.985-0.221-3.75-0.367-5.293-0.441
			c-1.544-0.072-2.795-0.11-3.75-0.11c-12.646,0-21.137,4.118-25.474,12.352c-2.426,4.631-3.639,11.763-3.639,21.394v57.453h-31.649
			v-120.2h29.995v20.952c4.852-8.012,9.079-13.489,12.682-16.431c5.881-4.925,13.526-7.389,22.938-7.389
			C485.962,390.595,486.459,390.613,486.864,390.649z"/>
		<path d="M544.297,440.55c5.85-0.734,10.034-1.654,12.553-2.757c4.518-1.911,6.777-4.889,6.777-8.933
			c0-4.925-1.733-8.326-5.199-10.2c-3.465-1.875-8.551-2.812-15.257-2.812c-7.526,0-12.856,1.839-15.985,5.514
			c-2.237,2.721-3.727,6.396-4.472,11.027h-30.326c0.664-10.512,3.617-19.149,8.86-25.914c8.343-10.587,22.667-15.88,42.973-15.88
			c13.216,0,24.955,2.61,35.219,7.829c10.263,5.222,15.394,15.072,15.394,29.555v55.138c0,3.823,0.072,8.455,0.22,13.895
			c0.221,4.118,0.844,6.911,1.875,8.381c1.028,1.472,2.572,2.685,4.631,3.639v4.632h-34.186c-0.956-2.426-1.618-4.704-1.985-6.837
			c-0.369-2.132-0.662-4.558-0.882-7.278c-4.363,4.706-9.392,8.712-15.085,12.02c-6.803,3.896-14.495,5.845-23.072,5.845
			c-10.945,0-19.984-3.106-27.119-9.318c-7.137-6.211-10.704-15.015-10.704-26.41c0-14.777,5.739-25.474,17.218-32.091
			c6.296-3.601,15.554-6.175,27.774-7.719L544.297,440.55z M563.515,455.216c-2.012,1.251-4.044,2.261-6.093,3.033
			c-2.05,0.771-4.862,1.488-8.439,2.15l-7.154,1.323c-6.706,1.177-11.522,2.61-14.446,4.301c-4.95,2.867-7.425,7.315-7.425,13.343
			c0,5.367,1.511,9.246,4.535,11.635c3.022,2.39,6.699,3.583,11.029,3.583c6.868,0,13.193-1.984,18.979-5.954
			c5.786-3.971,8.79-11.211,9.013-21.725V455.216z"/>
		<path d="M689.328,395.896c8.384,3.756,15.31,9.684,20.771,17.782c4.923,7.142,8.116,15.425,9.577,24.85
			c0.846,5.522,1.191,13.475,1.036,23.855h-87.545c0.488,12.059,4.678,20.512,12.57,25.363c4.8,3.016,10.576,4.521,17.329,4.521
			c7.159,0,12.976-1.837,17.451-5.514c2.44-1.985,4.597-4.742,6.468-8.271h32.087c-0.846,7.132-4.73,14.374-11.651,21.725
			c-10.768,11.688-25.841,17.533-45.222,17.533c-15.997,0-30.11-4.93-42.339-14.789s-18.342-25.9-18.342-48.123
			c0-20.821,5.519-36.789,16.559-47.899c11.038-11.11,25.367-16.667,42.983-16.667C671.52,390.264,680.943,392.142,689.328,395.896z
			 M642.311,423.047c-4.442,4.578-7.231,10.779-8.372,18.605h54.145c-0.572-8.343-3.361-14.674-8.372-18.993
			c-5.011-4.32-11.224-6.48-18.64-6.48C653.004,416.179,646.751,418.469,642.311,423.047z"/>
		<path d="M713.348,513.662l41.022-60.872l-39.258-59.107h38.486l20.081,34.815l19.619-34.815h37.383l-39.479,58.556l41.022,61.424
			h-39.147l-20.687-36.138l-20.887,36.138H713.348z"/>
		<path d="M827.273,416.95v-22.386h16.762v-33.523h31.098v33.523h19.519v22.386h-19.519v63.519c0,4.927,0.624,7.995,1.875,9.208
			c1.25,1.214,5.073,1.82,11.469,1.82c0.955,0,1.966-0.018,3.033-0.056c1.065-0.036,2.112-0.091,3.143-0.165v23.488l-14.887,0.552
			c-14.851,0.514-24.997-2.058-30.436-7.72c-3.529-3.601-5.293-9.152-5.293-16.651V416.95H827.273z"/>
		<path d="M970.312,390.649c0.403,0.038,1.304,0.094,2.702,0.166v32.2c-1.985-0.221-3.75-0.367-5.293-0.441
			c-1.545-0.072-2.795-0.11-3.75-0.11c-12.646,0-21.137,4.118-25.474,12.352c-2.426,4.631-3.639,11.763-3.639,21.394v57.453h-31.649
			v-120.2h29.995v20.952c4.852-8.012,9.079-13.489,12.682-16.431c5.881-4.925,13.527-7.389,22.937-7.389
			C969.41,390.595,969.906,390.613,970.312,390.649z"/>
		<path d="M1027.745,440.55c5.851-0.734,10.034-1.654,12.553-2.757c4.518-1.911,6.776-4.889,6.776-8.933
			c0-4.925-1.732-8.326-5.198-10.2c-3.465-1.875-8.552-2.812-15.257-2.812c-7.527,0-12.856,1.839-15.985,5.514
			c-2.237,2.721-3.728,6.396-4.472,11.027h-30.326c0.664-10.512,3.617-19.149,8.861-25.914c8.342-10.587,22.666-15.88,42.973-15.88
			c13.215,0,24.955,2.61,35.219,7.829c10.263,5.222,15.395,15.072,15.395,29.555v55.138c0,3.823,0.072,8.455,0.22,13.895
			c0.221,4.118,0.845,6.911,1.875,8.381c1.028,1.472,2.572,2.685,4.632,3.639v4.632h-34.186c-0.957-2.426-1.618-4.704-1.985-6.837
			c-0.368-2.132-0.661-4.558-0.882-7.278c-4.363,4.706-9.393,8.712-15.086,12.02c-6.803,3.896-14.494,5.845-23.071,5.845
			c-10.944,0-19.983-3.106-27.119-9.318c-7.138-6.211-10.704-15.015-10.704-26.41c0-14.777,5.74-25.474,17.219-32.091
			c6.297-3.601,15.555-6.175,27.773-7.719L1027.745,440.55z M1046.963,455.216c-2.013,1.251-4.045,2.261-6.094,3.033
			c-2.05,0.771-4.861,1.488-8.439,2.15l-7.153,1.323c-6.706,1.177-11.522,2.61-14.446,4.301c-4.95,2.867-7.425,7.315-7.425,13.343
			c0,5.367,1.511,9.246,4.535,11.635c3.022,2.39,6.699,3.583,11.029,3.583c6.868,0,13.193-1.984,18.979-5.954
			c5.786-3.971,8.789-11.211,9.014-21.725V455.216z"/>
	</g>
	<polygon fill="#F6C535" points="1442.039,589.58 1078.932,636.88 1018.125,170.169 1381.233,122.862 	"/>
	<g>
		<path stroke="#000000" d="M1215.968,418.45l-6.566,72.011c0,0-1.477,11.544,8.938,12.425c10.43,0.882,10.89-8.129,10.89-8.129
			l7.771-81.4l-0.565-4.404l2.935-0.388l0.602,4.556l28.306,76.24c0,0,2.241,8.068,12.284,6.012
			c10.043-2.054,6.381-12.932,6.381-12.932l-25.42-71.385l-6.415-49.204l28.562,42.735c0,0,3.87,4.429,9.506,0.707
			c5.632-3.728,2.853-10.235,2.853-10.235l-45.977-71.997l-46.712,6.095l-45.23,15.293c0,0-6.416,2.345-5.563,8.808
			c0.83,6.452,6.44,7.067,6.44,7.067l38.347,7.708c0,0,8.867,1.538,9.484-6.472c0.594-7.99-5.028-8.752-5.028-8.752l-9.964-3.038
			l14.653-4.446L1215.968,418.45z"/>
		<polygon fill="#F6C535" points="1211.843,350.932 1210.29,351.118 1211.188,358.027 1216.621,359.793 1222.767,358.998 
			1226.708,355.683 1225.818,348.854 1223.1,349.197 1222.688,346.09 1219.77,346.503 1220.224,349.973 1218.679,350.176 
			1217.931,344.655 1215.144,344.976 1215.908,350.566 1214.607,350.758 1214.02,346.204 1211.313,346.598 		"/>
		<polygon fill="#F6C535" stroke="#000000" stroke-width="3" points="1198.757,414.438 1138.833,422.244 1131.306,364.513 
			1191.236,356.697 		"/>
		
			<rect x="1139.551" y="363.734" transform="matrix(0.9916 -0.1293 0.1293 0.9916 -40.5414 153.9006)" fill="#F6C535" stroke="#000000" stroke-width="3" width="50.89" height="50.892"/>
		<polygon fill="#F6C535" stroke="#000000" stroke-width="3" points="1191.663,420.751 1147.304,426.538 1146.611,421.244 
			1190.979,415.474 		"/>
		<polygon stroke="#000000" points="1199.104,428.007 1141.972,435.448 1140.863,426.929 1197.997,419.495 		"/>
		<polygon stroke="#000000" points="1209.585,434.55 1133.505,444.461 1131.797,431.391 1207.888,421.479 		"/>
		<path stroke="#000000" d="M1251.852,289.601c2.095,15.978-9.169,30.62-25.157,32.704c-15.982,2.084-30.62-9.182-32.709-25.171
			c-2.087-15.982,9.183-30.621,25.172-32.705C1235.144,262.345,1249.777,273.608,1251.852,289.601z"/>
		<path fill="none" stroke="#000000" stroke-width="4" stroke-linecap="round" stroke-linejoin="bevel" d="M1218.21,254.164
			l-2.486,1.52c0,0-3.508,1.803,0.472,3.672l2.413,0.138c0,0,1.889-0.406,2.062,2.109l0.098,1.94"/>
		<g>
			<path fill="#F6C535" d="M1216.52,278.956l-12.903,5.271c0,0,2.396,8.129,5.146,10.229c0,0,3.125,4.523,7.486,2.464
				c4.366-2.056,4.638-5.684,4.638-5.684l-0.354-5.622l-1.182-1.042l4.175-0.554l-0.56,1.349l0.926,5.477
				c0,0,1.661,5.834,6.845,4.858c5.17-0.97,6.242-4.238,6.242-4.238s2.664-6.479,2.251-12.019l-14.66-1.234l-0.567,2.54
				l-0.762-1.243l-3.833,0.416l-0.118,1.369L1216.52,278.956z"/>
			<path d="M1208.004,286.335l7.331-3.337c0,0,1.369,3.038,1.515,6.527c0,0,0.278,3.249-2.041,3.781
				c-2.326,0.532-3.7-1.463-3.7-1.463L1208.004,286.335z"/>
			<path d="M1227.362,281.959l7.845,1.061c0,0-0.383,5.13-2.146,7.079c-1.751,1.954-3.479,1.344-3.479,1.344
				s-1.468,0.191-1.904-3.633L1227.362,281.959z"/>
		</g>
	</g>
	<path d="M1384.063,206.133c0.866,6.692-3.843,12.818-10.533,13.691l-318.089,41.443c-6.697,0.868-12.805-3.836-13.689-10.529
		l-8.15-62.658c-0.875-6.684,3.836-12.806,10.52-13.675l318.093-41.442c6.69-0.873,12.816,3.837,13.683,10.521L1384.063,206.133z"/>
	
		<text transform="matrix(0.9916 -0.1292 0.1292 0.9916 1077.6553 237.1714)" fill="#F6C535" font-family="'Helvetica'" font-size="65.0431" letter-spacing="-3">CAUTION</text>
	<text transform="matrix(0.9916 -0.1292 0.1292 0.9916 1079.4229 568.6465)"><tspan x="0" y="0" font-family="'Helvetica'" font-size="41.0761">COMPUTER NERD</tspan><tspan x="84.349" y="49.291" font-family="'Helvetica'" font-size="41.0761">AT WORK</tspan></text>
	<linearGradient id="SVGID_1_" gradientUnits="userSpaceOnUse" x1="1240.7871" y1="101.9336" x2="1199.9362" y2="489.0468">
		<stop  offset="0" style="stop-color:#FFFFFF;stop-opacity:0.5"/>
		<stop  offset="1" style="stop-color:#FFFFFF;stop-opacity:0"/>
	</linearGradient>
	<polygon fill="url(#SVGID_1_)" points="1422.039,435.58 1048.932,402.88 1017.125,170.169 1380.233,122.862 	"/>
</g>
</svg>
