<?xml version="1.0" encoding="utf-8"?>
<!-- Generator: Adobe Illustrator 15.0.0, SVG Export Plug-In . SVG Version: 6.00 Build 0)  -->
<!DOCTYPE svg PUBLIC "-//W3C//DTD SVG 1.1//EN" "http://www.w3.org/Graphics/SVG/1.1/DTD/svg11.dtd">
<svg version="1.1" id="Layer_1" xmlns="http://www.w3.org/2000/svg" xmlns:xlink="http://www.w3.org/1999/xlink" x="0px" y="0px"
	 width="2000px" height="1000px" viewBox="0 0 2000 1000" enable-background="new 0 0 2000 1000" xml:space="preserve">
<g>
	<polygon fill-rule="evenodd" clip-rule="evenodd" points="1774.072,104 999.536,104 999.536,895.658 1774.072,895.658 
		1774.072,104 	"/>
	<path fill-rule="evenodd" clip-rule="evenodd" fill="#75C4E4" d="M557.049,586.049c-23.33,101.961,170.057-103.5,179.86,100.467
		c0.468,9.734-4.761-7.684-13.035-11.695s1.296-10.988-7.552-23.863c-22.305-27.893-50.758-33.336-90.557-30.504
		c3.188,0.436,6.433,1.012,9.726,1.756c50.312,11.373,78.227,54.418,76.436,76.389c-1.79,21.973-21.029,43.17-46.096,41.49
		c0,0,9.567-4.506,10.93-8.295c1.362-3.787,5.754-12.6,10.712-14.484c4.954-1.887,4.847-4.98-1.108-7.121
		c-5.953-2.143-11.993-0.646-15.931-3.287l-3.594-1.904c0,0,4.501-5.715,6.903-7.295c2.401-1.582,15.819-15.094,3.753-35.934
		c-12.062-20.842-30.245-21.27-30.245-21.27s23.016,19.279,25.059,40.795l-9.938-2.963c0,0-4.672,12.988-18.679,12.842
		c-14.003-0.146-11.908-4.283-11.908-4.283s8.682-5.434,8.287-19.635c-0.142-59.795-146.969-11.051-134.718-30.855
		c8.385-13.555-47.591-59.211-52.295-27.273c-1.339,9.092,8.168,11.182,8.168,11.182c-32.099,32.463-58.536-56.553,12.861-36.109
		c5.839,1.672,9.591-0.412,1.171-8.506c-8.419-8.094-35.854-15.947-35.854-15.945c0,0,0-0.002,13.512-3.08
		c13.513-3.08-2.827-16.602-17.087-21.943c-14.258-5.346-25.935-4.268-29.778,9.16c-3.843,13.428-36.611-6.689-10.499-20.688
		c39.932-25.485,97.619,4.234,115.261,48.041c7.296,19.791,3.399,24.189,5.298,24.529c20.067-42.686-41.456-74.541-11.283-134.09
		c-5.241,1.937-21.23,14.079-22.316,31.222c-5.972-5.951-5.751-14.691-5.721-20.186c-5.869,11.684-8.12,16.324-3.531,29.509
		c-51.419-32.235-94.038,6.607-85.687-11.335C449.896,411.965,586.703,365.826,557.049,586.049L557.049,586.049z"/>
	<path d="M455.727,279.812v115.09h2.334c2.397,0,3.964-0.447,4.731-1.311c0.799-0.863,1.183-3.197,1.183-6.938v-0.927v-97.475
		c0-3.868-0.416-6.266-1.215-7.129c-0.831-0.863-2.494-1.311-5.051-1.311H455.727L455.727,279.812z M637.218,360.57h9.588v54.665
		h-9.588V360.57L637.218,360.57z M637.218,348.251h9.588v7.328h-9.588V348.251L637.218,348.251z M672.704,373.052v42.183h-9.834
		v-44.163c0-0.963-0.124-1.637-0.357-2.036c-0.248-0.385-0.646-0.578-1.21-0.578c-0.563,0-0.963,0.192-1.21,0.564
		c-0.234,0.371-0.358,1.059-0.358,2.049v44.163h-9.792v-54.561h9.792v2.256c0.853-0.853,1.774-1.513,2.737-1.967
		c0.963-0.454,1.939-0.688,2.902-0.688c2.655,0,4.539,0.867,5.653,2.613C672.14,364.635,672.704,368.032,672.704,373.052
		L672.704,373.052z M602.275,446.053v47.57c0.319,0,0.735,0.032,1.279,0.096c0.511,0.064,0.863,0.096,1.055,0.096
		c2.398,0,3.996-0.543,4.828-1.63c0.863-1.119,1.278-3.229,1.278-6.426V455.9c0-4.7-0.447-7.513-1.311-8.44
		c-0.863-0.927-2.653-1.407-5.339-1.407H602.275L602.275,446.053z M575.677,425.721h32.609c11.605,0,19.341,1.95,23.178,5.851
		c3.836,3.9,5.754,12.5,5.754,25.799v20.333c0,8.759-0.895,14.897-2.653,18.446c-1.79,3.581-4.923,6.362-9.431,8.44
		c4.38,1.693,7.481,4.283,9.335,7.832c1.822,3.516,2.749,8.887,2.749,16.145v52.91h-26.503v-57.674c0-2.557-0.479-4.412-1.438-5.498
		c-0.991-1.088-2.589-1.631-4.859-1.631c-0.224,0-0.607,0.031-1.055,0.096c-0.479,0.064-0.831,0.096-1.087,0.096v64.611h-26.599
		V425.721L575.677,425.721z M649.942,454.461h22.762v127.016h-22.762V454.461L649.942,454.461z M649.942,425.721h22.762v18.254
		h-22.762V425.721L649.942,425.721z M706.496,477.895v80.148c0,2.301,0.319,3.963,0.927,5.018c0.64,1.023,1.599,1.535,2.909,1.535
		c1.247,0,2.142-0.416,2.654-1.277c0.543-0.832,0.799-2.59,0.799-5.275v-80.148c0-2.302-0.256-3.932-0.799-4.923
		c-0.512-0.959-1.407-1.439-2.654-1.439c-1.438,0-2.43,0.448-3.005,1.311C706.784,473.707,706.496,475.401,706.496,477.895
		L706.496,477.895z M683.638,478.278c0-10.006,1.727-16.592,5.147-19.789c3.453-3.165,10.55-4.763,21.356-4.763
		c10.869,0,18.031,1.63,21.483,4.923c3.485,3.261,5.211,9.814,5.211,19.629v79.571c0,9.879-1.726,16.4-5.211,19.598
		c-3.453,3.166-10.742,4.764-21.867,4.764c-10.678,0-17.679-1.598-21.068-4.826c-3.356-3.23-5.051-9.719-5.051-19.535V478.278
		L683.638,478.278z M429.128,259.479h32.609c12.212,0,20.108,1.822,23.625,5.435c3.548,3.613,5.307,12.373,5.307,26.215v92.264
		c0,14.035-1.758,22.858-5.307,26.471c-3.517,3.581-11.35,5.371-23.434,5.371h-32.801V259.479L429.128,259.479z M524.461,337.964
		h7.289v-26.311c0-2.302-0.256-3.932-0.799-4.923c-0.512-0.959-1.407-1.438-2.653-1.438c-1.439,0-2.43,0.448-3.005,1.311
		c-0.543,0.863-0.831,2.558-0.831,5.051V337.964L524.461,337.964z M524.461,355.58v36.221c0,2.43,0.288,4.125,0.831,5.115
		c0.575,0.959,1.502,1.438,2.813,1.438c1.311,0,2.238-0.447,2.813-1.311c0.543-0.863,0.831-2.622,0.831-5.243v-23.562h23.05v23.37
		c0,9.879-1.726,16.4-5.211,19.598c-3.453,3.165-10.742,4.764-21.867,4.764c-10.678,0-17.679-1.599-21.068-4.828
		c-3.357-3.197-5.051-9.719-5.051-19.534v-79.572c0-10.006,1.726-16.592,5.147-19.789c3.453-3.166,10.55-4.764,21.355-4.764
		c10.87,0,18.031,1.63,21.483,4.923c3.485,3.261,5.211,9.814,5.211,19.629v43.542H524.461L524.461,355.58z M561.93,288.22h22.187
		l4.412,84.943h0.927l4.508-84.943h22.187l-13.939,127.015h-26.535L561.93,288.22L561.93,288.22z"/>
	<g>
		<path fill="#E27A0A" d="M779.062,533.469v7.696c0,1.445-0.139,2.807-0.416,4.083c-0.277,1.277-0.729,2.65-1.355,4.119
			l-10.659,24.354h12.43v8.13h-23.667v-8.13l11.743-26.811c0.578-1.252,0.963-2.336,1.156-3.252
			c0.192-0.915,0.301-1.938,0.325-3.071v-8.527c0-0.987-0.121-1.668-0.361-2.041c-0.241-0.374-0.663-0.561-1.265-0.561
			c-0.554,0-0.952,0.199-1.192,0.596c-0.241,0.398-0.361,1.066-0.361,2.006v10.406h-10.226v-8.997c0-5.396,0.716-8.744,2.15-10.045
			c1.433-1.301,4.667-1.951,9.702-1.951c5.227,0,8.533,0.741,9.918,2.222C778.369,525.177,779.062,528.435,779.062,533.469z"/>
		<path fill="#E27A0A" d="M783.47,533.469c0-5.323,0.716-8.653,2.15-9.991c1.433-1.336,4.667-2.005,9.702-2.005
			c5.131,0,8.401,0.692,9.81,2.077c1.409,1.386,2.114,4.692,2.114,9.919v36.675c0,5.275-0.711,8.594-2.132,9.955
			c-1.421,1.36-4.637,2.041-9.647,2.041c-5.155,0-8.443-0.692-9.864-2.078c-1.421-1.385-2.132-4.69-2.132-9.918V533.469z
			 M793.696,532.06v39.493c0,0.916,0.132,1.566,0.397,1.951c0.265,0.386,0.698,0.578,1.301,0.578c0.578,0,0.981-0.181,1.21-0.542
			c0.229-0.361,0.343-1.023,0.343-1.987V532.06c0-0.939-0.133-1.607-0.397-2.006c-0.265-0.396-0.699-0.596-1.301-0.596
			c-0.554,0-0.952,0.199-1.192,0.596C793.816,530.452,793.696,531.12,793.696,532.06z"/>
		<path fill="#E27A0A" d="M817.146,521.762h8.274v60.089h-10.261v-44.335h-5.203l0.036-7.985c2.047-0.217,3.704-1.012,4.968-2.385
			S816.953,523.979,817.146,521.762z"/>
		<path fill="#E27A0A" d="M837.271,521.762h8.275v60.089h-10.262v-44.335h-5.203l0.035-7.985c2.048-0.217,3.704-1.012,4.969-2.385
			S837.079,523.979,837.271,521.762z"/>
	</g>
</g>
<path fill-rule="evenodd" clip-rule="evenodd" fill="#75C4E4" d="M1319.867,586.219c-23.33,101.961,170.057-103.5,179.86,100.467
	c0.468,9.734-4.761-7.684-13.034-11.695s1.295-10.988-7.553-23.863c-22.305-27.893-50.758-33.336-90.557-30.504
	c3.188,0.436,6.433,1.012,9.727,1.756c50.311,11.373,78.227,54.418,76.436,76.389c-1.791,21.973-21.029,43.17-46.096,41.49
	c0,0,9.566-4.506,10.93-8.295c1.361-3.787,5.754-12.6,10.712-14.484c4.954-1.887,4.847-4.98-1.108-7.121
	c-5.953-2.143-11.992-0.646-15.931-3.287l-3.595-1.904c0,0,4.502-5.715,6.903-7.295c2.401-1.582,15.819-15.094,3.753-35.934
	c-12.062-20.842-30.244-21.27-30.244-21.27s23.016,19.279,25.059,40.795l-9.938-2.963c0,0-4.672,12.988-18.68,12.842
	c-14.002-0.146-11.907-4.283-11.907-4.283s8.683-5.434,8.287-19.635c-0.142-59.795-146.97-11.051-134.718-30.855
	c8.385-13.555-47.592-59.211-52.296-27.273c-1.339,9.092,8.168,11.182,8.168,11.182c-32.099,32.463-58.536-56.553,12.86-36.109
	c5.84,1.672,9.592-0.412,1.172-8.506s-35.854-15.947-35.855-15.945c0,0,0.001-0.002,13.512-3.08
	c13.514-3.08-2.826-16.602-17.087-21.943c-14.258-5.346-25.935-4.268-29.778,9.16c-3.843,13.428-36.611-6.689-10.498-20.688
	c39.932-25.485,97.618,4.234,115.26,48.041c7.297,19.791,3.4,24.189,5.299,24.529c20.066-42.686-41.456-74.541-11.283-134.09
	c-5.242,1.937-21.23,14.079-22.316,31.222c-5.972-5.951-5.752-14.691-5.721-20.186c-5.869,11.684-8.12,16.324-3.531,29.509
	c-51.42-32.235-94.037,6.607-85.687-11.335C1212.715,412.135,1349.521,365.996,1319.867,586.219L1319.867,586.219z"/>
<path fill="#FFFFFF" d="M1218.545,279.982v115.09h2.334c2.398,0,3.965-0.447,4.731-1.311c0.8-0.863,1.183-3.197,1.183-6.938v-0.927
	v-97.475c0-3.868-0.416-6.266-1.215-7.129c-0.83-0.863-2.493-1.311-5.051-1.311H1218.545L1218.545,279.982z M1400.036,360.74h9.589
	v54.665h-9.589V360.74L1400.036,360.74z M1400.036,348.421h9.589v7.328h-9.589V348.421L1400.036,348.421z M1435.522,373.222v42.183
	h-9.834v-44.163c0-0.963-0.124-1.637-0.357-2.036c-0.247-0.385-0.646-0.578-1.21-0.578c-0.564,0-0.963,0.192-1.211,0.564
	c-0.233,0.371-0.357,1.059-0.357,2.049v44.163h-9.793v-54.561h9.793v2.256c0.854-0.853,1.773-1.513,2.736-1.967
	c0.963-0.454,1.939-0.688,2.902-0.688c2.654,0,4.539,0.867,5.653,2.613S1435.522,368.202,1435.522,373.222L1435.522,373.222z
	 M1365.094,446.223v47.57c0.319,0,0.734,0.032,1.279,0.096c0.511,0.064,0.863,0.096,1.055,0.096c2.397,0,3.996-0.543,4.827-1.63
	c0.862-1.119,1.278-3.229,1.278-6.426V456.07c0-4.7-0.447-7.513-1.311-8.44c-0.863-0.927-2.653-1.407-5.339-1.407H1365.094
	L1365.094,446.223z M1338.495,425.891h32.608c11.605,0,19.342,1.95,23.178,5.851c3.837,3.9,5.755,12.5,5.755,25.799v20.333
	c0,8.759-0.896,14.897-2.653,18.446c-1.79,3.581-4.924,6.362-9.432,8.44c4.381,1.693,7.481,4.283,9.336,7.832
	c1.822,3.516,2.749,8.887,2.749,16.145v52.91h-26.503v-57.674c0-2.557-0.479-4.412-1.438-5.498
	c-0.991-1.088-2.589-1.631-4.858-1.631c-0.225,0-0.607,0.031-1.056,0.096c-0.479,0.064-0.831,0.096-1.087,0.096v64.611h-26.599
	V425.891L1338.495,425.891z M1412.76,454.631h22.763v127.016h-22.763V454.631L1412.76,454.631z M1412.76,425.891h22.763v18.254
	h-22.763V425.891L1412.76,425.891z M1469.314,478.065v80.148c0,2.301,0.319,3.963,0.927,5.018c0.64,1.023,1.599,1.535,2.909,1.535
	c1.247,0,2.143-0.416,2.654-1.277c0.543-0.832,0.799-2.59,0.799-5.275v-80.148c0-2.302-0.256-3.932-0.799-4.923
	c-0.512-0.959-1.407-1.439-2.654-1.439c-1.438,0-2.43,0.448-3.005,1.311C1469.602,473.876,1469.314,475.571,1469.314,478.065
	L1469.314,478.065z M1446.456,478.448c0-10.006,1.727-16.592,5.147-19.789c3.452-3.165,10.55-4.763,21.355-4.763
	c10.869,0,18.031,1.63,21.483,4.923c3.485,3.261,5.211,9.814,5.211,19.629v79.571c0,9.879-1.726,16.4-5.211,19.598
	c-3.452,3.166-10.741,4.764-21.867,4.764c-10.678,0-17.679-1.598-21.067-4.826c-3.357-3.23-5.052-9.719-5.052-19.535V478.448
	L1446.456,478.448z M1191.947,259.649h32.608c12.212,0,20.108,1.822,23.626,5.435c3.548,3.613,5.307,12.373,5.307,26.215v92.264
	c0,14.035-1.759,22.858-5.307,26.471c-3.518,3.581-11.35,5.371-23.434,5.371h-32.801V259.649L1191.947,259.649z M1287.279,338.134
	h7.289v-26.311c0-2.302-0.256-3.932-0.799-4.923c-0.512-0.959-1.406-1.438-2.653-1.438c-1.438,0-2.431,0.448-3.005,1.311
	c-0.544,0.863-0.832,2.558-0.832,5.051V338.134L1287.279,338.134z M1287.279,355.75v36.221c0,2.43,0.288,4.125,0.832,5.115
	c0.574,0.959,1.502,1.438,2.812,1.438s2.238-0.447,2.814-1.311c0.543-0.863,0.83-2.622,0.83-5.243v-23.562h23.051v23.37
	c0,9.879-1.727,16.4-5.211,19.598c-3.453,3.165-10.742,4.764-21.867,4.764c-10.678,0-17.68-1.599-21.068-4.828
	c-3.357-3.197-5.051-9.719-5.051-19.534v-79.572c0-10.006,1.727-16.592,5.146-19.789c3.453-3.166,10.551-4.764,21.355-4.764
	c10.87,0,18.031,1.63,21.484,4.923c3.484,3.261,5.211,9.814,5.211,19.629v43.542H1287.279L1287.279,355.75z M1324.748,288.39h22.188
	l4.411,84.943h0.927l4.508-84.943h22.188l-13.939,127.015h-26.534L1324.748,288.39L1324.748,288.39z"/>
<g>
	<path fill="#E27A0A" d="M1541.881,533.639v7.696c0,1.445-0.139,2.807-0.416,4.083c-0.277,1.277-0.729,2.65-1.355,4.119
		l-10.658,24.354h12.43v8.13h-23.668v-8.13l11.744-26.811c0.578-1.252,0.963-2.336,1.156-3.252c0.191-0.915,0.301-1.938,0.324-3.071
		v-8.527c0-0.987-0.12-1.668-0.361-2.041c-0.24-0.374-0.662-0.561-1.264-0.561c-0.555,0-0.952,0.199-1.193,0.596
		c-0.24,0.398-0.361,1.066-0.361,2.006v10.406h-10.225v-8.997c0-5.396,0.716-8.744,2.149-10.045
		c1.433-1.301,4.667-1.951,9.702-1.951c5.227,0,8.533,0.741,9.918,2.222C1541.188,525.347,1541.881,528.604,1541.881,533.639z"/>
	<path fill="#E27A0A" d="M1546.289,533.639c0-5.323,0.716-8.653,2.149-9.991c1.433-1.336,4.667-2.005,9.702-2.005
		c5.131,0,8.4,0.692,9.81,2.077c1.409,1.386,2.114,4.692,2.114,9.919v36.675c0,5.275-0.711,8.594-2.133,9.955
		c-1.421,1.36-4.637,2.041-9.646,2.041c-5.156,0-8.443-0.692-9.865-2.078c-1.421-1.385-2.131-4.69-2.131-9.918V533.639z
		 M1556.514,532.229v39.493c0,0.916,0.133,1.566,0.398,1.951c0.264,0.386,0.697,0.578,1.301,0.578c0.578,0,0.98-0.181,1.21-0.542
		c0.229-0.361,0.343-1.023,0.343-1.987v-39.493c0-0.939-0.133-1.607-0.396-2.006c-0.266-0.396-0.699-0.596-1.301-0.596
		c-0.555,0-0.952,0.199-1.193,0.596C1556.635,530.622,1556.514,531.29,1556.514,532.229z"/>
	<path fill="#E27A0A" d="M1579.965,521.932h8.273v60.089h-10.262v-44.335h-5.203l0.037-7.985c2.047-0.217,3.703-1.012,4.968-2.385
		S1579.771,524.148,1579.965,521.932z"/>
	<path fill="#E27A0A" d="M1600.09,521.932h8.275v60.089h-10.262v-44.335h-5.203l0.035-7.985c2.048-0.217,3.704-1.012,4.969-2.385
		S1599.897,524.148,1600.09,521.932z"/>
</g>
</svg>
