<?xml version="1.0" encoding="utf-8"?>
<!-- Generator: Adobe Illustrator 14.0.0, SVG Export Plug-In . SVG Version: 6.00 Build 43363)  -->
<!DOCTYPE svg PUBLIC "-//W3C//DTD SVG 1.1//EN" "http://www.w3.org/Graphics/SVG/1.1/DTD/svg11.dtd">
<svg version="1.1" id="Layer_1" xmlns="http://www.w3.org/2000/svg" xmlns:xlink="http://www.w3.org/1999/xlink" x="0px" y="0px"
	 width="800px" height="600px" viewBox="0 0 800 600" enable-background="new 0 0 800 600" xml:space="preserve">
<g>
	<path d="M221.385,278.346c-0.383,0-0.644-0.113-0.783-0.339c-0.14-0.226-0.209-0.548-0.209-0.966c0-1.809,0.052-3.688,0.157-5.638
		c0.104-1.949,0.156-4.02,0.156-6.213c0-0.974,0-1.983,0-3.028c0-1.078-0.009-2.14-0.026-3.185
		c-0.018-1.044-0.044-2.018-0.078-2.923c-0.035-0.905-0.07-1.688-0.104-2.35c0-0.417-0.113-0.774-0.339-1.07
		c-0.227-0.295-0.488-0.557-0.783-0.783c-0.296-0.226-0.557-0.444-0.783-0.653c-0.227-0.208-0.339-0.452-0.339-0.731
		c0-0.104,0.079-0.278,0.235-0.522c0.157-0.243,0.366-0.496,0.626-0.757c0.261-0.261,0.565-0.496,0.914-0.705
		c0.347-0.208,0.713-0.313,1.096-0.313c0.313,0,0.696,0.07,1.148,0.209c0.452,0.139,0.888,0.305,1.305,0.496
		c0.417,0.192,0.774,0.392,1.07,0.601c0.295,0.209,0.444,0.4,0.444,0.574c0,0.313-0.131,0.766-0.392,1.357
		c-0.261,0.592-0.41,1.305-0.444,2.141c0,1.253-0.009,2.558-0.026,3.916c-0.018,1.357-0.061,2.68-0.13,3.967h13.887
		c0.034-0.696,0.06-1.479,0.078-2.349c0.017-0.87,0.026-1.757,0.026-2.663c0-1.218-0.052-2.331-0.156-3.341
		c-0.104-1.009-0.157-1.757-0.157-2.245c0-0.243,0.174-0.47,0.522-0.679c0.348-0.209,0.757-0.392,1.227-0.548
		c0.47-0.157,0.948-0.278,1.436-0.365c0.487-0.086,0.888-0.13,1.201-0.13c0.696,0,1.044,0.244,1.044,0.73
		c0,0.14-0.044,0.287-0.13,0.444c-0.087,0.157-0.183,0.349-0.287,0.574c-0.104,0.227-0.227,0.514-0.365,0.861
		c-0.14,0.349-0.261,0.801-0.366,1.357c-0.104,0.626-0.191,1.305-0.261,2.036c-0.07,0.731-0.123,1.471-0.157,2.219
		c-0.035,0.749-0.061,1.48-0.079,2.193c-0.018,0.714-0.026,1.331-0.026,1.853c0.278-0.034,0.565-0.06,0.861-0.078
		c0.295-0.017,0.583-0.026,0.861-0.026c0.278,0,0.496,0.044,0.653,0.13c0.157,0.087,0.235,0.305,0.235,0.652
		c0,0.313-0.104,0.74-0.313,1.279c-0.208,0.54-0.522,0.809-0.939,0.809c-0.104,0-0.227-0.017-0.366-0.052
		c-0.139-0.034-0.296-0.052-0.47-0.052c-0.348,0-0.522,0.209-0.522,0.626l-0.104,10.285c0,0.209-0.044,0.462-0.13,0.757
		c-0.087,0.296-0.201,0.592-0.339,0.887c-0.14,0.296-0.305,0.548-0.496,0.757c-0.191,0.208-0.409,0.313-0.652,0.313
		c-0.488,0-0.827-0.086-1.018-0.261c-0.192-0.173-0.305-0.539-0.339-1.096l-0.522-12.164c-0.94,0-2.097,0.026-3.472,0.078
		c-1.375,0.052-2.759,0.114-4.15,0.183c-1.393,0.07-2.672,0.166-3.837,0.287c-1.167,0.122-1.993,0.253-2.48,0.392
		c-0.104,0.279-0.174,0.6-0.208,0.966c-0.035,0.365-0.052,0.688-0.052,0.966v8.875C223.734,277.528,222.951,278.346,221.385,278.346
		z"/>
	<path d="M259.495,270.489c-0.662,0.331-1.236,0.932-1.723,1.801l-2.61,4.542c-0.174,0.313-0.279,0.645-0.313,0.992
		c-0.035,0.348-0.296,0.522-0.783,0.522c-0.975,0-1.758-0.104-2.35-0.313c-0.592-0.208-0.887-0.504-0.887-0.887
		c0-0.313,0.174-0.644,0.522-0.992c0.348-0.347,0.748-0.817,1.201-1.409c0.626-0.8,1.322-1.757,2.088-2.872
		c0.765-1.113,1.531-2.279,2.297-3.498c0.765-1.218,1.514-2.445,2.245-3.681c0.731-1.235,1.375-2.375,1.932-3.419
		c0.556-1.044,1.009-1.958,1.357-2.741c0.347-0.783,0.522-1.331,0.522-1.645c0-0.696-0.592-1.635-1.775-2.819l-4.281-4.333
		c-0.488-0.522-0.905-0.888-1.253-1.097c-0.348-0.208-0.522-0.452-0.522-0.731c0-0.139,0.13-0.304,0.392-0.496
		c0.261-0.191,0.565-0.383,0.914-0.574c0.348-0.191,0.705-0.357,1.07-0.496c0.365-0.139,0.669-0.209,0.914-0.209
		c0.487,0,0.87,0.018,1.148,0.052c0.278,0.035,0.513,0.113,0.705,0.235c0.19,0.123,0.347,0.305,0.47,0.548
		c0.122,0.244,0.269,0.574,0.444,0.992c0.069,0.209,0.287,0.557,0.652,1.044c0.366,0.488,0.739,0.975,1.123,1.461
		c2.819,3.412,5.255,6.283,7.309,8.614c2.053,2.332,3.924,4.377,5.612,6.134c1.688,1.758,3.306,3.35,4.855,4.777
		c1.548,1.428,3.245,2.958,5.09,4.594c0.348,0.313,0.679,0.522,0.992,0.626c0.313,0.104,0.583,0.191,0.809,0.261
		c0.226,0.07,0.409,0.166,0.548,0.288c0.139,0.122,0.208,0.339,0.208,0.652c0,0.14-0.096,0.339-0.287,0.601
		c-0.191,0.261-0.427,0.522-0.705,0.783c-0.279,0.261-0.557,0.479-0.835,0.653c-0.279,0.174-0.522,0.261-0.731,0.261h-1.566
		c-0.279,0-0.47-0.122-0.574-0.365c-0.104-0.243-0.244-0.47-0.418-0.679c-1.148-1.566-3.48-4.125-6.996-7.674h-13.834
		C261.148,269.993,260.156,270.158,259.495,270.489z M262.053,264.772c-0.453,0.801-0.749,1.323-0.887,1.566
		c-0.14,0.244-0.209,0.453-0.209,0.626c0,0.139,0.043,0.253,0.13,0.339c0.086,0.087,0.304,0.148,0.653,0.183
		c0.347,0.035,0.87,0.061,1.566,0.078c0.696,0.018,1.671,0.026,2.924,0.026c1.357,0,2.488-0.008,3.394-0.026
		c0.904-0.017,1.635-0.043,2.192-0.078c0.556-0.034,0.974-0.078,1.253-0.13c0.278-0.052,0.487-0.113,0.626-0.183l-8.196-8.353
		L262.053,264.772z"/>
	<path d="M295.022,259.186c0.574-1.879,1.331-3.489,2.271-4.829c0.939-1.339,2.01-2.436,3.21-3.289
		c1.201-0.853,2.444-1.531,3.733-2.036c1.287-0.504,2.549-0.853,3.785-1.044c1.234-0.191,2.34-0.287,3.314-0.287
		c1.463,0,2.592,0.279,3.395,0.835c0.799,0.557,1.199,1.097,1.199,1.619c0,0.209-0.104,0.461-0.312,0.757
		c-0.209,0.296-0.461,0.583-0.758,0.861c-0.295,0.279-0.609,0.514-0.939,0.705c-0.33,0.191-0.6,0.287-0.809,0.287
		s-0.41-0.122-0.6-0.366c-0.193-0.243-0.418-0.513-0.68-0.809c-0.262-0.295-0.582-0.565-0.965-0.809
		c-0.385-0.243-0.854-0.366-1.41-0.366c-1.67,0-3.125,0.288-4.359,0.862c-1.236,0.574-2.297,1.305-3.186,2.192
		c-0.887,0.888-1.609,1.889-2.166,3.002c-0.557,1.114-0.992,2.21-1.305,3.289c-0.313,1.079-0.531,2.08-0.653,3.002
		c-0.122,0.922-0.183,1.645-0.183,2.167c0,1.01,0.217,2.149,0.653,3.419c0.435,1.271,1.052,2.463,1.853,3.576
		c0.8,1.114,1.767,2.045,2.898,2.793c1.131,0.749,2.375,1.123,3.732,1.123c1.254,0,2.393-0.217,3.42-0.653
		c1.025-0.435,1.932-0.921,2.715-1.461c0.783-0.54,1.453-1.026,2.01-1.462c0.557-0.435,0.992-0.653,1.305-0.653
		c0.348,0,0.617,0.104,0.809,0.313s0.287,0.47,0.287,0.783c0,0.139-0.113,0.375-0.338,0.705c-0.227,0.331-0.541,0.705-0.939,1.123
		c-0.402,0.417-0.854,0.844-1.357,1.279c-0.506,0.436-1.055,0.81-1.645,1.123c-0.35,0.209-0.818,0.41-1.41,0.601
		c-0.592,0.191-1.236,0.357-1.932,0.496c-0.697,0.14-1.428,0.253-2.193,0.339c-0.766,0.087-1.496,0.131-2.191,0.131
		c-0.977,0-2.107-0.209-3.395-0.626c-1.288-0.418-2.506-1.123-3.654-2.114c-1.148-0.992-2.114-2.297-2.897-3.916
		c-0.783-1.619-1.174-3.628-1.174-6.03C294.161,263.276,294.448,261.065,295.022,259.186z"/>
	<path d="M329.32,277.876c-0.191,0.174-0.4,0.322-0.626,0.444c-0.227,0.121-0.462,0.217-0.705,0.287
		c-0.244,0.069-0.418,0.104-0.522,0.104c-0.174,0-0.436-0.113-0.782-0.339c-0.349-0.226-0.522-0.53-0.522-0.914
		c0-0.452,0.026-1.113,0.078-1.984c0.053-0.869,0.104-1.861,0.157-2.976c0.052-1.113,0.095-2.297,0.13-3.55
		c0.034-1.253,0.053-2.488,0.053-3.707c0-1.809-0.026-3.619-0.079-5.429c-0.052-1.81-0.113-3.603-0.183-5.377
		c-0.035-0.87-0.113-1.566-0.234-2.088c-0.123-0.522-0.244-0.939-0.365-1.253c-0.123-0.313-0.228-0.565-0.313-0.757
		c-0.088-0.191-0.131-0.374-0.131-0.548c0-0.173,0.112-0.417,0.34-0.73c0.226-0.313,0.478-0.626,0.757-0.94
		c0.278-0.313,0.574-0.591,0.888-0.835c0.312-0.243,0.539-0.365,0.679-0.365c0.208,0,0.513,0.096,0.913,0.287
		c0.399,0.192,0.652,0.339,0.757,0.444c0.069,0.07,0.183,0.244,0.34,0.522c0.156,0.279,0.313,0.583,0.47,0.914
		c0.156,0.331,0.287,0.635,0.392,0.914c0.104,0.279,0.156,0.47,0.156,0.574c0,0.244-0.113,0.548-0.339,0.914
		c-0.227,0.366-0.357,0.844-0.392,1.436c-0.07,1.357-0.131,2.532-0.183,3.524c-0.053,0.992-0.104,1.853-0.157,2.584
		c-0.052,0.731-0.087,1.357-0.104,1.879s-0.025,1.01-0.025,1.462c0,0.383,0.025,0.662,0.078,0.835
		c0.052,0.174,0.183,0.261,0.392,0.261c0.174,0,0.652-0.374,1.436-1.123c0.783-0.748,1.714-1.67,2.793-2.767
		c1.078-1.097,2.236-2.297,3.472-3.603s2.393-2.506,3.472-3.602c1.078-1.096,2.01-2.018,2.793-2.767
		c0.783-0.748,1.262-1.123,1.436-1.123c0.209,0,0.496,0.123,0.861,0.366c0.366,0.244,0.723,0.522,1.07,0.835
		c0.348,0.313,0.653,0.618,0.914,0.914c0.261,0.296,0.392,0.496,0.392,0.6c0,0.175-0.123,0.322-0.365,0.444
		c-0.244,0.123-0.531,0.235-0.862,0.339s-0.678,0.227-1.044,0.365c-0.365,0.14-0.67,0.313-0.913,0.522
		c-0.94,0.801-1.984,1.767-3.133,2.897c-1.148,1.131-2.289,2.245-3.419,3.341c-1.132,1.097-2.193,2.088-3.185,2.976
		c-0.992,0.887-1.802,1.506-2.428,1.853v0.104c0.521,0.07,1.148,0.366,1.879,0.888c0.731,0.522,1.522,1.167,2.376,1.932
		c0.853,0.766,1.757,1.601,2.715,2.506c0.956,0.905,1.913,1.749,2.871,2.532c0.957,0.783,1.896,1.461,2.819,2.036
		c0.922,0.574,1.783,0.932,2.584,1.07c0.487,0.07,0.809,0.192,0.966,0.366c0.156,0.174,0.234,0.436,0.234,0.783
		c0,0.175-0.191,0.392-0.574,0.653c-0.383,0.261-0.827,0.505-1.331,0.731c-0.505,0.227-0.992,0.417-1.462,0.574
		s-0.809,0.235-1.018,0.235s-0.496-0.147-0.861-0.444c-0.365-0.295-0.792-0.679-1.279-1.148c-0.488-0.47-1.036-1.009-1.645-1.619
		c-0.609-0.608-1.262-1.244-1.958-1.905c-1.705-1.601-3.08-2.889-4.124-3.863c-1.044-0.974-1.871-1.723-2.479-2.245
		c-0.609-0.522-1.062-0.861-1.357-1.018c-0.296-0.157-0.566-0.235-0.81-0.235c-0.349,0-0.626,0.018-0.835,0.052
		c-0.209,0.035-0.384,0.07-0.522,0.104c-0.035,1.253-0.061,2.506-0.078,3.759s-0.026,2.489-0.026,3.707v3.811
		C329.607,277.51,329.512,277.702,329.32,277.876z"/>
	<path d="M376.75,278.659c-0.035,0.591-0.104,1.183-0.209,1.775c-0.104,0.591-0.235,1.113-0.392,1.566
		c-0.156,0.452-0.357,0.679-0.601,0.679c-0.175,0-0.383-0.044-0.626-0.13c-0.244-0.087-0.471-0.201-0.679-0.339
		c-0.209-0.14-0.392-0.287-0.549-0.444c-0.156-0.157-0.234-0.322-0.234-0.496c0-0.348,0.017-0.74,0.052-1.174
		c0.034-0.436,0.069-1.079,0.104-1.932c0.034-0.853,0.069-2.018,0.104-3.498c0.034-1.479,0.053-3.437,0.053-5.873
		c0-0.591-0.035-1.062-0.104-1.41c-0.07-0.348-0.157-0.661-0.262-0.939c-0.104-0.278-0.191-0.548-0.261-0.81
		c-0.07-0.261-0.104-0.565-0.104-0.914c0-0.556,0.078-1.078,0.235-1.566c0.156-0.487,0.234-1.026,0.234-1.619
		c0-0.209-0.025-0.617-0.078-1.227c-0.052-0.609-0.104-1.288-0.156-2.036c-0.053-0.748-0.113-1.514-0.183-2.297
		c-0.07-0.783-0.123-1.436-0.157-1.958c-0.417-0.591-0.766-1.183-1.044-1.775c-0.279-0.592-0.418-1.079-0.418-1.462
		c0-0.174,0.113-0.426,0.34-0.757c0.226-0.331,0.504-0.653,0.835-0.966c0.33-0.313,0.67-0.583,1.019-0.81
		c0.347-0.226,0.644-0.339,0.887-0.339c0.452,0,0.948,0.044,1.488,0.131c0.539,0.087,1.313,0.13,2.323,0.13
		c1.113,0,2.314-0.026,3.603-0.078c1.287-0.052,2.514-0.104,3.681-0.157c1.165-0.052,2.209-0.104,3.132-0.157
		c0.922-0.052,1.574-0.078,1.958-0.078c0.104,0,0.226,0.035,0.365,0.104c0.139,0.07,0.209,0.208,0.209,0.417
		c0,0.104-0.044,0.261-0.131,0.47s-0.191,0.41-0.313,0.601c-0.122,0.191-0.261,0.365-0.417,0.522
		c-0.157,0.157-0.322,0.253-0.496,0.287c-0.801,0.14-1.775,0.27-2.924,0.392c-1.148,0.122-2.314,0.244-3.498,0.365
		c-1.184,0.123-2.288,0.235-3.314,0.339c-1.027,0.104-1.837,0.209-2.428,0.313c-0.175,0.035-0.306,0.122-0.392,0.261
		c-0.087,0.14-0.166,0.505-0.235,1.097c-0.104,1.01-0.165,2.185-0.183,3.524c-0.018,1.34-0.025,2.688-0.025,4.046
		c0,0.453,0.008,0.896,0.025,1.331c0.018,0.436,0.026,0.879,0.026,1.332h4.124c1.81,0,3.42-0.096,4.829-0.287
		c1.41-0.191,2.532-0.287,3.367-0.287c0.661,0,0.992,0.313,0.992,0.939c0,0.557-0.122,0.992-0.365,1.305
		c-0.244,0.313-0.54,0.47-0.888,0.47c-0.592,0-1.453,0.044-2.584,0.131c-1.132,0.087-2.315,0.191-3.55,0.313
		c-1.236,0.123-2.42,0.253-3.551,0.392c-1.131,0.14-1.992,0.261-2.584,0.366v10.911C376.802,277.633,376.784,278.067,376.75,278.659
		z"/>
	<path d="M406.507,246.213c0.313-0.052,0.748-0.079,1.305-0.079c1.322,0,2.55,0.192,3.681,0.574c1.131,0.383,2.114,0.888,2.95,1.514
		c0.835,0.626,1.496,1.331,1.983,2.114s0.731,1.575,0.731,2.375c0,1.253-0.209,2.323-0.627,3.21
		c-0.418,0.888-0.948,1.627-1.592,2.219c-0.645,0.592-1.332,1.07-2.062,1.436c-0.731,0.365-1.409,0.652-2.036,0.861
		c-0.835,0.279-1.34,0.461-1.514,0.548c-0.175,0.087-0.262,0.183-0.262,0.287c0,0.104,0.139,0.227,0.418,0.365
		c0.278,0.14,0.888,0.505,1.827,1.096c0.939,0.592,2.054,1.305,3.342,2.141c1.287,0.835,2.68,1.758,4.176,2.767
		c1.113,0.731,2.236,1.454,3.367,2.167c1.131,0.714,2.21,1.401,3.237,2.062c1.026,0.662,1.975,1.253,2.845,1.775
		c0.87,0.522,1.584,0.958,2.141,1.305c1.427,0.801,2.854,1.201,4.281,1.201c0.139,0,0.27,0.07,0.392,0.209
		c0.121,0.14,0.183,0.331,0.183,0.574c0,0.175-0.148,0.436-0.443,0.783c-0.297,0.348-0.645,0.696-1.045,1.044
		c-0.4,0.348-0.801,0.653-1.2,0.914c-0.4,0.261-0.705,0.392-0.914,0.392c-0.383,0-1.166-0.383-2.349-1.148
		c-1.184-0.765-2.585-1.723-4.203-2.871c-1.618-1.149-3.376-2.419-5.272-3.811c-1.897-1.392-3.769-2.697-5.612-3.916
		c-1.846-1.218-3.576-2.279-5.194-3.185c-1.619-0.905-2.95-1.462-3.994-1.671c-0.07,0.697-0.122,1.471-0.156,2.323
		c-0.035,0.853-0.053,1.697-0.053,2.532v1.409c0,1.428,0.026,2.593,0.078,3.498c0.053,0.905,0.104,1.645,0.157,2.219
		c0.052,0.574,0.104,1.036,0.156,1.383c0.053,0.349,0.078,0.662,0.078,0.94c0,0.348-0.096,0.591-0.287,0.731
		c-0.191,0.139-0.531,0.208-1.018,0.208c-0.244,0-0.574-0.044-0.992-0.13c-0.418-0.087-0.827-0.191-1.227-0.313
		c-0.4-0.122-0.74-0.278-1.019-0.47c-0.278-0.191-0.417-0.392-0.417-0.6c0-0.174,0.043-0.348,0.13-0.522
		c0.087-0.174,0.191-0.409,0.313-0.705c0.122-0.295,0.243-0.669,0.365-1.123c0.122-0.452,0.2-1.009,0.235-1.67
		c0-0.278,0.017-0.948,0.052-2.01c0.034-1.062,0.079-2.305,0.131-3.733c0.052-1.427,0.096-2.932,0.131-4.516
		c0.034-1.583,0.052-3.036,0.052-4.359c0-0.591-0.009-1.339-0.026-2.245c-0.018-0.904-0.052-1.801-0.104-2.688
		c-0.052-0.888-0.122-1.67-0.208-2.349c-0.088-0.679-0.201-1.07-0.34-1.175c-0.73-0.417-1.097-0.94-1.097-1.566
		c0-0.452,0.348-0.765,1.045-0.939l4.542-1.201C405.88,246.326,406.193,246.265,406.507,246.213z M405.176,260.021
		c0.121,0.07,0.252,0.104,0.392,0.104c0.174,0,0.451-0.086,0.835-0.261c0.383-0.174,1.026-0.47,1.932-0.888
		c0.313-0.139,0.652-0.295,1.018-0.47c0.366-0.174,0.739-0.392,1.123-0.653c0.383-0.261,0.73-0.574,1.044-0.939
		c0.313-0.366,0.574-0.809,0.783-1.332c0.383-1.148,0.574-2.314,0.574-3.498c0-0.487-0.078-0.888-0.235-1.201
		c-0.156-0.313-0.339-0.609-0.548-0.888c-0.07-0.104-0.227-0.226-0.47-0.365c-0.244-0.139-0.514-0.27-0.81-0.392
		c-0.296-0.122-0.574-0.217-0.835-0.287c-0.261-0.069-0.462-0.104-0.601-0.104c-0.14,0-0.4,0.026-0.783,0.078
		s-0.774,0.131-1.175,0.235c-0.4,0.104-0.757,0.227-1.07,0.366c-0.312,0.14-0.487,0.296-0.521,0.47
		c-0.175,0.801-0.313,1.663-0.418,2.584c-0.104,0.922-0.191,1.827-0.261,2.714c-0.07,0.888-0.113,1.706-0.131,2.454
		c-0.018,0.749-0.025,1.331-0.025,1.749C404.993,259.778,405.053,259.952,405.176,260.021z"/>
	<path d="M445.139,270.489c-0.661,0.331-1.235,0.932-1.723,1.801l-2.61,4.542c-0.175,0.313-0.279,0.645-0.313,0.992
		c-0.035,0.348-0.296,0.522-0.783,0.522c-0.975,0-1.758-0.104-2.349-0.313c-0.593-0.208-0.888-0.504-0.888-0.887
		c0-0.313,0.174-0.644,0.521-0.992c0.348-0.347,0.748-0.817,1.201-1.409c0.627-0.8,1.322-1.757,2.088-2.872
		c0.766-1.113,1.531-2.279,2.298-3.498c0.765-1.218,1.514-2.445,2.244-3.681c0.731-1.235,1.375-2.375,1.932-3.419
		c0.557-1.044,1.01-1.958,1.357-2.741c0.348-0.783,0.522-1.331,0.522-1.645c0-0.696-0.593-1.635-1.775-2.819l-4.28-4.333
		c-0.488-0.522-0.906-0.888-1.253-1.097c-0.349-0.208-0.522-0.452-0.522-0.731c0-0.139,0.131-0.304,0.392-0.496
		c0.261-0.191,0.565-0.383,0.914-0.574c0.347-0.191,0.704-0.357,1.069-0.496c0.366-0.139,0.67-0.209,0.914-0.209
		c0.487,0,0.869,0.018,1.148,0.052c0.278,0.035,0.513,0.113,0.705,0.235c0.19,0.123,0.348,0.305,0.47,0.548
		c0.121,0.244,0.27,0.574,0.443,0.992c0.069,0.209,0.287,0.557,0.653,1.044c0.365,0.488,0.738,0.975,1.122,1.461
		c2.819,3.412,5.255,6.283,7.309,8.614c2.054,2.332,3.924,4.377,5.612,6.134c1.688,1.758,3.307,3.35,4.855,4.777
		c1.548,1.428,3.245,2.958,5.09,4.594c0.348,0.313,0.679,0.522,0.992,0.626s0.582,0.191,0.809,0.261
		c0.227,0.07,0.409,0.166,0.549,0.288c0.139,0.122,0.209,0.339,0.209,0.652c0,0.14-0.097,0.339-0.287,0.601
		c-0.192,0.261-0.427,0.522-0.705,0.783c-0.279,0.261-0.558,0.479-0.835,0.653c-0.279,0.174-0.522,0.261-0.731,0.261h-1.566
		c-0.278,0-0.47-0.122-0.574-0.365s-0.243-0.47-0.417-0.679c-1.148-1.566-3.481-4.125-6.996-7.674h-13.835
		C446.791,269.993,445.8,270.158,445.139,270.489z M447.697,264.772c-0.453,0.801-0.749,1.323-0.888,1.566
		c-0.14,0.244-0.209,0.453-0.209,0.626c0,0.139,0.043,0.253,0.131,0.339c0.086,0.087,0.304,0.148,0.652,0.183
		c0.348,0.035,0.869,0.061,1.566,0.078c0.695,0.018,1.67,0.026,2.923,0.026c1.357,0,2.488-0.008,3.394-0.026
		c0.905-0.017,1.636-0.043,2.193-0.078c0.556-0.034,0.974-0.078,1.253-0.13c0.277-0.052,0.486-0.113,0.626-0.183l-8.196-8.353
		L447.697,264.772z"/>
	<path d="M507.056,253.939c1.113-1.861,1.957-3.271,2.531-4.229c0.574-0.957,0.983-1.566,1.228-1.827
		c0.243-0.261,0.486-0.392,0.73-0.392c0.209,0,0.496,0.044,0.861,0.13c0.365,0.087,0.731,0.192,1.097,0.313
		c0.365,0.122,0.679,0.253,0.939,0.392c0.261,0.139,0.392,0.261,0.392,0.365c0,0.383-0.026,0.74-0.078,1.07
		c-0.053,0.331-0.078,0.618-0.078,0.861c0,1.079,0.121,2.463,0.365,4.15c0.243,1.688,0.548,3.481,0.913,5.377
		c0.366,1.897,0.766,3.82,1.201,5.769c0.435,1.95,0.835,3.733,1.201,5.352c0.365,1.618,0.669,2.967,0.913,4.046
		c0.243,1.079,0.365,1.723,0.365,1.932c0,0.208-0.14,0.4-0.417,0.574c-0.279,0.174-0.601,0.322-0.966,0.444
		c-0.366,0.122-0.705,0.226-1.019,0.313c-0.313,0.086-0.521,0.13-0.626,0.13c-0.313,0-0.531-0.07-0.653-0.208
		c-0.122-0.14-0.218-0.452-0.287-0.94c-0.278-2.366-0.609-4.689-0.991-6.969c-0.384-2.279-0.775-4.49-1.175-6.63
		c-0.4-2.141-0.792-4.194-1.175-6.161c-0.384-1.966-0.696-3.819-0.939-5.56c-2.298,3.516-4.125,6.352-5.482,8.509
		c-1.356,2.159-2.401,3.873-3.132,5.143c-0.731,1.271-1.21,2.219-1.436,2.845c-0.227,0.626-0.357,1.167-0.392,1.618
		c-0.035,0.592-0.175,0.984-0.418,1.175c-0.244,0.192-0.609,0.287-1.097,0.287s-0.835-0.104-1.044-0.313
		c-0.209-0.209-0.452-0.661-0.73-1.357c-0.14-0.313-0.436-0.861-0.888-1.645c-0.453-0.783-1.001-1.679-1.645-2.688
		c-0.645-1.009-1.349-2.088-2.114-3.237c-0.766-1.149-1.514-2.262-2.245-3.341c-0.73-1.079-1.401-2.08-2.01-3.002
		c-0.609-0.922-1.088-1.645-1.436-2.167c-0.104,0.417-0.279,1.236-0.522,2.454c-0.243,1.219-0.521,2.619-0.835,4.203
		c-0.313,1.584-0.636,3.255-0.966,5.012c-0.331,1.758-0.636,3.394-0.914,4.907c-0.278,1.514-0.505,2.811-0.679,3.89
		c-0.174,1.079-0.261,1.723-0.261,1.932c0,0.279,0.034,0.557,0.104,0.835c0.069,0.279,0.104,0.557,0.104,0.835
		c0,0.14-0.078,0.27-0.235,0.392c-0.156,0.122-0.409,0.183-0.757,0.183c-0.835,0-1.592-0.087-2.271-0.261s-1.019-0.557-1.019-1.148
		c0-0.278,0.087-0.67,0.262-1.175c0.174-0.504,0.417-1.227,0.73-2.167c0.174-0.557,0.418-1.436,0.731-2.637
		c0.312-1.201,0.644-2.575,0.991-4.124c0.348-1.548,0.705-3.176,1.07-4.881c0.365-1.705,0.696-3.323,0.992-4.855
		c0.295-1.531,0.539-2.897,0.73-4.099c0.191-1.201,0.287-2.062,0.287-2.584c0-0.591-0.087-1-0.261-1.227
		c-0.175-0.226-0.261-0.548-0.261-0.966c0-0.382,0.261-0.634,0.783-0.757c0.521-0.122,1.165-0.183,1.932-0.183
		c0.591,0,0.982,0.061,1.174,0.183c0.191,0.123,0.322,0.375,0.392,0.757c0.104,0.522,0.4,1.253,0.888,2.193
		c0.487,0.939,1.078,1.993,1.775,3.158c0.695,1.167,1.453,2.385,2.271,3.655c0.817,1.271,1.609,2.472,2.376,3.602
		c0.765,1.131,1.462,2.149,2.088,3.054c0.627,0.905,1.097,1.584,1.409,2.036l2.977-4.751
		C504.393,258.333,505.941,255.801,507.056,253.939z"/>
	<path d="M531.671,258.116c-0.087-2.523-0.218-4.376-0.392-5.56c-0.035-0.209-0.087-0.399-0.156-0.574
		c-0.07-0.174-0.209-0.313-0.418-0.417c-0.521-0.278-0.783-0.591-0.783-0.94c0-0.487,0.305-0.948,0.914-1.383
		c0.608-0.435,1.313-0.827,2.114-1.175c0.8-0.348,1.627-0.626,2.479-0.835c0.853-0.208,1.505-0.313,1.958-0.313
		c0.904,0,1.949,0.113,3.133,0.339c1.183,0.227,2.278,0.548,3.289,0.966c0.451,0.209,0.904,0.54,1.357,0.992
		c0.451,0.453,0.861,0.949,1.227,1.488s0.66,1.096,0.888,1.67c0.226,0.574,0.339,1.105,0.339,1.592c0,2.437-0.296,4.107-0.888,5.012
		c-0.348,0.557-0.801,1.158-1.357,1.801c-0.557,0.645-1.14,1.253-1.749,1.827c-0.608,0.574-1.184,1.053-1.723,1.436
		c-0.54,0.383-0.948,0.574-1.227,0.574c-0.279,0-0.618-0.069-1.018-0.208c-0.401-0.139-0.783-0.295-1.149-0.47
		c-0.365-0.173-0.679-0.365-0.939-0.574c-0.261-0.208-0.392-0.365-0.392-0.47c0-0.174,0.087-0.321,0.262-0.444
		c0.173-0.122,0.504-0.235,0.991-0.339c1.671-0.347,2.993-1.078,3.968-2.192c0.975-1.114,1.462-2.35,1.462-3.707
		c0-0.522-0.062-1.156-0.183-1.905c-0.122-0.748-0.34-1.47-0.652-2.167c-0.313-0.696-0.74-1.287-1.279-1.775
		c-0.54-0.487-1.21-0.731-2.01-0.731c-0.767,0-1.471,0.104-2.114,0.313c-0.645,0.209-1.314,0.522-2.011,0.94
		c-0.069,0.592-0.139,1.297-0.208,2.114c-0.07,0.818-0.131,1.67-0.183,2.558c-0.053,0.888-0.097,1.767-0.131,2.636
		c-0.035,0.871-0.053,1.654-0.053,2.35v13.782c0,1.915-0.218,3.324-0.652,4.229c-0.436,0.904-1.192,1.357-2.271,1.357
		c-0.593,0-0.888-0.261-0.888-0.783c0-0.14,0.026-0.296,0.078-0.47c0.053-0.175,0.122-0.409,0.209-0.705
		c0.086-0.295,0.156-0.696,0.209-1.201c0.052-0.504,0.078-1.175,0.078-2.01v-7.779C531.802,263.589,531.758,260.64,531.671,258.116z
		"/>
	<path d="M556.208,275.396c0.156-0.157,0.321-0.235,0.496-0.235c0.486,0,1.061,0.166,1.723,0.496
		c0.66,0.331,1.479,0.496,2.453,0.496c0.94,0,1.697-0.321,2.271-0.966c0.574-0.644,0.861-1.348,0.861-2.114
		c0-0.696-0.166-1.514-0.496-2.454c-0.331-0.94-0.74-1.94-1.227-3.002c-0.488-1.061-1.019-2.158-1.593-3.289
		c-0.574-1.13-1.105-2.227-1.592-3.289c-0.488-1.061-0.896-2.062-1.228-3.001c-0.331-0.94-0.495-1.74-0.495-2.402
		c0-0.591,0.234-1.436,0.704-2.532s1.097-2.201,1.88-3.315c0.783-1.113,1.688-2.079,2.715-2.897c1.026-0.817,2.096-1.227,3.21-1.227
		c0.243,0,0.601,0.026,1.07,0.078c0.471,0.052,0.931,0.14,1.384,0.261c0.452,0.122,0.853,0.279,1.201,0.47
		c0.347,0.192,0.521,0.427,0.521,0.705c0,0.696-0.13,1.148-0.392,1.357c-0.261,0.209-0.879,0.332-1.854,0.366
		c-2.297,0.07-3.95,0.6-4.959,1.592c-1.01,0.992-1.514,2.219-1.514,3.681c0,0.905,0.295,2.045,0.887,3.419
		c0.592,1.375,1.244,2.854,1.958,4.438c0.713,1.584,1.365,3.22,1.958,4.907c0.591,1.688,0.888,3.298,0.888,4.829
		c0,0.279-0.088,0.854-0.262,1.723c-0.174,0.87-0.496,1.767-0.966,2.688c-0.47,0.922-1.096,1.749-1.879,2.48
		c-0.783,0.73-1.802,1.096-3.055,1.096c-0.312,0-0.714-0.052-1.2-0.157c-0.488-0.104-0.966-0.244-1.436-0.417
		c-0.47-0.175-0.888-0.357-1.253-0.548c-0.366-0.192-0.584-0.374-0.653-0.548c-0.104-0.313-0.191-0.617-0.261-0.914
		c-0.07-0.295-0.104-0.617-0.104-0.966C555.973,275.823,556.051,275.553,556.208,275.396z"/>
</g>
</svg>
